{
classes = (
{
automatic = 1;
code = "A Aacute Abreve Acircumflex Adieresis Agrave Amacron Aogonek Aring Aringacute Atilde AE AEacute B C Cacute Ccaron Ccedilla Ccircumflex Cdotaccent D Eth Dcaron Dcroat E Eacute Ebreve Ecaron Ecircumflex Edieresis Edotaccent Egrave Emacron Eogonek F G Gbreve Gcircumflex Gcommaaccent Gdotaccent H Hbar Hcircumflex I IJ Iacute Ibreve Icircumflex Idieresis Idotaccent Igrave Imacron Iogonek Itilde J Jcircumflex K Kcommaaccent L Lacute Lcaron Lcommaaccent Ldot Lslash M N Nacute Ncaron Ncommaaccent Eng Ntilde O Oacute Obreve Ocircumflex Odieresis Ograve Ohungarumlaut Omacron Oslash Oslashacute Otilde OE P Thorn Q R Racute Rcaron Rcommaaccent S Sacute Scaron Scedilla Scircumflex Scommaaccent T Tbar Tcaron Tcedilla Tcommaaccent U Uacute Ubreve Ucircumflex Udieresis Ugrave Uhungarumlaut Umacron Uogonek Uring Utilde V W Wacute Wcircumflex Wdieresis Wgrave X Y Yacute Ycircumflex Ydieresis Ygrave Z Zacute Zcaron Zdotaccent A-cy Be-cy Ve-cy Ge-cy Gje-cy Gheupturn-cy De-cy Ie-cy Iegrave-cy Io-cy Zhe-cy Ze-cy Ii-cy Iishort-cy Iigrave-cy Ka-cy Kje-cy El-cy Em-cy En-cy O-cy Pe-cy Er-cy Es-cy Te-cy U-cy Ushort-cy Ef-cy Ha-cy Che-cy Tse-cy Sha-cy Shcha-cy Dzhe-cy Ia-cy Softsign-cy Hardsign-cy Yeru-cy Lje-cy Nje-cy Dze-cy E-cy Ereversed-cy I-cy Yi-cy Je-cy Tshe-cy Iu-cy Dje-cy Ustraitstroke-cy Gamma Delta Pi Omega";
name = Uppercase;
}
);
copyright = "Copyright (c) 2011-2013, Sol Matas (www.huertatipografica.com.ar), with Reserved Font Name \"Bitter\".";
customParameters = (
{
name = openTypeNameLicenseURL;
value = "http://scripts.sil.org/OFL";
},
{
name = trademark;
value = "Bitter is a trademark of Sol Matas (www.huertatipografica.com.ar).";
},
{
name = openTypeNameLicense;
value = "This Font Software is licensed under the SIL Open Font License, Version 1.1. This license is available with a FAQ at: http://scripts.sil.org/OFL";
}
);
date = "2013-05-19 21:02:16 +0000";
designer = "Sol Matas";
designerURL = www.huertatipografica.com.ar;

glyphs = (
{
glyphname = A;
layers = (
{
layerId = "9A1863D8-8A35-4672-A3E4-263E374F0942";
name = Bold;
paths = (
{
closed = 1;
nodes = (
"305 700 LINE",
"85 112 LINE",
"13 89 LINE",
"13 0 LINE",
"316 0 LINE",
"316 89 LINE",
"239 113 LINE",
"264 185 LINE",
"483 185 LINE",
"507 112 LINE",
"433 89 LINE",
"433 0 LINE",
"752 0 LINE",
"752 89 LINE",
"682 112 LINE",
"468 708 LINE"
);
},
{
closed = 1;
nodes = (
"410 425 LINE",
"450 293 LINE",
"298 293 LINE",
"339 422 LINE",
"376 546 LINE"
);
}
);
width = 764;
}
);
leftKerningGroup = A;
rightKerningGroup = A;
unicode = 0041;
},
{
glyphname = AE;
layers = (
{
layerId = "9A1863D8-8A35-4672-A3E4-263E374F0942";
name = Bold;
paths = (
{
closed = 1;
nodes = (
"409 705 LINE",
"247 700 LINE",
"247 616 LINE",
"332 588 LINE",
"103 114 LINE",
"21 89 LINE",
"21 0 LINE",
"321 0 LINE",
"321 89 LINE",
"259 110 LINE",
"298 192 LINE",
"490 192 LINE",
"490 114 LINE",
"417 89 LINE",
"417 0 LINE",
"939 0 LINE",
"939 204 LINE",
"845 204 LINE",
"822 119 LINE",
"648 119 LINE",
"648 309 LINE",
"848 309 LINE",
"848 421 LINE",
"648 421 LINE",
"648 586 LINE",
"807 586 LINE",
"832 509 LINE",
"926 509 LINE",
"926 705 LINE"
);
},
{
closed = 1;
nodes = (
"490 301 LINE",
"346 301 LINE",
"476 586 LINE",
"490 586 LINE"
);
}
);
width = 985;
}
);
leftKerningGroup = A;
rightKerningGroup = E;
unicode = 00C6;
},
{
glyphname = B;
layers = (
{
layerId = "9A1863D8-8A35-4672-A3E4-263E374F0942";
name = Bold;
paths = (
{
closed = 1;
nodes = (
"270 705 LINE",
"40 700 LINE",
"40 616 LINE",
"114 586 LINE",
"114 114 LINE",
"40 89 LINE",
"40 0 LINE",
"357 0 LINE SMOOTH",
"519 0 OFFCURVE",
"617 60 OFFCURVE",
"617 208 CURVE SMOOTH",
"617 284 OFFCURVE",
"568 341 OFFCURVE",
"475 367 CURVE",
"553 392 OFFCURVE",
"594 446 OFFCURVE",
"594 533 CURVE SMOOTH",
"594 650 OFFCURVE",
"504 705 OFFCURVE",
"374 705 CURVE SMOOTH"
);
},
{
closed = 1;
nodes = (
"416 312 OFFCURVE",
"457 279 OFFCURVE",
"457 208 CURVE SMOOTH",
"457 154 OFFCURVE",
"420 119 OFFCURVE",
"351 119 CURVE SMOOTH",
"270 119 LINE",
"270 312 LINE",
"327 312 LINE"
);
},
{
closed = 1;
nodes = (
"398 586 OFFCURVE",
"437 561 OFFCURVE",
"437 510 CURVE SMOOTH",
"437 448 OFFCURVE",
"395 418 OFFCURVE",
"327 418 CURVE SMOOTH",
"270 418 LINE",
"270 586 LINE",
"356 586 LINE"
);
}
);
width = 659;
}
);
rightKerningGroup = B;
unicode = 0042;
},
{
glyphname = C;
layers = (
{
layerId = "9A1863D8-8A35-4672-A3E4-263E374F0942";
name = Bold;
paths = (
{
closed = 1;
nodes = (
"182 718 OFFCURVE",
"49 578 OFFCURVE",
"49 343 CURVE SMOOTH",
"49 110 OFFCURVE",
"166 -13 OFFCURVE",
"369 -13 CURVE SMOOTH",
"527 -13 OFFCURVE",
"632 98 OFFCURVE",
"632 98 CURVE",
"576 189 LINE",
"576 189 OFFCURVE",
"487 119 OFFCURVE",
"387 119 CURVE SMOOTH",
"283 119 OFFCURVE",
"219 187 OFFCURVE",
"219 348 CURVE SMOOTH",
"219 514 OFFCURVE",
"278 591 OFFCURVE",
"382 591 CURVE SMOOTH",
"446 591 OFFCURVE",
"493 574 OFFCURVE",
"493 574 CURVE",
"516 479 LINE",
"615 479 LINE",
"620 671 LINE",
"620 671 OFFCURVE",
"508 718 OFFCURVE",
"387 718 CURVE SMOOTH"
);
}
);
width = 662;
}
);
leftKerningGroup = O;
rightKerningGroup = C;
unicode = 0043;
},
{
glyphname = Ccedilla;
layers = (
{
layerId = "9A1863D8-8A35-4672-A3E4-263E374F0942";
name = Bold;
paths = (
{
closed = 1;
nodes = (
"182 718 OFFCURVE",
"49 578 OFFCURVE",
"49 343 CURVE SMOOTH",
"49 124 OFFCURVE",
"153 3 OFFCURVE",
"334 -11 CURVE",
"334 -87 LINE",
"382 -87 OFFCURVE",
"415 -102 OFFCURVE",
"415 -130 CURVE SMOOTH",
"415 -152 OFFCURVE",
"398 -167 OFFCURVE",
"370 -167 CURVE SMOOTH",
"330 -167 OFFCURVE",
"287 -144 OFFCURVE",
"287 -144 CURVE",
"255 -201 LINE",
"255 -201 OFFCURVE",
"313 -235 OFFCURVE",
"381 -235 CURVE SMOOTH",
"454 -235 OFFCURVE",
"508 -193 OFFCURVE",
"508 -134 CURVE SMOOTH",
"508 -84 OFFCURVE",
"473 -54 OFFCURVE",
"423 -44 CURVE",
"423 -8 LINE",
"550 12 OFFCURVE",
"632 98 OFFCURVE",
"632 98 CURVE",
"576 189 LINE",
"576 189 OFFCURVE",
"487 119 OFFCURVE",
"387 119 CURVE SMOOTH",
"283 119 OFFCURVE",
"219 187 OFFCURVE",
"219 348 CURVE SMOOTH",
"219 514 OFFCURVE",
"278 591 OFFCURVE",
"382 591 CURVE SMOOTH",
"446 591 OFFCURVE",
"493 574 OFFCURVE",
"493 574 CURVE",
"516 480 LINE",
"615 480 LINE",
"620 671 LINE",
"620 671 OFFCURVE",
"508 718 OFFCURVE",
"387 718 CURVE SMOOTH"
);
}
);
width = 662;
}
);
leftKerningGroup = O;
rightKerningGroup = C;
unicode = 00C7;
},
{
glyphname = D;
layers = (
{
layerId = "9A1863D8-8A35-4672-A3E4-263E374F0942";
name = Bold;
paths = (
{
closed = 1;
nodes = (
"277 705 LINE",
"45 700 LINE",
"45 616 LINE",
"119 586 LINE",
"119 114 LINE",
"45 89 LINE",
"45 0 LINE",
"356 0 LINE SMOOTH",
"558 0 OFFCURVE",
"688 137 OFFCURVE",
"688 363 CURVE SMOOTH",
"688 588 OFFCURVE",
"571 705 OFFCURVE",
"371 705 CURVE SMOOTH"
);
},
{
closed = 1;
nodes = (
"461 586 OFFCURVE",
"518 524 OFFCURVE",
"518 358 CURVE SMOOTH",
"518 178 OFFCURVE",
"454 119 OFFCURVE",
"358 119 CURVE SMOOTH",
"277 119 LINE",
"277 586 LINE",
"365 586 LINE SMOOTH"
);
}
);
width = 730;
}
);
leftKerningGroup = H;
rightKerningGroup = O;
unicode = 0044;
},
{
glyphname = Eth;
layers = (
{
layerId = "9A1863D8-8A35-4672-A3E4-263E374F0942";
name = Bold;
paths = (
{
closed = 1;
nodes = (
"290 705 LINE",
"42 700 LINE",
"42 616 LINE",
"132 586 LINE",
"132 423 LINE",
"50 423 LINE",
"50 312 LINE",
"132 312 LINE",
"132 114 LINE",
"42 89 LINE",
"42 0 LINE",
"372 0 LINE SMOOTH",
"575 0 OFFCURVE",
"705 137 OFFCURVE",
"705 363 CURVE SMOOTH",
"705 588 OFFCURVE",
"588 705 OFFCURVE",
"387 705 CURVE SMOOTH"
);
},
{
closed = 1;
nodes = (
"479 586 OFFCURVE",
"535 524 OFFCURVE",
"535 358 CURVE SMOOTH",
"535 178 OFFCURVE",
"471 119 OFFCURVE",
"375 119 CURVE SMOOTH",
"290 119 LINE",
"290 312 LINE",
"409 312 LINE",
"409 423 LINE",
"290 423 LINE",
"290 586 LINE",
"383 586 LINE"
);
}
);
width = 765;
}
);
leftKerningGroup = H;
rightKerningGroup = O;
unicode = 00D0;
},
{
glyphname = E;
layers = (
{
guideLines = (
{
position = "{188, 80}";
}
);
layerId = "9A1863D8-8A35-4672-A3E4-263E374F0942";
name = Bold;
paths = (
{
closed = 1;
nodes = (
"282 705 LINE",
"50 700 LINE",
"50 616 LINE",
"124 586 LINE",
"124 114 LINE",
"50 89 LINE",
"50 0 LINE",
"573 0 LINE",
"573 201 LINE",
"479 201 LINE",
"457 119 LINE",
"282 119 LINE",
"282 309 LINE",
"483 309 LINE",
"483 421 LINE",
"282 421 LINE",
"282 586 LINE",
"442 586 LINE",
"467 512 LINE",
"561 512 LINE",
"561 705 LINE"
);
}
);
width = 623;
}
);
leftKerningGroup = E;
rightKerningGroup = E;
unicode = 0045;
},
{
glyphname = F;
layers = (
{
layerId = "9A1863D8-8A35-4672-A3E4-263E374F0942";
name = Bold;
paths = (
{
closed = 1;
nodes = (
"277 705 LINE",
"45 700 LINE",
"45 616 LINE",
"119 586 LINE",
"119 114 LINE",
"45 89 LINE",
"45 0 LINE",
"369 0 LINE",
"369 89 LINE",
"277 114 LINE",
"277 299 LINE",
"483 299 LINE",
"483 411 LINE",
"277 411 LINE",
"277 586 LINE",
"437 586 LINE",
"462 514 LINE",
"556 514 LINE",
"556 705 LINE"
);
}
);
width = 581;
}
);
leftKerningGroup = H;
rightKerningGroup = F;
unicode = 0046;
},
{
glyphname = G;
layers = (
{
layerId = "9A1863D8-8A35-4672-A3E4-263E374F0942";
name = Bold;
paths = (
{
closed = 1;
nodes = (
"190 718 OFFCURVE",
"55 578 OFFCURVE",
"55 343 CURVE SMOOTH",
"55 110 OFFCURVE",
"172 -13 OFFCURVE",
"375 -13 CURVE SMOOTH",
"546 -13 OFFCURVE",
"648 55 OFFCURVE",
"648 55 CURVE",
"648 259 LINE",
"716 282 LINE",
"716 371 LINE",
"427 366 LINE",
"427 282 LINE",
"501 259 LINE",
"501 135 LINE",
"489 132 OFFCURVE",
"443 117 OFFCURVE",
"393 117 CURVE SMOOTH",
"286 117 OFFCURVE",
"225 187 OFFCURVE",
"225 348 CURVE SMOOTH",
"225 514 OFFCURVE",
"287 591 OFFCURVE",
"392 591 CURVE SMOOTH",
"458 591 OFFCURVE",
"507 574 OFFCURVE",
"507 574 CURVE",
"532 490 LINE",
"626 490 LINE",
"631 671 LINE",
"631 671 OFFCURVE",
"516 718 OFFCURVE",
"395 718 CURVE SMOOTH"
);
}
);
width = 750;
}
);
leftKerningGroup = O;
rightKerningGroup = G;
unicode = 0047;
},
{
glyphname = H;
layers = (
{
layerId = "9A1863D8-8A35-4672-A3E4-263E374F0942";
name = Bold;
paths = (
{
closed = 1;
nodes = (
"449 700 LINE",
"449 616 LINE",
"526 586 LINE",
"526 424 LINE",
"267 424 LINE",
"267 586 LINE",
"344 616 LINE",
"344 705 LINE",
"35 700 LINE",
"35 616 LINE",
"109 586 LINE",
"109 114 LINE",
"35 89 LINE",
"35 0 LINE",
"344 0 LINE",
"344 89 LINE",
"267 114 LINE",
"267 304 LINE",
"526 304 LINE",
"526 114 LINE",
"449 89 LINE",
"449 0 LINE",
"758 0 LINE",
"758 89 LINE",
"683 114 LINE",
"683 586 LINE",
"758 616 LINE",
"758 705 LINE"
);
}
);
width = 792;
}
);
unicode = 0048;
},
{
glyphname = I;
layers = (
{
layerId = "9A1863D8-8A35-4672-A3E4-263E374F0942";
name = Bold;
paths = (
{
closed = 1;
nodes = (
"37 700 LINE",
"37 616 LINE",
"111 586 LINE",
"111 114 LINE",
"37 89 LINE",
"37 0 LINE",
"344 0 LINE",
"344 89 LINE",
"269 114 LINE",
"269 586 LINE",
"344 616 LINE",
"344 705 LINE"
);
}
);
width = 381;
}
);
leftKerningGroup = I;
rightKerningGroup = I;
unicode = 0049;
},
{
glyphname = J;
layers = (
{
layerId = "9A1863D8-8A35-4672-A3E4-263E374F0942";
name = Bold;
paths = (
{
closed = 1;
nodes = (
"42 700 LINE",
"42 616 LINE",
"116 586 LINE",
"116 47 LINE SMOOTH",
"116 -17 OFFCURVE",
"89 -49 OFFCURVE",
"29 -49 CURVE SMOOTH",
"-20 -49 LINE",
"-33 -151 LINE",
"-33 -151 OFFCURVE",
"11 -158 OFFCURVE",
"44 -158 CURVE SMOOTH",
"204 -158 OFFCURVE",
"274 -86 OFFCURVE",
"274 71 CURVE SMOOTH",
"274 586 LINE",
"348 616 LINE",
"348 705 LINE"
);
}
);
width = 383;
}
);
leftKerningGroup = J;
rightKerningGroup = J;
unicode = 004A;
},
{
glyphname = K;
layers = (
{
layerId = "9A1863D8-8A35-4672-A3E4-263E374F0942";
name = Bold;
paths = (
{
closed = 1;
nodes = (
"510 700 LINE",
"341 416 LINE",
"274 416 LINE",
"274 586 LINE",
"351 616 LINE",
"351 705 LINE",
"42 700 LINE",
"42 616 LINE",
"116 586 LINE",
"116 114 LINE",
"42 89 LINE",
"42 0 LINE",
"351 0 LINE",
"351 89 LINE",
"274 114 LINE",
"274 304 LINE",
"346 304 LINE",
"479 113 LINE",
"422 89 LINE",
"422 0 LINE",
"731 0 LINE",
"731 89 LINE",
"658 114 LINE",
"472 371 LINE",
"605 587 LINE",
"694 616 LINE",
"694 705 LINE"
);
}
);
width = 727;
}
);
rightKerningGroup = K;
unicode = 004B;
},
{
glyphname = L;
layers = (
{
layerId = "9A1863D8-8A35-4672-A3E4-263E374F0942";
name = Bold;
paths = (
{
closed = 1;
nodes = (
"32 700 LINE",
"32 616 LINE",
"106 586 LINE",
"106 114 LINE",
"32 89 LINE",
"32 0 LINE",
"533 0 LINE",
"533 232 LINE",
"436 232 LINE",
"414 119 LINE",
"264 119 LINE",
"264 586 LINE",
"339 616 LINE",
"339 705 LINE"
);
}
);
width = 541;
}
);
leftKerningGroup = H;
rightKerningGroup = L;
unicode = 004C;
},
{
glyphname = Lslash;
layers = (
{
layerId = "9A1863D8-8A35-4672-A3E4-263E374F0942";
name = Bold;
paths = (
{
closed = 1;
nodes = (
"77 700 LINE",
"77 616 LINE",
"151 586 LINE",
"151 376 LINE",
"42 328 LINE",
"74 219 LINE",
"151 253 LINE",
"151 114 LINE",
"77 89 LINE",
"77 0 LINE",
"578 0 LINE",
"578 232 LINE",
"481 232 LINE",
"459 119 LINE",
"309 119 LINE",
"309 318 LINE",
"477 392 LINE",
"445 501 LINE",
"309 440 LINE",
"309 586 LINE",
"383 616 LINE",
"383 705 LINE"
);
}
);
width = 590;
}
);
leftKerningGroup = H;
rightKerningGroup = L;
unicode = 0141;
},
{
glyphname = M;
layers = (
{
layerId = "9A1863D8-8A35-4672-A3E4-263E374F0942";
name = Bold;
paths = (
{
closed = 1;
nodes = (
"600 700 LINE",
"445 376 LINE",
"296 705 LINE",
"37 700 LINE",
"37 616 LINE",
"111 586 LINE",
"111 114 LINE",
"37 89 LINE",
"37 0 LINE",
"323 0 LINE",
"323 89 LINE",
"246 114 LINE",
"246 468 LINE",
"263 418 LINE",
"376 185 LINE",
"485 190 LINE",
"598 423 LINE",
"623 486 LINE",
"623 114 LINE",
"546 89 LINE",
"546 0 LINE",
"845 0 LINE",
"845 89 LINE",
"770 114 LINE",
"770 586 LINE",
"845 616 LINE",
"845 705 LINE"
);
}
);
width = 882;
}
);
leftKerningGroup = H;
rightKerningGroup = H;
unicode = 004D;
},
{
glyphname = N;
layers = (
{
layerId = "9A1863D8-8A35-4672-A3E4-263E374F0942";
name = Bold;
paths = (
{
closed = 1;
nodes = (
"474 700 LINE",
"474 616 LINE",
"546 586 LINE",
"546 245 LINE",
"277 705 LINE",
"35 700 LINE",
"35 616 LINE",
"109 586 LINE",
"109 114 LINE",
"35 89 LINE",
"35 0 LINE",
"323 0 LINE",
"323 89 LINE",
"247 114 LINE",
"247 453 LINE",
"514 0 LINE",
"683 0 LINE",
"683 586 LINE",
"758 616 LINE",
"758 705 LINE"
);
}
);
width = 785;
}
);
leftKerningGroup = H;
rightKerningGroup = H;
unicode = 004E;
},
{
glyphname = O;
layers = (
{
layerId = "9A1863D8-8A35-4672-A3E4-263E374F0942";
name = Bold;
paths = (
{
closed = 1;
nodes = (
"183 718 OFFCURVE",
"55 578 OFFCURVE",
"55 348 CURVE SMOOTH",
"55 112 OFFCURVE",
"165 -13 OFFCURVE",
"365 -13 CURVE SMOOTH",
"566 -13 OFFCURVE",
"701 137 OFFCURVE",
"701 363 CURVE SMOOTH",
"701 586 OFFCURVE",
"586 718 OFFCURVE",
"385 718 CURVE SMOOTH"
);
},
{
closed = 1;
nodes = (
"478 591 OFFCURVE",
"530 522 OFFCURVE",
"530 358 CURVE SMOOTH",
"530 178 OFFCURVE",
"468 114 OFFCURVE",
"370 114 CURVE SMOOTH",
"272 114 OFFCURVE",
"225 188 OFFCURVE",
"225 353 CURVE SMOOTH",
"225 529 OFFCURVE",
"282 591 OFFCURVE",
"380 591 CURVE SMOOTH"
);
}
);
width = 755;
}
);
leftKerningGroup = O;
rightKerningGroup = O;
unicode = 004F;
},
{
glyphname = OE;
layers = (
{
layerId = "9A1863D8-8A35-4672-A3E4-263E374F0942";
name = Bold;
paths = (
{
closed = 1;
nodes = (
"180 716 OFFCURVE",
"52 578 OFFCURVE",
"52 348 CURVE SMOOTH",
"52 112 OFFCURVE",
"162 -10 OFFCURVE",
"362 -10 CURVE SMOOTH",
"424 -10 OFFCURVE",
"498 0 OFFCURVE",
"548 0 CURVE SMOOTH",
"908 0 LINE",
"908 201 LINE",
"814 201 LINE",
"791 119 LINE",
"617 119 LINE",
"617 309 LINE",
"818 309 LINE",
"818 421 LINE",
"617 421 LINE",
"617 586 LINE",
"776 586 LINE",
"801 512 LINE",
"895 512 LINE",
"895 705 LINE",
"560 705 LINE",
"507 705 OFFCURVE",
"440 716 OFFCURVE",
"382 716 CURVE SMOOTH"
);
},
{
closed = 1;
nodes = (
"410 591 OFFCURVE",
"450 587 OFFCURVE",
"459 586 CURVE",
"459 119 LINE",
"446 119 OFFCURVE",
"405 114 OFFCURVE",
"370 114 CURVE SMOOTH",
"269 114 OFFCURVE",
"222 188 OFFCURVE",
"222 353 CURVE SMOOTH",
"222 529 OFFCURVE",
"279 591 OFFCURVE",
"380 591 CURVE SMOOTH"
);
}
);
width = 955;
}
);
leftKerningGroup = O;
rightKerningGroup = E;
unicode = 0152;
},
{
glyphname = P;
layers = (
{
layerId = "9A1863D8-8A35-4672-A3E4-263E374F0942";
name = Bold;
paths = (
{
closed = 1;
nodes = (
"275 705 LINE",
"43 700 LINE",
"43 616 LINE",
"117 586 LINE",
"117 114 LINE",
"43 89 LINE",
"43 0 LINE",
"350 0 LINE",
"350 89 LINE",
"275 114 LINE",
"275 244 LINE",
"327 244 LINE SMOOTH",
"510 244 OFFCURVE",
"613 327 OFFCURVE",
"613 495 CURVE SMOOTH",
"613 625 OFFCURVE",
"522 705 OFFCURVE",
"370 705 CURVE SMOOTH"
);
},
{
closed = 1;
nodes = (
"421 586 OFFCURVE",
"455 539 OFFCURVE",
"455 475 CURVE SMOOTH",
"455 401 OFFCURVE",
"411 364 OFFCURVE",
"327 364 CURVE SMOOTH",
"275 364 LINE",
"275 586 LINE",
"354 586 LINE"
);
}
);
width = 632;
}
);
leftKerningGroup = H;
rightKerningGroup = P;
unicode = 0050;
},
{
glyphname = Thorn;
layers = (
{
layerId = "9A1863D8-8A35-4672-A3E4-263E374F0942";
name = Bold;
paths = (
{
closed = 1;
nodes = (
"45 700 LINE",
"45 616 LINE",
"119 586 LINE",
"119 114 LINE",
"45 89 LINE",
"45 0 LINE",
"352 0 LINE",
"352 89 LINE",
"277 114 LINE",
"277 160 LINE",
"351 160 LINE SMOOTH",
"513 160 OFFCURVE",
"616 230 OFFCURVE",
"616 369 CURVE SMOOTH",
"616 490 OFFCURVE",
"526 554 OFFCURVE",
"376 554 CURVE SMOOTH",
"277 554 LINE",
"277 586 LINE",
"352 616 LINE",
"352 705 LINE"
);
},
{
closed = 1;
nodes = (
"419 443 OFFCURVE",
"461 414 OFFCURVE",
"461 360 CURVE SMOOTH",
"461 298 OFFCURVE",
"414 269 OFFCURVE",
"341 269 CURVE SMOOTH",
"277 269 LINE",
"277 443 LINE",
"358 443 LINE"
);
}
);
width = 641;
}
);
leftKerningGroup = P;
unicode = 00DE;
},
{
glyphname = Q;
layers = (
{
layerId = "9A1863D8-8A35-4672-A3E4-263E374F0942";
name = Bold;
paths = (
{
closed = 1;
nodes = (
"185 718 OFFCURVE",
"55 576 OFFCURVE",
"55 348 CURVE SMOOTH",
"55 124 OFFCURVE",
"156 1 OFFCURVE",
"341 -11 CURVE",
"543 -148 LINE SMOOTH",
"587 -178 OFFCURVE",
"629 -201 OFFCURVE",
"670 -201 CURVE SMOOTH",
"736 -201 OFFCURVE",
"841 -130 OFFCURVE",
"841 -130 CURVE",
"788 -49 LINE",
"788 -49 OFFCURVE",
"728 -84 OFFCURVE",
"696 -84 CURVE SMOOTH",
"663 -84 OFFCURVE",
"636 -71 OFFCURVE",
"607 -53 CURVE SMOOTH",
"504 12 LINE",
"632 62 OFFCURVE",
"711 190 OFFCURVE",
"711 363 CURVE SMOOTH",
"711 586 OFFCURVE",
"598 718 OFFCURVE",
"393 718 CURVE SMOOTH"
);
},
{
closed = 1;
nodes = (
"496 591 OFFCURVE",
"543 516 OFFCURVE",
"543 358 CURVE SMOOTH",
"543 191 OFFCURVE",
"489 114 OFFCURVE",
"378 114 CURVE SMOOTH",
"272 114 OFFCURVE",
"223 193 OFFCURVE",
"223 353 CURVE SMOOTH",
"223 519 OFFCURVE",
"277 591 OFFCURVE",
"388 591 CURVE SMOOTH"
);
}
);
width = 743;
}
);
leftKerningGroup = O;
rightKerningGroup = O;
unicode = 0051;
},
{
glyphname = S;
layers = (
{
layerId = "9A1863D8-8A35-4672-A3E4-263E374F0942";
name = Bold;
paths = (
{
closed = 1;
nodes = (
"166 718 OFFCURVE",
"58 643 OFFCURVE",
"58 505 CURVE SMOOTH",
"58 258 OFFCURVE",
"395 309 OFFCURVE",
"395 194 CURVE SMOOTH",
"395 142 OFFCURVE",
"338 114 OFFCURVE",
"275 114 CURVE SMOOTH",
"218 114 OFFCURVE",
"178 135 OFFCURVE",
"178 135 CURVE",
"163 218 LINE",
"60 218 LINE",
"60 25 LINE",
"60 25 OFFCURVE",
"171 -13 OFFCURVE",
"284 -13 CURVE SMOOTH",
"439 -13 OFFCURVE",
"555 70 OFFCURVE",
"555 220 CURVE SMOOTH",
"555 456 OFFCURVE",
"218 410 OFFCURVE",
"218 524 CURVE SMOOTH",
"218 563 OFFCURVE",
"253 593 OFFCURVE",
"323 593 CURVE SMOOTH",
"365 593 OFFCURVE",
"410 579 OFFCURVE",
"410 579 CURVE",
"434 495 LINE",
"528 495 LINE",
"533 678 LINE",
"533 678 OFFCURVE",
"426 718 OFFCURVE",
"312 718 CURVE SMOOTH"
);
}
);
width = 604;
}
);
leftKerningGroup = S;
rightKerningGroup = S;
unicode = 0053;
},
{
glyphname = T;
layers = (
{
layerId = "9A1863D8-8A35-4672-A3E4-263E374F0942";
name = Bold;
paths = (
{
closed = 1;
nodes = (
"10 703 LINE",
"10 491 LINE",
"104 491 LINE",
"129 586 LINE",
"222 586 LINE",
"222 114 LINE",
"141 89 LINE",
"141 0 LINE",
"461 0 LINE",
"461 89 LINE",
"380 114 LINE",
"380 586 LINE",
"473 586 LINE",
"498 491 LINE",
"592 491 LINE",
"592 705 LINE"
);
}
);
width = 602;
}
);
leftKerningGroup = T;
rightKerningGroup = T;
unicode = 0054;
},
{
glyphname = U;
layers = (
{
layerId = "9A1863D8-8A35-4672-A3E4-263E374F0942";
name = Bold;
paths = (
{
closed = 1;
nodes = (
"441 700 LINE",
"441 616 LINE",
"518 586 LINE",
"518 285 LINE SMOOTH",
"518 167 OFFCURVE",
"494 112 OFFCURVE",
"392 112 CURVE SMOOTH",
"296 112 OFFCURVE",
"264 157 OFFCURVE",
"264 270 CURVE SMOOTH",
"264 586 LINE",
"341 616 LINE",
"341 705 LINE",
"32 700 LINE",
"32 616 LINE",
"106 586 LINE",
"106 270 LINE SMOOTH",
"106 77 OFFCURVE",
"187 -13 OFFCURVE",
"387 -13 CURVE SMOOTH",
"603 -13 OFFCURVE",
"675 92 OFFCURVE",
"675 285 CURVE SMOOTH",
"675 586 LINE",
"750 616 LINE",
"750 705 LINE"
);
}
);
width = 782;
}
);
leftKerningGroup = U;
rightKerningGroup = U;
unicode = 0055;
},
{
glyphname = V;
layers = (
{
layerId = "9A1863D8-8A35-4672-A3E4-263E374F0942";
name = Bold;
paths = (
{
closed = 1;
nodes = (
"422 700 LINE",
"422 616 LINE",
"497 586 LINE",
"390 268 LINE",
"368 199 LINE",
"346 273 LINE",
"246 587 LINE",
"320 616 LINE",
"320 705 LINE",
"8 700 LINE",
"8 616 LINE",
"75 588 LINE",
"277 0 LINE",
"440 0 LINE",
"650 586 LINE",
"723 616 LINE",
"723 705 LINE"
);
}
);
width = 731;
}
);
leftKerningGroup = V;
rightKerningGroup = V;
unicode = 0056;
},
{
glyphname = W;
layers = (
{
layerId = "9A1863D8-8A35-4672-A3E4-263E374F0942";
name = Bold;
paths = (
{
closed = 1;
nodes = (
"744 700 LINE",
"744 616 LINE",
"819 586 LINE",
"724 230 LINE",
"591 705 LINE",
"454 698 LINE",
"316 229 LINE",
"231 586 LINE",
"303 616 LINE",
"303 705 LINE",
"5 700 LINE",
"5 616 LINE",
"75 587 LINE",
"237 0 LINE",
"376 0 LINE",
"492 386 LINE",
"516 470 LINE",
"538 389 LINE",
"644 0 LINE",
"788 0 LINE",
"959 586 LINE",
"1030 616 LINE",
"1030 705 LINE"
);
}
);
width = 1035;
}
);
leftKerningGroup = V;
rightKerningGroup = V;
unicode = 0057;
},
{
glyphname = X;
layers = (
{
layerId = "9A1863D8-8A35-4672-A3E4-263E374F0942";
name = Bold;
paths = (
{
closed = 1;
nodes = (
"428 700 LINE",
"428 616 LINE",
"481 595 LINE",
"385 463 LINE",
"283 599 LINE",
"332 616 LINE",
"332 705 LINE",
"30 700 LINE",
"30 616 LINE",
"87 597 LINE",
"274 354 LINE",
"72 110 LINE",
"10 89 LINE",
"10 0 LINE",
"309 0 LINE",
"309 89 LINE",
"247 109 LINE",
"357 252 LINE",
"466 104 LINE",
"420 89 LINE",
"420 0 LINE",
"732 0 LINE",
"732 89 LINE",
"663 108 LINE",
"468 362 LINE",
"652 596 LINE",
"717 616 LINE",
"717 705 LINE"
);
}
);
width = 742;
}
);
leftKerningGroup = X;
rightKerningGroup = X;
unicode = 0058;
},
{
glyphname = Y;
layers = (
{
layerId = "9A1863D8-8A35-4672-A3E4-263E374F0942";
name = Bold;
paths = (
{
closed = 1;
nodes = (
"389 700 LINE",
"389 616 LINE",
"444 594 LINE",
"363 432 LINE",
"340 382 LINE",
"317 436 LINE",
"241 595 LINE",
"291 616 LINE",
"291 705 LINE",
"7 700 LINE",
"7 616 LINE",
"72 588 LINE SMOOTH",
"254 244 LINE",
"254 114 LINE",
"179 89 LINE",
"179 0 LINE",
"486 0 LINE",
"486 89 LINE",
"411 114 LINE",
"411 245 LINE",
"592 589 LINE",
"661 616 LINE",
"661 705 LINE"
);
}
);
width = 669;
}
);
leftKerningGroup = Y;
rightKerningGroup = Y;
unicode = 0059;
},
{
glyphname = Z;
layers = (
{
layerId = "9A1863D8-8A35-4672-A3E4-263E374F0942";
name = Bold;
paths = (
{
closed = 1;
nodes = (
"54 705 LINE",
"54 496 LINE",
"150 496 LINE",
"175 586 LINE",
"382 586 LINE",
"29 104 LINE",
"29 0 LINE",
"583 0 LINE",
"583 222 LINE",
"486 222 LINE",
"463 119 LINE",
"240 119 LINE",
"585 591 LINE",
"585 705 LINE"
);
}
);
width = 615;
}
);
leftKerningGroup = Z;
rightKerningGroup = Z;
unicode = 005A;
},
{
glyphname = a;
layers = (
{
layerId = "9A1863D8-8A35-4672-A3E4-263E374F0942";
name = Bold;
paths = (
{
closed = 1;
nodes = (
"192 551 OFFCURVE",
"70 511 OFFCURVE",
"70 511 CURVE",
"77 364 LINE",
"166 364 LINE",
"180 429 LINE",
"180 429 OFFCURVE",
"221 444 OFFCURVE",
"270 444 CURVE SMOOTH",
"321 444 OFFCURVE",
"347 422 OFFCURVE",
"347 372 CURVE SMOOTH",
"347 311 LINE",
"278 311 LINE SMOOTH",
"124 311 OFFCURVE",
"37 263 OFFCURVE",
"37 148 CURVE SMOOTH",
"37 48 OFFCURVE",
"95 -10 OFFCURVE",
"192 -10 CURVE SMOOTH",
"278 -10 OFFCURVE",
"338 49 OFFCURVE",
"354 65 CURVE",
"372 0 LINE",
"572 8 LINE",
"572 89 LINE",
"497 106 LINE",
"497 381 LINE SMOOTH",
"497 506 OFFCURVE",
"429 551 OFFCURVE",
"288 551 CURVE SMOOTH"
);
},
{
closed = 1;
nodes = (
"347 161 LINE",
"337 150 OFFCURVE",
"293 104 OFFCURVE",
"241 104 CURVE SMOOTH",
"204 104 OFFCURVE",
"183 125 OFFCURVE",
"183 161 CURVE SMOOTH",
"183 205 OFFCURVE",
"214 226 OFFCURVE",
"290 226 CURVE SMOOTH",
"347 226 LINE"
);
}
);
width = 594;
}
);
leftKerningGroup = a;
rightKerningGroup = a;
unicode = 0061;
},
{
glyphname = aogonek;
layers = (
{
layerId = "9A1863D8-8A35-4672-A3E4-263E374F0942";
name = Bold;
paths = (
{
closed = 1;
nodes = (
"200 551 OFFCURVE",
"78 511 OFFCURVE",
"78 511 CURVE",
"85 362 LINE",
"177 362 LINE",
"191 426 LINE",
"191 426 OFFCURVE",
"228 441 OFFCURVE",
"278 441 CURVE SMOOTH",
"328 441 OFFCURVE",
"355 419 OFFCURVE",
"355 367 CURVE SMOOTH",
"355 313 LINE",
"286 313 LINE SMOOTH",
"132 313 OFFCURVE",
"45 266 OFFCURVE",
"45 148 CURVE SMOOTH",
"45 48 OFFCURVE",
"103 -10 OFFCURVE",
"200 -10 CURVE SMOOTH",
"286 -10 OFFCURVE",
"346 49 OFFCURVE",
"362 65 CURVE",
"380 0 LINE",
"451 3 LINE",
"433 -6 OFFCURVE",
"346 -57 OFFCURVE",
"346 -136 CURVE SMOOTH",
"346 -204 OFFCURVE",
"396 -236 OFFCURVE",
"456 -236 CURVE SMOOTH",
"512 -236 OFFCURVE",
"560 -211 OFFCURVE",
"560 -211 CURVE",
"542 -139 LINE",
"542 -139 OFFCURVE",
"515 -146 OFFCURVE",
"499 -146 CURVE SMOOTH",
"479 -146 OFFCURVE",
"462 -133 OFFCURVE",
"462 -110 CURVE SMOOTH",
"462 -58 OFFCURVE",
"580 8 OFFCURVE",
"580 8 CURVE",
"580 89 LINE",
"505 106 LINE",
"505 377 LINE SMOOTH",
"505 503 OFFCURVE",
"437 551 OFFCURVE",
"296 551 CURVE SMOOTH"
);
},
{
closed = 1;
nodes = (
"355 161 LINE",
"345 150 OFFCURVE",
"301 104 OFFCURVE",
"249 104 CURVE SMOOTH",
"212 104 OFFCURVE",
"191 126 OFFCURVE",
"191 163 CURVE SMOOTH",
"191 208 OFFCURVE",
"222 227 OFFCURVE",
"298 227 CURVE SMOOTH",
"355 227 LINE"
);
}
);
width = 612;
}
);
leftKerningGroup = a;
rightKerningGroup = a;
unicode = 0105;
},
{
glyphname = ae;
layers = (
{
layerId = "9A1863D8-8A35-4672-A3E4-263E374F0942";
name = Bold;
paths = (
{
closed = 1;
nodes = (
"541 551 OFFCURVE",
"485 530 OFFCURVE",
"442 492 CURVE",
"413 533 OFFCURVE",
"360 551 OFFCURVE",
"288 551 CURVE SMOOTH",
"192 551 OFFCURVE",
"70 511 OFFCURVE",
"70 511 CURVE",
"77 362 LINE",
"169 362 LINE",
"183 426 LINE",
"183 426 OFFCURVE",
"221 441 OFFCURVE",
"270 441 CURVE SMOOTH",
"320 441 OFFCURVE",
"347 419 OFFCURVE",
"347 367 CURVE SMOOTH",
"347 313 LINE",
"278 313 LINE SMOOTH",
"124 313 OFFCURVE",
"37 266 OFFCURVE",
"37 148 CURVE SMOOTH",
"37 50 OFFCURVE",
"97 -10 OFFCURVE",
"192 -10 CURVE SMOOTH",
"284 -10 OFFCURVE",
"349 43 OFFCURVE",
"389 90 CURVE",
"429 25 OFFCURVE",
"498 -10 OFFCURVE",
"598 -10 CURVE SMOOTH",
"721 -10 OFFCURVE",
"828 75 OFFCURVE",
"828 75 CURVE",
"784 156 LINE",
"748 144 OFFCURVE",
"700 109 OFFCURVE",
"619 109 CURVE SMOOTH",
"552 109 OFFCURVE",
"505 155 OFFCURVE",
"498 237 CURVE",
"829 239 LINE",
"829 239 OFFCURVE",
"835 280 OFFCURVE",
"835 319 CURVE SMOOTH",
"835 463 OFFCURVE",
"753 551 OFFCURVE",
"608 551 CURVE SMOOTH"
);
},
{
closed = 1;
nodes = (
"347 163 LINE",
"337 152 OFFCURVE",
"293 104 OFFCURVE",
"241 104 CURVE SMOOTH",
"204 104 OFFCURVE",
"182 126 OFFCURVE",
"182 163 CURVE SMOOTH",
"182 208 OFFCURVE",
"214 227 OFFCURVE",
"290 227 CURVE SMOOTH",
"347 227 LINE"
);
},
{
closed = 1;
nodes = (
"655 432 OFFCURVE",
"679 389 OFFCURVE",
"679 328 CURVE",
"499 328 LINE",
"507 393 OFFCURVE",
"543 432 OFFCURVE",
"598 432 CURVE SMOOTH"
);
}
);
width = 865;
}
);
leftKerningGroup = a;
rightKerningGroup = a;
unicode = 00E6;
},
{
glyphname = b;
layers = (
{
layerId = "9A1863D8-8A35-4672-A3E4-263E374F0942";
name = Bold;
paths = (
{
closed = 1;
nodes = (
"-8 768 LINE",
"-8 686 LINE",
"66 666 LINE",
"66 10 LINE",
"66 10 OFFCURVE",
"162 -10 OFFCURVE",
"272 -10 CURVE SMOOTH",
"466 -10 OFFCURVE",
"563 99 OFFCURVE",
"563 285 CURVE SMOOTH",
"563 454 OFFCURVE",
"492 551 OFFCURVE",
"359 551 CURVE SMOOTH",
"282 551 OFFCURVE",
"232 511 OFFCURVE",
"216 498 CURVE",
"216 775 LINE"
);
},
{
closed = 1;
nodes = (
"379 431 OFFCURVE",
"406 377 OFFCURVE",
"406 275 CURVE SMOOTH",
"406 175 OFFCURVE",
"375 107 OFFCURVE",
"290 107 CURVE SMOOTH",
"240 107 OFFCURVE",
"217 115 OFFCURVE",
"217 115 CURVE",
"217 387 LINE",
"217 387 OFFCURVE",
"252 431 OFFCURVE",
"310 431 CURVE SMOOTH"
);
}
);
width = 598;
}
);
leftKerningGroup = l;
rightKerningGroup = b;
unicode = 0062;
},
{
glyphname = c;
layers = (
{
layerId = "9A1863D8-8A35-4672-A3E4-263E374F0942";
name = Bold;
paths = (
{
closed = 1;
nodes = (
"129 551 OFFCURVE",
"29 441 OFFCURVE",
"29 262 CURVE SMOOTH",
"29 92 OFFCURVE",
"125 -10 OFFCURVE",
"290 -10 CURVE SMOOTH",
"402 -10 OFFCURVE",
"480 53 OFFCURVE",
"505 75 CURVE",
"455 162 LINE",
"422 143 OFFCURVE",
"379 109 OFFCURVE",
"310 109 CURVE SMOOTH",
"228 109 OFFCURVE",
"187 172 OFFCURVE",
"187 283 CURVE SMOOTH",
"187 384 OFFCURVE",
"231 431 OFFCURVE",
"302 431 CURVE SMOOTH",
"338 431 OFFCURVE",
"365 425 OFFCURVE",
"370 423 CURVE",
"384 352 LINE",
"476 352 LINE",
"481 516 LINE",
"481 516 OFFCURVE",
"391 551 OFFCURVE",
"305 551 CURVE SMOOTH"
);
}
);
width = 515;
}
);
leftKerningGroup = o;
rightKerningGroup = c;
unicode = 0063;
},
{
glyphname = ccedilla;
layers = (
{
layerId = "9A1863D8-8A35-4672-A3E4-263E374F0942";
name = Bold;
paths = (
{
closed = 1;
nodes = (
"129 551 OFFCURVE",
"29 441 OFFCURVE",
"29 262 CURVE SMOOTH",
"29 107 OFFCURVE",
"108 8 OFFCURVE",
"247 -7 CURVE",
"247 -83 LINE",
"296 -83 OFFCURVE",
"330 -97 OFFCURVE",
"330 -126 CURVE SMOOTH",
"330 -148 OFFCURVE",
"312 -163 OFFCURVE",
"283 -163 CURVE SMOOTH",
"243 -163 OFFCURVE",
"202 -142 OFFCURVE",
"202 -142 CURVE",
"170 -197 LINE",
"170 -197 OFFCURVE",
"227 -230 OFFCURVE",
"294 -230 CURVE SMOOTH",
"367 -230 OFFCURVE",
"420 -189 OFFCURVE",
"420 -130 CURVE SMOOTH",
"420 -82 OFFCURVE",
"386 -50 OFFCURVE",
"334 -40 CURVE",
"334 -6 LINE",
"421 6 OFFCURVE",
"484 57 OFFCURVE",
"505 75 CURVE",
"455 162 LINE",
"422 143 OFFCURVE",
"379 109 OFFCURVE",
"310 109 CURVE SMOOTH",
"228 109 OFFCURVE",
"187 172 OFFCURVE",
"187 283 CURVE SMOOTH",
"187 384 OFFCURVE",
"231 431 OFFCURVE",
"302 431 CURVE SMOOTH",
"338 431 OFFCURVE",
"365 425 OFFCURVE",
"370 423 CURVE",
"384 352 LINE",
"476 352 LINE",
"481 516 LINE",
"481 516 OFFCURVE",
"391 551 OFFCURVE",
"305 551 CURVE SMOOTH"
);
}
);
width = 515;
}
);
leftKerningGroup = o;
rightKerningGroup = c;
unicode = 00E7;
},
{
glyphname = d;
layers = (
{
layerId = "9A1863D8-8A35-4672-A3E4-263E374F0942";
name = Bold;
paths = (
{
closed = 1;
nodes = (
"299 768 LINE",
"299 686 LINE",
"379 666 LINE",
"379 541 LINE",
"360 547 OFFCURVE",
"339 551 OFFCURVE",
"315 551 CURVE SMOOTH",
"128 551 OFFCURVE",
"32 446 OFFCURVE",
"32 258 CURVE SMOOTH",
"32 92 OFFCURVE",
"97 -10 OFFCURVE",
"237 -10 CURVE SMOOTH",
"323 -10 OFFCURVE",
"374 40 OFFCURVE",
"387 53 CURVE",
"396 0 LINE",
"609 8 LINE",
"609 89 LINE",
"529 109 LINE",
"529 775 LINE"
);
},
{
closed = 1;
nodes = (
"354 434 OFFCURVE",
"378 419 OFFCURVE",
"378 419 CURVE",
"378 165 LINE",
"378 165 OFFCURVE",
"346 109 OFFCURVE",
"283 109 CURVE SMOOTH",
"217 109 OFFCURVE",
"189 162 OFFCURVE",
"189 265 CURVE SMOOTH",
"189 370 OFFCURVE",
"218 434 OFFCURVE",
"302 434 CURVE SMOOTH"
);
}
);
width = 626;
}
);
leftKerningGroup = o;
unicode = 0064;
},
{
glyphname = eth;
layers = (
{
layerId = "9A1863D8-8A35-4672-A3E4-263E374F0942";
name = Bold;
paths = (
{
closed = 1;
nodes = (
"305 729 LINE",
"261 756 OFFCURVE",
"212 776 OFFCURVE",
"158 789 CURVE",
"111 702 LINE",
"142 690 OFFCURVE",
"170 678 OFFCURVE",
"196 664 CURVE",
"109 615 LINE",
"165 540 LINE",
"279 606 LINE",
"317 571 OFFCURVE",
"343 530 OFFCURVE",
"360 484 CURVE",
"340 495 OFFCURVE",
"314 504 OFFCURVE",
"285 504 CURVE SMOOTH",
"136 504 OFFCURVE",
"29 406 OFFCURVE",
"29 240 CURVE SMOOTH",
"29 71 OFFCURVE",
"125 -13 OFFCURVE",
"274 -13 CURVE SMOOTH",
"432 -13 OFFCURVE",
"532 100 OFFCURVE",
"532 273 CURVE SMOOTH",
"532 440 OFFCURVE",
"479 575 OFFCURVE",
"384 668 CURVE",
"466 715 LINE",
"410 789 LINE"
);
},
{
closed = 1;
nodes = (
"356 388 OFFCURVE",
"375 336 OFFCURVE",
"375 250 CURVE SMOOTH",
"375 158 OFFCURVE",
"351 104 OFFCURVE",
"280 104 CURVE SMOOTH",
"211 104 OFFCURVE",
"187 163 OFFCURVE",
"187 245 CURVE SMOOTH",
"187 336 OFFCURVE",
"214 388 OFFCURVE",
"285 388 CURVE SMOOTH"
);
}
);
width = 586;
}
);
leftKerningGroup = o;
unicode = 00F0;
},
{
glyphname = e;
layers = (
{
layerId = "9A1863D8-8A35-4672-A3E4-263E374F0942";
name = Bold;
paths = (
{
closed = 1;
nodes = (
"134 551 OFFCURVE",
"35 436 OFFCURVE",
"35 260 CURVE SMOOTH",
"35 90 OFFCURVE",
"128 -10 OFFCURVE",
"296 -10 CURVE SMOOTH",
"424 -10 OFFCURVE",
"525 75 OFFCURVE",
"525 75 CURVE",
"481 156 LINE",
"446 141 OFFCURVE",
"383 108 OFFCURVE",
"312 108 CURVE SMOOTH",
"243 108 OFFCURVE",
"198 154 OFFCURVE",
"193 237 CURVE",
"526 239 LINE",
"526 239 OFFCURVE",
"532 277 OFFCURVE",
"532 316 CURVE",
"532 458 OFFCURVE",
"453 551 OFFCURVE",
"304 551 CURVE SMOOTH"
);
},
{
closed = 1;
nodes = (
"352 435 OFFCURVE",
"379 392 OFFCURVE",
"379 329 CURVE",
"193 329 LINE",
"201 394 OFFCURVE",
"236 435 OFFCURVE",
"293 435 CURVE SMOOTH"
);
}
);
width = 564;
}
);
leftKerningGroup = o;
rightKerningGroup = e;
unicode = 0065;
},
{
glyphname = eogonek;
layers = (
{
layerId = "9A1863D8-8A35-4672-A3E4-263E374F0942";
name = Bold;
paths = (
{
closed = 1;
nodes = (
"131 551 OFFCURVE",
"32 436 OFFCURVE",
"32 260 CURVE SMOOTH",
"32 90 OFFCURVE",
"120 -10 OFFCURVE",
"294 -10 CURVE SMOOTH",
"303 -10 OFFCURVE",
"311 -10 OFFCURVE",
"320 -8 CURVE",
"285 -36 OFFCURVE",
"239 -82 OFFCURVE",
"239 -138 CURVE SMOOTH",
"239 -204 OFFCURVE",
"290 -236 OFFCURVE",
"350 -236 CURVE SMOOTH",
"405 -236 OFFCURVE",
"453 -211 OFFCURVE",
"453 -211 CURVE",
"436 -139 LINE",
"436 -139 OFFCURVE",
"410 -145 OFFCURVE",
"394 -145 CURVE SMOOTH",
"372 -145 OFFCURVE",
"356 -132 OFFCURVE",
"356 -107 CURVE SMOOTH",
"356 -49 OFFCURVE",
"491 52 OFFCURVE",
"522 75 CURVE",
"478 156 LINE",
"442 144 OFFCURVE",
"390 109 OFFCURVE",
"311 109 CURVE SMOOTH",
"244 109 OFFCURVE",
"199 155 OFFCURVE",
"192 237 CURVE",
"523 239 LINE",
"523 239 OFFCURVE",
"529 277 OFFCURVE",
"529 316 CURVE SMOOTH",
"529 458 OFFCURVE",
"450 551 OFFCURVE",
"301 551 CURVE SMOOTH"
);
},
{
closed = 1;
nodes = (
"347 432 OFFCURVE",
"371 389 OFFCURVE",
"371 330 CURVE",
"194 330 LINE",
"202 392 OFFCURVE",
"237 432 OFFCURVE",
"291 432 CURVE SMOOTH"
);
}
);
width = 554;
}
);
leftKerningGroup = o;
rightKerningGroup = e;
unicode = 0119;
},
{
glyphname = f;
layers = (
{
layerId = "9A1863D8-8A35-4672-A3E4-263E374F0942";
name = Bold;
paths = (
{
closed = 1;
nodes = (
"203 788 OFFCURVE",
"130 702 OFFCURVE",
"130 574 CURVE SMOOTH",
"130 530 LINE",
"40 515 LINE",
"40 429 LINE",
"130 429 LINE",
"130 106 LINE",
"50 81 LINE",
"50 0 LINE",
"377 0 LINE",
"377 81 LINE",
"280 106 LINE",
"280 429 LINE",
"407 429 LINE",
"410 530 LINE",
"280 530 LINE",
"280 592 LINE SMOOTH",
"280 646 OFFCURVE",
"303 679 OFFCURVE",
"357 679 CURVE SMOOTH",
"389 679 OFFCURVE",
"414 675 OFFCURVE",
"414 675 CURVE",
"429 602 LINE",
"518 602 LINE",
"520 750 LINE",
"520 750 OFFCURVE",
"453 788 OFFCURVE",
"344 788 CURVE SMOOTH"
);
}
);
width = 454;
}
);
leftKerningGroup = f;
rightKerningGroup = f;
unicode = 0066;
},
{
glyphname = g;
layers = (
{
layerId = "9A1863D8-8A35-4672-A3E4-263E374F0942";
name = Bold;
paths = (
{
closed = 1;
nodes = (
"165 551 OFFCURVE",
"62 483 OFFCURVE",
"62 345 CURVE",
"62 249 OFFCURVE",
"113 206 OFFCURVE",
"138 189 CURVE",
"126 169 OFFCURVE",
"87 105 OFFCURVE",
"87 76 CURVE",
"87 19 OFFCURVE",
"143 10 OFFCURVE",
"146 9 CURVE",
"141 8 OFFCURVE",
"42 -25 OFFCURVE",
"42 -110 CURVE SMOOTH",
"42 -220 OFFCURVE",
"143 -255 OFFCURVE",
"300 -255 CURVE SMOOTH",
"494 -255 OFFCURVE",
"581 -175 OFFCURVE",
"581 -65 CURVE SMOOTH",
"581 36 OFFCURVE",
"509 91 OFFCURVE",
"381 91 CURVE SMOOTH",
"224 91 LINE",
"227 157 LINE",
"236 157 OFFCURVE",
"258 152 OFFCURVE",
"288 152 CURVE",
"426 152 OFFCURVE",
"529 212 OFFCURVE",
"529 358 CURVE",
"529 399 OFFCURVE",
"515 426 OFFCURVE",
"512 435 CURVE",
"594 449 LINE",
"594 530 LINE",
"421 527 LINE",
"401 536 OFFCURVE",
"361 551 OFFCURVE",
"303 551 CURVE"
);
},
{
closed = 1;
nodes = (
"408 -21 OFFCURVE",
"440 -33 OFFCURVE",
"440 -77 CURVE SMOOTH",
"440 -124 OFFCURVE",
"403 -143 OFFCURVE",
"313 -143 CURVE SMOOTH",
"232 -143 OFFCURVE",
"190 -134 OFFCURVE",
"190 -85 CURVE SMOOTH",
"190 -43 OFFCURVE",
"237 -21 OFFCURVE",
"237 -21 CURVE",
"341 -21 LINE"
);
},
{
closed = 1;
nodes = (
"352 446 OFFCURVE",
"377 414 OFFCURVE",
"377 353 CURVE SMOOTH",
"377 286 OFFCURVE",
"355 254 OFFCURVE",
"293 254 CURVE SMOOTH",
"237 254 OFFCURVE",
"215 293 OFFCURVE",
"215 353 CURVE SMOOTH",
"215 414 OFFCURVE",
"239 446 OFFCURVE",
"298 446 CURVE SMOOTH"
);
}
);
width = 617;
}
);
leftKerningGroup = g;
rightKerningGroup = g;
unicode = 0067;
},
{
glyphname = h;
layers = (
{
layerId = "9A1863D8-8A35-4672-A3E4-263E374F0942";
name = Bold;
paths = (
{
closed = 1;
nodes = (
"25 768 LINE",
"25 686 LINE",
"105 666 LINE",
"105 106 LINE",
"25 81 LINE",
"25 0 LINE",
"307 0 LINE",
"307 81 LINE",
"255 106 LINE",
"255 374 LINE",
"262 379 OFFCURVE",
"307 426 OFFCURVE",
"362 426 CURVE SMOOTH",
"408 426 OFFCURVE",
"427 399 OFFCURVE",
"427 347 CURVE SMOOTH",
"427 106 LINE",
"375 81 LINE",
"375 0 LINE",
"646 0 LINE",
"646 81 LINE",
"577 106 LINE",
"577 371 LINE SMOOTH",
"577 483 OFFCURVE",
"524 551 OFFCURVE",
"422 551 CURVE SMOOTH",
"348 551 OFFCURVE",
"283 507 OFFCURVE",
"255 483 CURVE",
"255 775 LINE"
);
}
);
width = 668;
}
);
rightKerningGroup = n;
unicode = 0068;
},
{
glyphname = i;
layers = (
{
layerId = "9A1863D8-8A35-4672-A3E4-263E374F0942";
name = Bold;
paths = (
{
closed = 1;
nodes = (
"35 533 LINE",
"35 452 LINE",
"115 432 LINE",
"115 106 LINE",
"35 81 LINE",
"35 0 LINE",
"334 0 LINE",
"334 81 LINE",
"265 106 LINE",
"265 541 LINE"
);
},
{
closed = 1;
nodes = (
"138 797 OFFCURVE",
"96 764 OFFCURVE",
"96 706 CURVE SMOOTH",
"96 646 OFFCURVE",
"129 613 OFFCURVE",
"184 613 CURVE SMOOTH",
"225 613 OFFCURVE",
"269 646 OFFCURVE",
"269 706 CURVE SMOOTH",
"269 769 OFFCURVE",
"236 797 OFFCURVE",
"184 797 CURVE SMOOTH"
);
}
);
width = 361;
}
);
leftKerningGroup = i;
rightKerningGroup = i;
unicode = 0069;
},
{
glyphname = dotlessi;
layers = (
{
layerId = "9A1863D8-8A35-4672-A3E4-263E374F0942";
name = Bold;
paths = (
{
closed = 1;
nodes = (
"35 533 LINE",
"35 452 LINE",
"115 432 LINE",
"115 106 LINE",
"35 81 LINE",
"35 0 LINE",
"334 0 LINE",
"334 81 LINE",
"265 106 LINE",
"265 541 LINE"
);
}
);
width = 360;
}
);
leftKerningGroup = i;
rightKerningGroup = i;
unicode = 0131;
},
{
glyphname = idieresis;
layers = (
{
components = (
{
name = dotlessi;
transform = "{1, 0, 0, 1, -2, 0}";
}
);
layerId = "9A1863D8-8A35-4672-A3E4-263E374F0942";
name = Bold;
paths = (
{
closed = 1;
nodes = (
"244 792 OFFCURVE",
"208 763 OFFCURVE",
"208 713 CURVE SMOOTH",
"208 663 OFFCURVE",
"233 634 OFFCURVE",
"281 634 CURVE SMOOTH",
"320 634 OFFCURVE",
"356 663 OFFCURVE",
"356 713 CURVE SMOOTH",
"356 763 OFFCURVE",
"331 792 OFFCURVE",
"283 792 CURVE SMOOTH"
);
},
{
closed = 1;
nodes = (
"38 792 OFFCURVE",
"2 763 OFFCURVE",
"2 713 CURVE SMOOTH",
"2 663 OFFCURVE",
"27 634 OFFCURVE",
"75 634 CURVE SMOOTH",
"114 634 OFFCURVE",
"150 663 OFFCURVE",
"150 713 CURVE SMOOTH",
"150 763 OFFCURVE",
"125 792 OFFCURVE",
"77 792 CURVE SMOOTH"
);
}
);
width = 379;
}
);
leftKerningGroup = i;
rightKerningGroup = i;
unicode = 00EF;
},
{
glyphname = j;
layers = (
{
layerId = "9A1863D8-8A35-4672-A3E4-263E374F0942";
name = Bold;
paths = (
{
closed = 1;
nodes = (
"19 533 LINE",
"19 452 LINE",
"99 432 LINE",
"99 -46 LINE SMOOTH",
"99 -109 OFFCURVE",
"76 -144 OFFCURVE",
"17 -144 CURVE SMOOTH",
"-36 -144 LINE",
"-48 -238 LINE",
"-48 -238 OFFCURVE",
"-3 -245 OFFCURVE",
"30 -245 CURVE SMOOTH",
"181 -245 OFFCURVE",
"249 -176 OFFCURVE",
"249 -21 CURVE SMOOTH",
"249 541 LINE"
);
},
{
closed = 1;
nodes = (
"117 797 OFFCURVE",
"79 760 OFFCURVE",
"79 706 CURVE SMOOTH",
"79 646 OFFCURVE",
"111 613 OFFCURVE",
"167 613 CURVE SMOOTH",
"212 613 OFFCURVE",
"252 650 OFFCURVE",
"252 706 CURVE SMOOTH",
"252 767 OFFCURVE",
"221 797 OFFCURVE",
"167 797 CURVE SMOOTH"
);
}
);
width = 321;
}
);
leftKerningGroup = j;
rightKerningGroup = i;
unicode = 006A;
},
{
glyphname = jcircumflex;
layers = (
{
layerId = "9A1863D8-8A35-4672-A3E4-263E374F0942";
name = Bold;
paths = (
{
closed = 1;
nodes = (
"19 533 LINE",
"19 452 LINE",
"99 432 LINE",
"99 -46 LINE SMOOTH",
"99 -109 OFFCURVE",
"76 -144 OFFCURVE",
"17 -144 CURVE SMOOTH",
"-36 -144 LINE",
"-48 -238 LINE",
"-48 -238 OFFCURVE",
"-3 -245 OFFCURVE",
"30 -245 CURVE SMOOTH",
"181 -245 OFFCURVE",
"249 -176 OFFCURVE",
"249 -21 CURVE SMOOTH",
"249 541 LINE"
);
},
{
closed = 1;
nodes = (
"106 806 LINE",
"-39 670 LINE",
"12 603 LINE",
"157 713 LINE",
"298 603 LINE",
"348 670 LINE",
"195 814 LINE"
);
}
);
width = 321;
}
);
leftKerningGroup = j;
rightKerningGroup = j;
unicode = 0135;
},
{
glyphname = k;
layers = (
{
layerId = "9A1863D8-8A35-4672-A3E4-263E374F0942";
name = Bold;
paths = (
{
closed = 1;
nodes = (
"25 768 LINE",
"25 686 LINE",
"105 666 LINE",
"105 106 LINE",
"25 81 LINE",
"25 0 LINE",
"309 0 LINE",
"309 81 LINE",
"255 106 LINE",
"255 775 LINE"
);
},
{
closed = 1;
nodes = (
"344 538 LINE",
"344 457 LINE",
"388 443 LINE",
"319 338 LINE",
"239 338 LINE",
"239 244 LINE",
"317 244 LINE",
"444 0 LINE",
"628 0 LINE",
"628 81 LINE",
"552 105 LINE",
"441 312 LINE",
"534 444 LINE",
"603 457 LINE",
"603 543 LINE"
);
}
);
width = 635;
}
);
leftKerningGroup = l;
rightKerningGroup = k;
unicode = 006B;
},
{
glyphname = l;
layers = (
{
layerId = "9A1863D8-8A35-4672-A3E4-263E374F0942";
name = Bold;
paths = (
{
closed = 1;
nodes = (
"25 768 LINE",
"25 686 LINE",
"105 666 LINE",
"105 106 LINE",
"25 81 LINE",
"25 0 LINE",
"348 0 LINE",
"348 81 LINE",
"258 106 LINE",
"258 775 LINE"
);
}
);
width = 356;
}
);
leftKerningGroup = l;
rightKerningGroup = l;
unicode = 006C;
},
{
glyphname = lslash;
layers = (
{
layerId = "9A1863D8-8A35-4672-A3E4-263E374F0942";
name = Bold;
paths = (
{
closed = 1;
nodes = (
"68 768 LINE",
"68 686 LINE",
"148 666 LINE",
"148 407 LINE",
"25 353 LINE",
"57 245 LINE",
"148 285 LINE",
"148 106 LINE",
"68 81 LINE",
"68 0 LINE",
"396 0 LINE",
"396 81 LINE",
"301 106 LINE",
"301 347 LINE",
"425 401 LINE",
"401 514 LINE",
"301 470 LINE",
"301 775 LINE"
);
}
);
width = 435;
}
);
unicode = 0142;
},
{
glyphname = m;
layers = (
{
layerId = "9A1863D8-8A35-4672-A3E4-263E374F0942";
name = Bold;
paths = (
{
closed = 1;
nodes = (
"654 551 OFFCURVE",
"579 482 OFFCURVE",
"562 465 CURVE",
"539 518 OFFCURVE",
"495 551 OFFCURVE",
"426 551 CURVE SMOOTH",
"337 551 OFFCURVE",
"263 480 OFFCURVE",
"252 470 CURVE",
"245 541 LINE",
"37 533 LINE",
"37 452 LINE",
"112 432 LINE",
"112 106 LINE",
"35 81 LINE",
"35 0 LINE",
"313 0 LINE",
"313 81 LINE",
"262 106 LINE",
"262 370 LINE",
"262 370 OFFCURVE",
"306 424 OFFCURVE",
"364 424 CURVE SMOOTH",
"412 424 OFFCURVE",
"428 398 OFFCURVE",
"428 340 CURVE SMOOTH",
"428 106 LINE",
"376 81 LINE",
"376 0 LINE",
"629 0 LINE",
"629 81 LINE",
"578 106 LINE",
"578 370 LINE",
"578 370 OFFCURVE",
"622 424 OFFCURVE",
"680 424 CURVE SMOOTH",
"728 424 OFFCURVE",
"744 398 OFFCURVE",
"744 340 CURVE SMOOTH",
"744 106 LINE",
"692 81 LINE",
"692 0 LINE",
"961 0 LINE",
"961 81 LINE",
"894 106 LINE",
"894 371 LINE SMOOTH",
"894 483 OFFCURVE",
"844 551 OFFCURVE",
"742 551 CURVE SMOOTH"
);
}
);
width = 983;
}
);
leftKerningGroup = n;
rightKerningGroup = n;
unicode = 006D;
},
{
glyphname = n;
layers = (
{
guideLines = (
{
angle = 90;
position = "{40, 398}";
}
);
layerId = "9A1863D8-8A35-4672-A3E4-263E374F0942";
name = Bold;
paths = (
{
closed = 1;
nodes = (
"346 551 OFFCURVE",
"271 490 OFFCURVE",
"251 472 CURVE",
"245 541 LINE",
"35 533 LINE",
"35 452 LINE",
"112 432 LINE",
"112 106 LINE",
"35 81 LINE",
"35 0 LINE",
"314 0 LINE",
"314 81 LINE",
"262 106 LINE",
"262 370 LINE",
"262 370 OFFCURVE",
"306 426 OFFCURVE",
"368 426 CURVE SMOOTH",
"414 426 OFFCURVE",
"434 399 OFFCURVE",
"434 347 CURVE SMOOTH",
"434 106 LINE",
"382 81 LINE",
"382 0 LINE",
"654 0 LINE",
"654 81 LINE",
"584 106 LINE",
"584 371 LINE",
"584 483 OFFCURVE",
"531 551 OFFCURVE",
"429 551 CURVE SMOOTH"
);
}
);
width = 676;
}
);
leftKerningGroup = n;
rightKerningGroup = n;
unicode = 006E;
},
{
glyphname = ntilde;
layers = (
{
layerId = "9A1863D8-8A35-4672-A3E4-263E374F0942";
name = Bold;
paths = (
{
closed = 1;
nodes = (
"348 551 OFFCURVE",
"273 490 OFFCURVE",
"253 472 CURVE",
"247 541 LINE",
"29 533 LINE",
"29 452 LINE",
"114 432 LINE",
"114 109 LINE",
"29 81 LINE",
"29 0 LINE",
"316 0 LINE",
"316 81 LINE",
"264 109 LINE",
"264 370 LINE",
"264 370 OFFCURVE",
"308 426 OFFCURVE",
"370 426 CURVE SMOOTH",
"416 426 OFFCURVE",
"436 399 OFFCURVE",
"436 347 CURVE SMOOTH",
"436 109 LINE",
"384 81 LINE",
"384 0 LINE",
"658 0 LINE",
"658 81 LINE",
"586 109 LINE",
"586 371 LINE",
"586 483 OFFCURVE",
"533 551 OFFCURVE",
"431 551 CURVE SMOOTH"
);
},
{
closed = 1;
nodes = (
"175 787 OFFCURVE",
"134 677 OFFCURVE",
"134 677 CURVE",
"182 631 LINE",
"182 631 OFFCURVE",
"212 672 OFFCURVE",
"255 672 CURVE SMOOTH",
"315 672 OFFCURVE",
"352 627 OFFCURVE",
"422 627 CURVE SMOOTH",
"505 627 OFFCURVE",
"549 738 OFFCURVE",
"549 738 CURVE",
"495 784 LINE",
"495 784 OFFCURVE",
"462 742 OFFCURVE",
"424 742 CURVE SMOOTH",
"364 742 OFFCURVE",
"330 787 OFFCURVE",
"260 787 CURVE SMOOTH"
);
}
);
width = 678;
}
);
leftKerningGroup = n;
rightKerningGroup = n;
unicode = 00F1;
},
{
glyphname = o;
layers = (
{
layerId = "9A1863D8-8A35-4672-A3E4-263E374F0942";
name = Bold;
paths = (
{
closed = 1;
nodes = (
"143 551 OFFCURVE",
"35 446 OFFCURVE",
"35 265 CURVE SMOOTH",
"35 75 OFFCURVE",
"128 -10 OFFCURVE",
"291 -10 CURVE SMOOTH",
"454 -10 OFFCURVE",
"559 100 OFFCURVE",
"559 280 CURVE SMOOTH",
"559 453 OFFCURVE",
"469 551 OFFCURVE",
"306 551 CURVE SMOOTH"
);
},
{
closed = 1;
nodes = (
"371 434 OFFCURVE",
"401 383 OFFCURVE",
"401 275 CURVE SMOOTH",
"401 151 OFFCURVE",
"366 107 OFFCURVE",
"295 107 CURVE SMOOTH",
"224 107 OFFCURVE",
"192 156 OFFCURVE",
"192 270 CURVE SMOOTH",
"192 395 OFFCURVE",
"229 434 OFFCURVE",
"300 434 CURVE SMOOTH"
);
}
);
width = 594;
}
);
leftKerningGroup = o;
rightKerningGroup = o;
unicode = 006F;
},
{
glyphname = oe;
layers = (
{
layerId = "9A1863D8-8A35-4672-A3E4-263E374F0942";
name = Bold;
paths = (
{
closed = 1;
nodes = (
"596 551 OFFCURVE",
"533 519 OFFCURVE",
"491 466 CURVE",
"449 519 OFFCURVE",
"385 551 OFFCURVE",
"305 551 CURVE SMOOTH",
"145 551 OFFCURVE",
"37 446 OFFCURVE",
"37 265 CURVE SMOOTH",
"37 75 OFFCURVE",
"130 -10 OFFCURVE",
"290 -10 CURVE SMOOTH",
"372 -10 OFFCURVE",
"436 23 OFFCURVE",
"480 76 CURVE",
"520 22 OFFCURVE",
"583 -10 OFFCURVE",
"668 -10 CURVE SMOOTH",
"793 -10 OFFCURVE",
"894 75 OFFCURVE",
"894 75 CURVE",
"850 156 LINE",
"813 144 OFFCURVE",
"761 109 OFFCURVE",
"683 109 CURVE SMOOTH",
"615 109 OFFCURVE",
"570 155 OFFCURVE",
"564 237 CURVE",
"895 239 LINE",
"895 239 OFFCURVE",
"901 277 OFFCURVE",
"901 316 CURVE SMOOTH",
"901 458 OFFCURVE",
"821 551 OFFCURVE",
"675 551 CURVE SMOOTH"
);
},
{
closed = 1;
nodes = (
"374 434 OFFCURVE",
"406 383 OFFCURVE",
"406 275 CURVE SMOOTH",
"406 151 OFFCURVE",
"369 107 OFFCURVE",
"298 107 CURVE SMOOTH",
"227 107 OFFCURVE",
"195 156 OFFCURVE",
"195 270 CURVE SMOOTH",
"195 395 OFFCURVE",
"232 434 OFFCURVE",
"303 434 CURVE SMOOTH"
);
},
{
closed = 1;
nodes = (
"719 432 OFFCURVE",
"743 389 OFFCURVE",
"743 330 CURVE",
"566 330 LINE",
"574 392 OFFCURVE",
"609 432 OFFCURVE",
"663 432 CURVE SMOOTH"
);
}
);
width = 931;
}
);
leftKerningGroup = o;
rightKerningGroup = e;
unicode = 0153;
},
{
glyphname = p;
layers = (
{
layerId = "9A1863D8-8A35-4672-A3E4-263E374F0942";
name = Bold;
paths = (
{
closed = 1;
nodes = (
"308 551 OFFCURVE",
"255 498 OFFCURVE",
"241 485 CURVE",
"232 541 LINE",
"20 533 LINE",
"20 452 LINE",
"100 432 LINE",
"100 -126 LINE",
"22 -149 LINE",
"22 -230 LINE",
"344 -230 LINE",
"344 -149 LINE",
"250 -126 LINE",
"250 -1 LINE",
"274 -6 OFFCURVE",
"298 -10 OFFCURVE",
"324 -10 CURVE SMOOTH",
"509 -10 OFFCURVE",
"597 99 OFFCURVE",
"597 285 CURVE SMOOTH",
"597 448 OFFCURVE",
"528 551 OFFCURVE",
"389 551 CURVE SMOOTH"
);
},
{
closed = 1;
nodes = (
"412 431 OFFCURVE",
"438 369 OFFCURVE",
"438 267 CURVE SMOOTH",
"438 155 OFFCURVE",
"410 96 OFFCURVE",
"325 96 CURVE SMOOTH",
"274 96 OFFCURVE",
"249 111 OFFCURVE",
"249 111 CURVE",
"249 377 LINE",
"249 377 OFFCURVE",
"276 431 OFFCURVE",
"340 431 CURVE SMOOTH"
);
}
);
width = 631;
}
);
leftKerningGroup = p;
rightKerningGroup = o;
unicode = 0070;
},
{
glyphname = thorn;
layers = (
{
layerId = "9A1863D8-8A35-4672-A3E4-263E374F0942";
name = Bold;
paths = (
{
closed = 1;
nodes = (
"25 768 LINE",
"25 686 LINE",
"105 666 LINE",
"105 -131 LINE",
"27 -154 LINE",
"27 -235 LINE",
"362 -235 LINE",
"362 -154 LINE",
"257 -131 LINE",
"257 -2 LINE",
"262 -3 OFFCURVE",
"287 -10 OFFCURVE",
"316 -10 CURVE SMOOTH",
"509 -10 OFFCURVE",
"602 99 OFFCURVE",
"602 285 CURVE SMOOTH",
"602 446 OFFCURVE",
"532 551 OFFCURVE",
"400 551 CURVE SMOOTH",
"312 551 OFFCURVE",
"257 493 OFFCURVE",
"257 493 CURVE",
"257 775 LINE"
);
},
{
closed = 1;
nodes = (
"414 431 OFFCURVE",
"444 377 OFFCURVE",
"444 275 CURVE SMOOTH",
"444 175 OFFCURVE",
"415 107 OFFCURVE",
"332 107 CURVE SMOOTH",
"282 107 OFFCURVE",
"257 120 OFFCURVE",
"257 120 CURVE",
"257 385 LINE",
"257 385 OFFCURVE",
"289 431 OFFCURVE",
"348 431 CURVE SMOOTH"
);
}
);
width = 615;
}
);
leftKerningGroup = l;
rightKerningGroup = o;
unicode = 00FE;
},
{
glyphname = q;
layers = (
{
layerId = "9A1863D8-8A35-4672-A3E4-263E374F0942";
name = Bold;
paths = (
{
closed = 1;
nodes = (
"130 551 OFFCURVE",
"32 438 OFFCURVE",
"32 255 CURVE SMOOTH",
"32 95 OFFCURVE",
"97 -10 OFFCURVE",
"237 -10 CURVE SMOOTH",
"314 -10 OFFCURVE",
"363 31 OFFCURVE",
"379 44 CURVE",
"379 -123 LINE",
"284 -149 LINE",
"284 -230 LINE",
"604 -230 LINE",
"604 -149 LINE",
"529 -123 LINE",
"529 526 LINE",
"529 526 OFFCURVE",
"433 551 OFFCURVE",
"323 551 CURVE SMOOTH"
);
},
{
closed = 1;
nodes = (
"351 434 OFFCURVE",
"378 426 OFFCURVE",
"378 426 CURVE",
"378 153 LINE",
"378 153 OFFCURVE",
"347 109 OFFCURVE",
"286 109 CURVE SMOOTH",
"216 109 OFFCURVE",
"189 163 OFFCURVE",
"189 265 CURVE SMOOTH",
"189 365 OFFCURVE",
"221 434 OFFCURVE",
"302 434 CURVE SMOOTH"
);
}
);
width = 593;
}
);
leftKerningGroup = o;
rightKerningGroup = q;
unicode = 0071;
},
{
glyphname = r;
layers = (
{
layerId = "9A1863D8-8A35-4672-A3E4-263E374F0942";
name = Bold;
paths = (
{
closed = 1;
nodes = (
"325 551 OFFCURVE",
"272 494 OFFCURVE",
"254 472 CURVE",
"245 541 LINE",
"35 533 LINE",
"35 452 LINE",
"115 432 LINE",
"115 106 LINE",
"35 81 LINE",
"35 0 LINE",
"359 0 LINE",
"359 81 LINE",
"265 106 LINE",
"265 371 LINE",
"275 384 OFFCURVE",
"314 426 OFFCURVE",
"370 426 CURVE",
"385 341 LINE",
"474 341 LINE",
"482 533 LINE",
"482 533 OFFCURVE",
"447 551 OFFCURVE",
"392 551 CURVE"
);
}
);
width = 486;
}
);
leftKerningGroup = n;
rightKerningGroup = r;
unicode = 0072;
},
{
glyphname = s;
layers = (
{
layerId = "9A1863D8-8A35-4672-A3E4-263E374F0942";
name = Bold;
paths = (
{
closed = 1;
nodes = (
"138 551 OFFCURVE",
"37 505 OFFCURVE",
"37 379 CURVE SMOOTH",
"37 201 OFFCURVE",
"301 235 OFFCURVE",
"301 150 CURVE SMOOTH",
"301 110 OFFCURVE",
"270 97 OFFCURVE",
"224 97 CURVE SMOOTH",
"174 97 OFFCURVE",
"142 107 OFFCURVE",
"142 107 CURVE",
"134 176 LINE",
"40 176 LINE",
"40 12 LINE",
"40 12 OFFCURVE",
"137 -10 OFFCURVE",
"225 -10 CURVE SMOOTH",
"364 -10 OFFCURVE",
"456 56 OFFCURVE",
"456 171 CURVE SMOOTH",
"456 344 OFFCURVE",
"192 309 OFFCURVE",
"192 394 CURVE SMOOTH",
"192 428 OFFCURVE",
"218 444 OFFCURVE",
"258 444 CURVE SMOOTH",
"298 444 OFFCURVE",
"323 435 OFFCURVE",
"323 435 CURVE",
"338 370 LINE",
"427 370 LINE",
"431 521 LINE",
"431 521 OFFCURVE",
"335 551 OFFCURVE",
"245 551 CURVE SMOOTH"
);
}
);
width = 492;
}
);
leftKerningGroup = s;
rightKerningGroup = s;
unicode = 0073;
},
{
glyphname = germandbls;
layers = (
{
layerId = "9A1863D8-8A35-4672-A3E4-263E374F0942";
name = Bold;
paths = (
{
closed = 1;
nodes = (
"222 788 OFFCURVE",
"130 700 OFFCURVE",
"130 569 CURVE SMOOTH",
"130 530 LINE",
"23 515 LINE",
"23 429 LINE",
"130 429 LINE",
"130 106 LINE",
"50 81 LINE",
"50 0 LINE",
"280 0 LINE",
"280 576 LINE SMOOTH",
"280 639 OFFCURVE",
"316 676 OFFCURVE",
"376 676 CURVE SMOOTH",
"431 676 OFFCURVE",
"477 656 OFFCURVE",
"477 596 CURVE SMOOTH",
"477 515 OFFCURVE",
"360 508 OFFCURVE",
"360 391 CURVE SMOOTH",
"360 214 OFFCURVE",
"589 237 OFFCURVE",
"591 150 CURVE SMOOTH",
"592 114 OFFCURVE",
"565 98 OFFCURVE",
"521 97 CURVE SMOOTH",
"482 96 OFFCURVE",
"455 108 OFFCURVE",
"455 108 CURVE",
"445 174 LINE",
"354 174 LINE",
"354 12 LINE",
"354 12 OFFCURVE",
"447 -10 OFFCURVE",
"526 -10 CURVE SMOOTH",
"655 -10 OFFCURVE",
"747 63 OFFCURVE",
"746 173 CURVE SMOOTH",
"744 343 OFFCURVE",
"515 318 OFFCURVE",
"515 410 CURVE SMOOTH",
"515 479 OFFCURVE",
"627 500 OFFCURVE",
"627 618 CURVE SMOOTH",
"627 719 OFFCURVE",
"539 788 OFFCURVE",
"374 788 CURVE SMOOTH"
);
}
);
width = 760;
}
);
leftKerningGroup = f;
unicode = 00DF;
},
{
glyphname = t;
layers = (
{
layerId = "9A1863D8-8A35-4672-A3E4-263E374F0942";
name = Bold;
paths = (
{
closed = 1;
nodes = (
"109 664 LINE",
"109 525 LINE",
"17 512 LINE",
"17 421 LINE",
"109 421 LINE",
"109 180 LINE SMOOTH",
"109 50 OFFCURVE",
"156 -10 OFFCURVE",
"256 -10 CURVE SMOOTH",
"314 -10 OFFCURVE",
"380 19 OFFCURVE",
"427 53 CURVE",
"391 126 LINE",
"378 119 OFFCURVE",
"339 103 OFFCURVE",
"312 103 CURVE SMOOTH",
"277 103 OFFCURVE",
"259 124 OFFCURVE",
"259 166 CURVE SMOOTH",
"259 421 LINE",
"399 421 LINE",
"399 525 LINE",
"259 525 LINE",
"259 692 LINE"
);
}
);
width = 440;
}
);
leftKerningGroup = t;
rightKerningGroup = t;
unicode = 0074;
},
{
glyphname = u;
layers = (
{
layerId = "9A1863D8-8A35-4672-A3E4-263E374F0942";
name = Bold;
paths = (
{
closed = 1;
nodes = (
"337 533 LINE",
"337 452 LINE",
"410 434 LINE",
"410 173 LINE",
"410 173 OFFCURVE",
"366 116 OFFCURVE",
"303 116 CURVE SMOOTH",
"257 116 OFFCURVE",
"239 141 OFFCURVE",
"239 198 CURVE SMOOTH",
"239 541 LINE",
"16 533 LINE",
"16 452 LINE",
"89 434 LINE",
"89 170 LINE SMOOTH",
"89 57 OFFCURVE",
"140 -10 OFFCURVE",
"243 -10 CURVE SMOOTH",
"337 -10 OFFCURVE",
"407 60 OFFCURVE",
"419 70 CURVE",
"429 0 LINE",
"635 8 LINE",
"635 86 LINE",
"560 106 LINE",
"560 541 LINE"
);
}
);
width = 655;
}
);
leftKerningGroup = u;
rightKerningGroup = u;
unicode = 0075;
},
{
glyphname = v;
layers = (
{
layerId = "9A1863D8-8A35-4672-A3E4-263E374F0942";
name = Bold;
paths = (
{
closed = 1;
nodes = (
"333 536 LINE",
"333 454 LINE",
"390 441 LINE",
"316 199 LINE",
"303 151 LINE",
"301 151 LINE",
"289 199 LINE",
"214 444 LINE",
"269 454 LINE",
"269 541 LINE",
"5 536 LINE",
"5 454 LINE",
"53 439 LINE",
"211 0 LINE",
"379 0 LINE",
"540 441 LINE",
"597 454 LINE",
"597 541 LINE"
);
}
);
width = 602;
}
);
leftKerningGroup = v;
rightKerningGroup = v;
unicode = 0076;
},
{
glyphname = w;
layers = (
{
layerId = "9A1863D8-8A35-4672-A3E4-263E374F0942";
name = Bold;
paths = (
{
closed = 1;
nodes = (
"377 523 LINE",
"273 166 LINE",
"208 443 LINE",
"270 454 LINE",
"270 541 LINE",
"6 536 LINE",
"6 454 LINE",
"50 440 LINE",
"186 0 LINE",
"341 0 LINE",
"422 252 LINE",
"438 329 LINE",
"455 252 LINE",
"534 0 LINE",
"688 0 LINE",
"822 443 LINE",
"874 454 LINE",
"874 541 LINE",
"617 536 LINE",
"617 454 LINE",
"678 439 LINE",
"620 166 LINE",
"512 545 LINE"
);
}
);
width = 881;
}
);
leftKerningGroup = v;
rightKerningGroup = v;
unicode = 0077;
},
{
glyphname = x;
layers = (
{
layerId = "9A1863D8-8A35-4672-A3E4-263E374F0942";
name = Bold;
paths = (
{
closed = 1;
nodes = (
"405 536 LINE",
"302 363 LINE",
"251 448 LINE",
"281 454 LINE",
"281 541 LINE",
"20 536 LINE",
"20 454 LINE",
"73 442 LINE",
"194 265 LINE",
"84 102 LINE",
"10 81 LINE",
"10 0 LINE",
"181 0 LINE",
"288 178 LINE",
"340 93 LINE",
"310 81 LINE",
"310 0 LINE",
"583 0 LINE",
"583 81 LINE",
"510 102 LINE",
"398 270 LINE",
"513 441 LINE",
"573 454 LINE",
"573 541 LINE"
);
}
);
width = 594;
}
);
leftKerningGroup = x;
rightKerningGroup = x;
unicode = 0078;
},
{
glyphname = y;
layers = (
{
layerId = "9A1863D8-8A35-4672-A3E4-263E374F0942";
name = Bold;
paths = (
{
closed = 1;
nodes = (
"338 536 LINE",
"338 454 LINE",
"394 441 LINE",
"311 168 LINE",
"224 444 LINE",
"279 454 LINE",
"279 541 LINE",
"10 536 LINE",
"10 454 LINE",
"63 439 LINE",
"228 0 LINE",
"241 -1 LINE",
"220 -47 OFFCURVE",
"186 -123 OFFCURVE",
"108 -123 CURVE SMOOTH",
"43 -123 LINE",
"28 -232 LINE",
"28 -232 OFFCURVE",
"81 -240 OFFCURVE",
"127 -240 CURVE SMOOTH",
"286 -240 OFFCURVE",
"350 -101 OFFCURVE",
"399 30 CURVE",
"546 441 LINE",
"608 454 LINE",
"608 541 LINE"
);
}
);
width = 613;
}
);
leftKerningGroup = y;
rightKerningGroup = y;
unicode = 0079;
},
{
glyphname = z;
layers = (
{
layerId = "9A1863D8-8A35-4672-A3E4-263E374F0942";
name = Bold;
paths = (
{
closed = 1;
nodes = (
"52 541 LINE",
"52 356 LINE",
"141 356 LINE",
"158 434 LINE",
"300 434 LINE",
"40 93 LINE",
"40 0 LINE",
"477 0 LINE",
"477 197 LINE",
"388 197 LINE",
"369 107 LINE",
"218 107 LINE",
"474 447 LINE",
"474 541 LINE"
);
}
);
width = 509;
}
);
leftKerningGroup = z;
rightKerningGroup = z;
unicode = 007A;
},
{
glyphname = fi;
layers = (
{
layerId = "9A1863D8-8A35-4672-A3E4-263E374F0942";
name = Bold;
paths = (
{
closed = 1;
nodes = (
"197 788 OFFCURVE",
"130 707 OFFCURVE",
"130 572 CURVE SMOOTH",
"130 530 LINE",
"40 515 LINE",
"40 432 LINE",
"130 432 LINE",
"130 106 LINE",
"50 81 LINE",
"50 0 LINE",
"353 0 LINE",
"353 81 LINE",
"280 106 LINE",
"280 432 LINE",
"504 432 LINE",
"504 106 LINE",
"434 81 LINE",
"434 0 LINE",
"724 0 LINE",
"724 81 LINE",
"654 106 LINE",
"654 541 LINE",
"280 530 LINE",
"280 590 LINE SMOOTH",
"280 644 OFFCURVE",
"307 679 OFFCURVE",
"402 679 CURVE SMOOTH",
"451 679 OFFCURVE",
"509 671 OFFCURVE",
"509 671 CURVE",
"522 609 LINE",
"631 609 LINE",
"634 751 LINE",
"634 751 OFFCURVE",
"526 788 OFFCURVE",
"392 788 CURVE SMOOTH"
);
}
);
width = 748;
}
);
leftKerningGroup = f;
rightKerningGroup = i;
unicode = FB01;
},
{
glyphname = fl;
layers = (
{
layerId = "9A1863D8-8A35-4672-A3E4-263E374F0942";
name = Bold;
paths = (
{
closed = 1;
nodes = (
"202 788 OFFCURVE",
"130 707 OFFCURVE",
"130 577 CURVE SMOOTH",
"130 530 LINE",
"40 515 LINE",
"40 429 LINE",
"130 429 LINE",
"130 106 LINE",
"50 81 LINE",
"50 0 LINE",
"353 0 LINE",
"353 81 LINE",
"280 106 LINE",
"280 429 LINE",
"407 429 LINE",
"410 530 LINE",
"280 530 LINE",
"280 594 LINE SMOOTH",
"280 646 OFFCURVE",
"314 679 OFFCURVE",
"397 679 CURVE SMOOTH",
"446 679 OFFCURVE",
"502 670 OFFCURVE",
"502 670 CURVE",
"502 106 LINE",
"434 81 LINE",
"434 0 LINE",
"745 0 LINE",
"745 81 LINE",
"655 106 LINE",
"655 762 LINE",
"655 762 OFFCURVE",
"525 788 OFFCURVE",
"385 788 CURVE SMOOTH"
);
}
);
width = 752;
}
);
leftKerningGroup = f;
rightKerningGroup = l;
unicode = FB02;
},
{
glyphname = ordfeminine;
layers = (
{
guideLines = (
{
position = "{432, 324}";
},
{
position = "{386, 710}";
}
);
layerId = "9A1863D8-8A35-4672-A3E4-263E374F0942";
name = Bold;
paths = (
{
closed = 1;
nodes = (
"162 718 OFFCURVE",
"67 688 OFFCURVE",
"67 688 CURVE",
"73 579 LINE",
"146 579 LINE",
"154 622 LINE",
"154 622 OFFCURVE",
"182 630 OFFCURVE",
"216 630 CURVE SMOOTH",
"247 630 OFFCURVE",
"265 614 OFFCURVE",
"265 585 CURVE SMOOTH",
"265 550 LINE",
"219 550 LINE SMOOTH",
"109 550 OFFCURVE",
"48 515 OFFCURVE",
"48 431 CURVE SMOOTH",
"48 357 OFFCURVE",
"89 315 OFFCURVE",
"161 315 CURVE SMOOTH",
"228 315 OFFCURVE",
"279 372 OFFCURVE",
"279 372 CURVE",
"293 322 LINE",
"433 329 LINE",
"433 395 LINE",
"380 407 LINE",
"380 592 LINE SMOOTH",
"380 681 OFFCURVE",
"334 718 OFFCURVE",
"231 718 CURVE SMOOTH"
);
},
{
closed = 1;
nodes = (
"59 235 LINE",
"59 133 LINE",
"433 133 LINE",
"433 235 LINE"
);
},
{
closed = 1;
nodes = (
"265 438 LINE",
"258 431 OFFCURVE",
"229 404 OFFCURVE",
"198 404 CURVE SMOOTH",
"174 404 OFFCURVE",
"158 418 OFFCURVE",
"158 440 CURVE SMOOTH",
"158 471 OFFCURVE",
"180 484 OFFCURVE",
"227 484 CURVE SMOOTH",
"265 484 LINE"
);
}
);
width = 468;
}
);
unicode = 00AA;
},
{
glyphname = ordmasculine;
layers = (
{
layerId = "9A1863D8-8A35-4672-A3E4-263E374F0942";
name = Bold;
paths = (
{
closed = 1;
nodes = (
"132 718 OFFCURVE",
"45 639 OFFCURVE",
"45 511 CURVE SMOOTH",
"45 378 OFFCURVE",
"121 315 OFFCURVE",
"238 315 CURVE SMOOTH",
"357 315 OFFCURVE",
"441 401 OFFCURVE",
"441 525 CURVE SMOOTH",
"441 648 OFFCURVE",
"367 718 OFFCURVE",
"250 718 CURVE SMOOTH"
);
},
{
closed = 1;
nodes = (
"53 235 LINE",
"53 133 LINE",
"432 133 LINE",
"432 235 LINE"
);
},
{
closed = 1;
nodes = (
"293 624 OFFCURVE",
"313 588 OFFCURVE",
"313 520 CURVE SMOOTH",
"313 444 OFFCURVE",
"290 409 OFFCURVE",
"243 409 CURVE SMOOTH",
"195 409 OFFCURVE",
"172 446 OFFCURVE",
"172 515 CURVE SMOOTH",
"172 588 OFFCURVE",
"198 624 OFFCURVE",
"244 624 CURVE SMOOTH"
);
}
);
width = 494;
}
);
unicode = 00BA;
},
{
glyphname = Delta;
layers = (
{
layerId = "9A1863D8-8A35-4672-A3E4-263E374F0942";
name = Bold;
paths = (
{
closed = 1;
nodes = (
"276 723 LINE",
"17 102 LINE",
"17 0 LINE",
"661 0 LINE",
"661 102 LINE",
"410 723 LINE"
);
},
{
closed = 1;
nodes = (
"509 114 LINE",
"154 114 LINE",
"331 558 LINE"
);
}
);
width = 680;
}
);
unicode = 0394;
},
{
glyphname = mu;
layers = (
{
layerId = "9A1863D8-8A35-4672-A3E4-263E374F0942";
name = Bold;
paths = (
{
closed = 1;
nodes = (
"340 533 LINE",
"340 452 LINE",
"413 432 LINE",
"413 173 LINE",
"413 173 OFFCURVE",
"368 116 OFFCURVE",
"306 116 CURVE SMOOTH",
"261 116 OFFCURVE",
"241 141 OFFCURVE",
"240 192 CURVE",
"240 541 LINE",
"17 533 LINE",
"17 452 LINE",
"90 432 LINE",
"90 -235 LINE",
"240 -235 LINE",
"240 -5 LINE",
"251 -8 OFFCURVE",
"262 -10 OFFCURVE",
"275 -10 CURVE SMOOTH",
"348 -10 OFFCURVE",
"412 62 OFFCURVE",
"424 71 CURVE",
"434 0 LINE",
"638 8 LINE",
"638 86 LINE",
"563 106 LINE",
"563 541 LINE"
);
}
);
width = 659;
}
);
unicode = 03BC;
},
{
glyphname = pi;
layers = (
{
layerId = "9A1863D8-8A35-4672-A3E4-263E374F0942";
name = Bold;
paths = (
{
closed = 1;
nodes = (
"236 541 LINE",
"22 530 LINE",
"22 452 LINE",
"99 429 LINE",
"99 0 LINE",
"249 0 LINE",
"249 426 LINE",
"407 426 LINE",
"407 180 LINE SMOOTH",
"407 50 OFFCURVE",
"454 -10 OFFCURVE",
"551 -10 CURVE SMOOTH",
"619 -10 OFFCURVE",
"684 30 OFFCURVE",
"711 48 CURVE",
"675 119 LINE",
"675 119 OFFCURVE",
"638 103 OFFCURVE",
"609 103 CURVE SMOOTH",
"575 103 OFFCURVE",
"556 124 OFFCURVE",
"556 166 CURVE SMOOTH",
"556 431 LINE",
"637 452 LINE",
"637 541 LINE"
);
}
);
width = 690;
}
);
unicode = 03C0;
},
{
color = 3;
glyphname = "a-deva";
layers = (
{
anchors = (
{
name = top;
position = "{738, 541}";
}
);
guideLines = (
{
angle = 90;
position = "{760, 720}";
}
);
layerId = "9A1863D8-8A35-4672-A3E4-263E374F0942";
name = Bold;
paths = (
{
closed = 1;
nodes = (
"306 339 LINE",
"360 318 OFFCURVE",
"392 279 OFFCURVE",
"392 231 CURVE SMOOTH",
"392 179 OFFCURVE",
"357 144 OFFCURVE",
"295 144 CURVE SMOOTH",
"218 144 OFFCURVE",
"149 198 OFFCURVE",
"112 318 CURVE",
"14 275 LINE",
"50 141 OFFCURVE",
"162 27 OFFCURVE",
"306 27 CURVE SMOOTH",
"435 27 OFFCURVE",
"533 97 OFFCURVE",
"533 215 CURVE SMOOTH",
"533 298 OFFCURVE",
"467 362 OFFCURVE",
"359 415 CURVE"
);
},
{
closed = 1;
nodes = (
"389 397 LINE",
"407 290 LINE",
"738 290 LINE",
"738 397 LINE"
);
},
{
closed = 1;
nodes = (
"670 691 LINE",
"670 0 LINE",
"810 0 LINE",
"810 691 LINE"
);
},
{
closed = 1;
nodes = (
"553 691 LINE",
"569 584 LINE",
"931 584 LINE",
"916 691 LINE"
);
},
{
closed = 1;
nodes = (
"170 554 LINE",
"212 570 OFFCURVE",
"262 581 OFFCURVE",
"296 581 CURVE SMOOTH",
"338 581 OFFCURVE",
"366 559 OFFCURVE",
"366 524 CURVE SMOOTH",
"366 471 OFFCURVE",
"302 441 OFFCURVE",
"194 421 CURVE",
"231 311 LINE",
"387 320 OFFCURVE",
"504 405 OFFCURVE",
"504 520 CURVE SMOOTH",
"504 625 OFFCURVE",
"425 698 OFFCURVE",
"298 698 CURVE SMOOTH",
"237 698 OFFCURVE",
"171 682 OFFCURVE",
"123 666 CURVE"
);
}
);
width = 903;
}
);
unicode = 0905;
},
{
color = 3;
glyphname = "i-deva";
layers = (
{
anchors = (
{
name = bottom;
position = "{313, -18}";
},
{
name = top;
position = "{400, 541}";
}
);
layerId = "9A1863D8-8A35-4672-A3E4-263E374F0942";
name = Bold;
paths = (
{
closed = 1;
nodes = (
"-18 691 LINE",
"-2 584 LINE",
"603 584 LINE",
"587 691 LINE"
);
},
{
closed = 1;
nodes = (
"90 174 LINE",
"65 132 OFFCURVE",
"56 80 OFFCURVE",
"57 29 CURVE",
"122 68 LINE",
"340 -206 LINE",
"455 -142 LINE",
"163 167 LINE"
);
},
{
closed = 1;
nodes = (
"318 688 LINE",
"318 517 LINE",
"236 517 LINE SMOOTH",
"122 517 OFFCURVE",
"62 468 OFFCURVE",
"62 381 CURVE SMOOTH",
"62 270 OFFCURVE",
"130 189 OFFCURVE",
"250 203 CURVE SMOOTH",
"355 215 LINE SMOOTH",
"397 219 OFFCURVE",
"417 205 OFFCURVE",
"417 177 CURVE SMOOTH",
"417 120 OFFCURVE",
"354 88 OFFCURVE",
"274 88 CURVE SMOOTH",
"218 88 OFFCURVE",
"154 105 OFFCURVE",
"115 129 CURVE",
"58 29 LINE",
"123 -5 OFFCURVE",
"220 -19 OFFCURVE",
"290 -19 CURVE SMOOTH",
"409 -19 OFFCURVE",
"534 41 OFFCURVE",
"531 168 CURVE SMOOTH",
"528 268 OFFCURVE",
"468 347 OFFCURVE",
"347 330 CURVE SMOOTH",
"247 317 LINE SMOOTH",
"207 311 OFFCURVE",
"194 340 OFFCURVE",
"194 364 CURVE SMOOTH",
"194 391 OFFCURVE",
"211 409 OFFCURVE",
"251 409 CURVE SMOOTH",
"455 409 LINE",
"455 688 LINE"
);
}
);
width = 580;
}
);
unicode = 0907;
},
{
color = 3;
glyphname = "ii-deva";
layers = (
{
components = (
{
name = "i-deva";
transform = "{1, 0, 0, 1, 0, 0}";
}
);
layerId = "9A1863D8-8A35-4672-A3E4-263E374F0942";
name = Bold;
paths = (
{
closed = 1;
nodes = (
"446 978 OFFCURVE",
"407 986 OFFCURVE",
"370 986 CURVE SMOOTH",
"286 986 OFFCURVE",
"201 942 OFFCURVE",
"201 847 CURVE SMOOTH",
"201 783 OFFCURVE",
"250 726 OFFCURVE",
"323 675 CURVE",
"461 675 LINE",
"376 727 OFFCURVE",
"332 771 OFFCURVE",
"332 819 CURVE SMOOTH",
"332 863 OFFCURVE",
"363 881 OFFCURVE",
"401 881 CURVE SMOOTH",
"418 881 OFFCURVE",
"437 877 OFFCURVE",
"453 871 CURVE",
"479 963 LINE"
);
}
);
width = 588;
}
);
unicode = 0908;
},
{
color = 3;
glyphname = "u-deva";
layers = (
{
guideLines = (
{
position = "{96, 0}";
}
);
layerId = "9A1863D8-8A35-4672-A3E4-263E374F0942";
name = Bold;
paths = (
{
closed = 1;
nodes = (
"300 313 LINE",
"354 291 OFFCURVE",
"396 246 OFFCURVE",
"396 196 CURVE SMOOTH",
"396 141 OFFCURVE",
"362 109 OFFCURVE",
"300 109 CURVE SMOOTH",
"220 109 OFFCURVE",
"151 162 OFFCURVE",
"113 280 CURVE",
"14 237 LINE",
"48 91 OFFCURVE",
"179 -11 OFFCURVE",
"322 -11 CURVE SMOOTH",
"439 -11 OFFCURVE",
"537 54 OFFCURVE",
"537 177 CURVE SMOOTH",
"537 266 OFFCURVE",
"476 347 OFFCURVE",
"358 388 CURVE"
);
},
{
closed = 1;
nodes = (
"285 584 LINE",
"340 584 OFFCURVE",
"370 555 OFFCURVE",
"370 515 CURVE SMOOTH",
"370 451 OFFCURVE",
"307 426 OFFCURVE",
"199 406 CURVE",
"236 293 LINE",
"392 302 OFFCURVE",
"508 380 OFFCURVE",
"508 505 CURVE SMOOTH",
"508 610 OFFCURVE",
"419 689 OFFCURVE",
"292 689 CURVE"
);
},
{
closed = 1;
nodes = (
"-17 691 LINE",
"0 584 LINE",
"622 584 LINE",
"607 691 LINE"
);
}
);
width = 604;
}
);
unicode = 0909;
},
{
color = 3;
glyphname = "ka-deva";
layers = (
{
guideLines = (
{
position = "{663, 505}";
},
{
position = "{577, 134}";
}
);
layerId = "9A1863D8-8A35-4672-A3E4-263E374F0942";
name = Bold;
paths = (
{
closed = 1;
nodes = (
"396 691 LINE",
"396 0 LINE",
"536 0 LINE",
"536 691 LINE"
);
},
{
closed = 1;
nodes = (
"-26 691 LINE",
"-9 584 LINE",
"919 584 LINE",
"903 691 LINE"
);
},
{
closed = 1;
nodes = (
"571 495 OFFCURVE",
"497 466 OFFCURVE",
"440 406 CURVE",
"519 305 LINE",
"563 350 OFFCURVE",
"608 379 OFFCURVE",
"651 379 CURVE SMOOTH",
"692 379 OFFCURVE",
"721 348 OFFCURVE",
"721 305 CURVE SMOOTH",
"721 253 OFFCURVE",
"684 199 OFFCURVE",
"624 151 CURVE",
"730 66 LINE",
"811 130 OFFCURVE",
"860 214 OFFCURVE",
"860 297 CURVE SMOOTH",
"860 418 OFFCURVE",
"756 495 OFFCURVE",
"643 495 CURVE SMOOTH"
);
},
{
closed = 1;
nodes = (
"262 505 LINE SMOOTH",
"127 505 OFFCURVE",
"35 442 OFFCURVE",
"35 314 CURVE SMOOTH",
"35 190 OFFCURVE",
"131 106 OFFCURVE",
"255 106 CURVE SMOOTH",
"366 106 OFFCURVE",
"461 177 OFFCURVE",
"520 293 CURVE",
"410 336 LINE",
"364 253 OFFCURVE",
"309 218 OFFCURVE",
"256 218 CURVE SMOOTH",
"203 218 OFFCURVE",
"175 252 OFFCURVE",
"175 304 CURVE SMOOTH",
"175 363 OFFCURVE",
"213 391 OFFCURVE",
"274 391 CURVE SMOOTH",
"329 391 LINE",
"313 505 LINE"
);
}
);
width = 897;
}
);
unicode = 0915;
},
{
color = 3;
glyphname = "ca-deva";
layers = (
{
layerId = "9A1863D8-8A35-4672-A3E4-263E374F0942";
name = Bold;
paths = (
{
closed = 1;
nodes = (
"21 499 LINE",
"38 380 LINE",
"137 380 LINE",
"125 361 OFFCURVE",
"115 334 OFFCURVE",
"115 301 CURVE SMOOTH",
"115 173 OFFCURVE",
"222 93 OFFCURVE",
"344 93 CURVE SMOOTH",
"453 93 OFFCURVE",
"544 160 OFFCURVE",
"597 258 CURVE",
"518 364 LINE",
"480 265 OFFCURVE",
"407 207 OFFCURVE",
"340 207 CURVE SMOOTH",
"284 207 OFFCURVE",
"255 242 OFFCURVE",
"255 293 CURVE SMOOTH",
"255 350 OFFCURVE",
"297 380 OFFCURVE",
"355 380 CURVE SMOOTH",
"430 380 LINE",
"411 499 LINE"
);
},
{
closed = 1;
nodes = (
"509 691 LINE",
"509 0 LINE",
"646 0 LINE",
"646 691 LINE"
);
},
{
closed = 1;
nodes = (
"-19 691 LINE",
"-2 584 LINE",
"767 584 LINE",
"751 691 LINE"
);
}
);
width = 738;
}
);
unicode = 091A;
},
{
color = 3;
glyphname = "pa-deva";
layers = (
{
layerId = "9A1863D8-8A35-4672-A3E4-263E374F0942";
name = Bold;
paths = (
{
closed = 1;
nodes = (
"52 691 LINE",
"52 360 LINE SMOOTH",
"52 219 OFFCURVE",
"144 146 OFFCURVE",
"269 146 CURVE SMOOTH",
"363 146 OFFCURVE",
"442 204 OFFCURVE",
"488 271 CURVE",
"388 342 LINE",
"357 289 OFFCURVE",
"313 263 OFFCURVE",
"269 263 CURVE SMOOTH",
"218 263 OFFCURVE",
"192 295 OFFCURVE",
"192 353 CURVE SMOOTH",
"192 691 LINE"
);
},
{
closed = 1;
nodes = (
"378 691 LINE",
"378 0 LINE",
"518 0 LINE",
"518 691 LINE"
);
},
{
closed = 1;
nodes = (
"-26 691 LINE",
"-10 584 LINE",
"641 584 LINE",
"625 691 LINE"
);
}
);
width = 611;
}
);
unicode = 092A;
},
{
color = 3;
glyphname = "pha-deva";
layers = (
{
anchors = (
{
name = bottom;
position = "{434, 0}";
},
{
name = top;
position = "{422, 530}";
}
);
components = (
{
name = "pa-deva";
transform = "{1, 0, 0, 1, 0, 0}";
}
);
layerId = "9A1863D8-8A35-4672-A3E4-263E374F0942";
name = Bold;
paths = (
{
closed = 1;
nodes = (
"-30 691 LINE",
"-13 584 LINE",
"939 584 LINE",
"923 691 LINE"
);
},
{
closed = 1;
nodes = (
"561 486 OFFCURVE",
"487 456 OFFCURVE",
"430 396 CURVE",
"509 295 LINE",
"553 341 OFFCURVE",
"598 370 OFFCURVE",
"641 370 CURVE SMOOTH",
"682 370 OFFCURVE",
"711 339 OFFCURVE",
"711 295 CURVE SMOOTH",
"711 244 OFFCURVE",
"674 189 OFFCURVE",
"614 141 CURVE",
"720 57 LINE",
"801 121 OFFCURVE",
"850 205 OFFCURVE",
"850 288 CURVE SMOOTH",
"850 408 OFFCURVE",
"746 486 OFFCURVE",
"633 486 CURVE SMOOTH"
);
}
);
width = 902;
}
);
unicode = 092B;
},
{
color = 3;
glyphname = "ba-deva";
layers = (
{
components = (
{
name = "va-deva";
transform = "{1, 0, 0, 1, 4, 0}";
}
);
layerId = "9A1863D8-8A35-4672-A3E4-263E374F0942";
name = Bold;
paths = (
{
closed = 1;
nodes = (
"124 442 LINE",
"336 186 LINE",
"433 186 LINE",
"221 442 LINE"
);
}
);
width = 665;
}
);
unicode = 092C;
},
{
color = 3;
glyphname = "va-deva";
layers = (
{
guideLines = (
{
position = "{288, 115}";
},
{
position = "{278, 195}";
}
);
layerId = "9A1863D8-8A35-4672-A3E4-263E374F0942";
name = Bold;
paths = (
{
closed = 1;
nodes = (
"265 503 LINE SMOOTH",
"130 503 OFFCURVE",
"38 437 OFFCURVE",
"38 304 CURVE SMOOTH",
"38 172 OFFCURVE",
"145 92 OFFCURVE",
"267 92 CURVE SMOOTH",
"375 92 OFFCURVE",
"467 159 OFFCURVE",
"520 258 CURVE",
"440 361 LINE",
"403 263 OFFCURVE",
"329 206 OFFCURVE",
"262 206 CURVE SMOOTH",
"206 206 OFFCURVE",
"178 241 OFFCURVE",
"178 296 CURVE SMOOTH",
"178 355 OFFCURVE",
"222 387 OFFCURVE",
"279 387 CURVE SMOOTH",
"356 387 LINE",
"338 503 LINE"
);
},
{
closed = 1;
nodes = (
"433 691 LINE",
"433 0 LINE",
"570 0 LINE",
"570 691 LINE"
);
},
{
closed = 1;
nodes = (
"-19 691 LINE",
"-3 584 LINE",
"694 584 LINE",
"678 691 LINE"
);
}
);
width = 663;
}
);
unicode = 0935;
},
{
color = 3;
glyphname = "ssa-deva";
layers = (
{
components = (
{
name = "pa-deva";
transform = "{1, 0, 0, 1, 0, 0}";
}
);
layerId = "9A1863D8-8A35-4672-A3E4-263E374F0942";
name = Bold;
paths = (
{
closed = 1;
nodes = (
"82 624 LINE",
"363 263 LINE",
"460 263 LINE",
"179 624 LINE"
);
}
);
width = 620;
}
);
unicode = 0937;
},
{
color = 3;
glyphname = "aaMatra-deva";
layers = (
{
anchors = (
{
name = bottom;
position = "{74, 0}";
},
{
name = top;
position = "{74, 251}";
}
);
layerId = "9A1863D8-8A35-4672-A3E4-263E374F0942";
name = Bold;
paths = (
{
closed = 1;
nodes = (
"93 691 LINE",
"93 0 LINE",
"233 0 LINE",
"233 691 LINE"
);
},
{
closed = 1;
nodes = (
"-25 691 LINE",
"-8 584 LINE",
"351 584 LINE",
"335 691 LINE"
);
}
);
width = 325;
}
);
unicode = 093E;
},
{
glyphname = zero;
layers = (
{
layerId = "9A1863D8-8A35-4672-A3E4-263E374F0942";
name = Bold;
paths = (
{
closed = 1;
nodes = (
"129 718 OFFCURVE",
"54 581 OFFCURVE",
"54 348 CURVE SMOOTH",
"54 115 OFFCURVE",
"129 -13 OFFCURVE",
"322 -13 CURVE SMOOTH",
"515 -13 OFFCURVE",
"595 122 OFFCURVE",
"595 363 CURVE SMOOTH",
"595 590 OFFCURVE",
"535 718 OFFCURVE",
"332 718 CURVE SMOOTH"
);
},
{
closed = 1;
nodes = (
"403 591 OFFCURVE",
"430 532 OFFCURVE",
"430 358 CURVE SMOOTH",
"430 178 OFFCURVE",
"400 114 OFFCURVE",
"326 114 CURVE SMOOTH",
"251 114 OFFCURVE",
"219 178 OFFCURVE",
"219 353 CURVE SMOOTH",
"219 532 OFFCURVE",
"248 591 OFFCURVE",
"326 591 CURVE SMOOTH"
);
}
);
width = 645;
}
);
unicode = 0030;
},
{
glyphname = one;
layers = (
{
layerId = "9A1863D8-8A35-4672-A3E4-263E374F0942";
name = Bold;
paths = (
{
closed = 1;
nodes = (
"253 705 LINE",
"15 554 LINE",
"74 446 LINE",
"226 543 LINE",
"226 117 LINE",
"87 117 LINE",
"87 0 LINE",
"518 0 LINE",
"518 117 LINE",
"384 117 LINE",
"384 705 LINE"
);
}
);
width = 540;
}
);
unicode = 0031;
},
{
glyphname = two;
layers = (
{
layerId = "9A1863D8-8A35-4672-A3E4-263E374F0942";
name = Bold;
paths = (
{
closed = 1;
nodes = (
"160 718 OFFCURVE",
"47 678 OFFCURVE",
"47 678 CURVE",
"52 492 LINE",
"159 492 LINE",
"169 576 LINE",
"169 576 OFFCURVE",
"208 593 OFFCURVE",
"261 593 CURVE SMOOTH",
"335 593 OFFCURVE",
"377 556 OFFCURVE",
"377 494 CURVE SMOOTH",
"377 397 OFFCURVE",
"253 295 OFFCURVE",
"40 124 CURVE",
"40 0 LINE",
"560 0 LINE",
"560 124 LINE",
"262 124 LINE",
"437 275 OFFCURVE",
"542 379 OFFCURVE",
"542 520 CURVE SMOOTH",
"542 671 OFFCURVE",
"429 718 OFFCURVE",
"268 718 CURVE SMOOTH"
);
}
);
width = 609;
}
);
unicode = 0032;
},
{
glyphname = three;
layers = (
{
layerId = "9A1863D8-8A35-4672-A3E4-263E374F0942";
name = Bold;
paths = (
{
closed = 1;
nodes = (
"161 718 OFFCURVE",
"37 675 OFFCURVE",
"37 675 CURVE",
"42 499 LINE",
"149 499 LINE",
"159 584 LINE",
"159 584 OFFCURVE",
"206 599 OFFCURVE",
"256 599 CURVE SMOOTH",
"325 599 OFFCURVE",
"364 567 OFFCURVE",
"364 514 CURVE SMOOTH",
"364 448 OFFCURVE",
"318 416 OFFCURVE",
"236 416 CURVE SMOOTH",
"153 416 LINE",
"153 309 LINE",
"231 309 LINE SMOOTH",
"323 309 OFFCURVE",
"372 272 OFFCURVE",
"372 213 CURVE SMOOTH",
"372 146 OFFCURVE",
"325 112 OFFCURVE",
"246 112 CURVE SMOOTH",
"158 112 OFFCURVE",
"68 154 OFFCURVE",
"68 154 CURVE",
"25 43 LINE",
"25 43 OFFCURVE",
"118 -13 OFFCURVE",
"246 -13 CURVE SMOOTH",
"389 -13 OFFCURVE",
"534 48 OFFCURVE",
"534 210 CURVE SMOOTH",
"534 285 OFFCURVE",
"479 350 OFFCURVE",
"395 368 CURVE",
"476 390 OFFCURVE",
"519 455 OFFCURVE",
"519 538 CURVE SMOOTH",
"519 657 OFFCURVE",
"430 718 OFFCURVE",
"261 718 CURVE SMOOTH"
);
}
);
width = 595;
}
);
unicode = 0033;
},
{
glyphname = four;
layers = (
{
layerId = "9A1863D8-8A35-4672-A3E4-263E374F0942";
name = Bold;
paths = (
{
closed = 1;
nodes = (
"15 261 LINE",
"30 141 LINE",
"341 141 LINE",
"341 0 LINE",
"497 0 LINE",
"497 141 LINE",
"597 141 LINE",
"597 266 LINE",
"497 266 LINE",
"497 705 LINE",
"328 720 LINE"
);
},
{
closed = 1;
nodes = (
"343 266 LINE",
"167 266 LINE",
"343 526 LINE"
);
}
);
width = 628;
}
);
unicode = 0034;
},
{
glyphname = five;
layers = (
{
layerId = "9A1863D8-8A35-4672-A3E4-263E374F0942";
name = Bold;
paths = (
{
closed = 1;
nodes = (
"74 705 LINE",
"57 316 LINE",
"194 316 LINE SMOOTH",
"300 316 OFFCURVE",
"354 276 OFFCURVE",
"354 213 CURVE SMOOTH",
"354 146 OFFCURVE",
"297 112 OFFCURVE",
"238 112 CURVE SMOOTH",
"151 112 OFFCURVE",
"61 154 OFFCURVE",
"61 154 CURVE",
"17 43 LINE",
"17 43 OFFCURVE",
"118 -13 OFFCURVE",
"254 -13 CURVE SMOOTH",
"393 -13 OFFCURVE",
"519 73 OFFCURVE",
"519 226 CURVE SMOOTH",
"519 348 OFFCURVE",
"417 426 OFFCURVE",
"243 432 CURVE SMOOTH",
"203 433 LINE",
"210 581 LINE",
"483 581 LINE",
"486 705 LINE"
);
}
);
width = 562;
}
);
unicode = 0035;
},
{
glyphname = six;
layers = (
{
layerId = "9A1863D8-8A35-4672-A3E4-263E374F0942";
name = Bold;
paths = (
{
closed = 1;
nodes = (
"172 718 OFFCURVE",
"52 535 OFFCURVE",
"52 295 CURVE SMOOTH",
"52 120 OFFCURVE",
"145 -13 OFFCURVE",
"323 -13 CURVE SMOOTH",
"474 -13 OFFCURVE",
"586 91 OFFCURVE",
"586 231 CURVE SMOOTH",
"586 371 OFFCURVE",
"489 441 OFFCURVE",
"366 441 CURVE SMOOTH",
"282 441 OFFCURVE",
"211 398 OFFCURVE",
"211 398 CURVE",
"211 398 OFFCURVE",
"219 593 OFFCURVE",
"433 593 CURVE SMOOTH",
"481 593 OFFCURVE",
"511 589 OFFCURVE",
"511 589 CURVE",
"518 708 LINE",
"518 708 OFFCURVE",
"486 718 OFFCURVE",
"428 718 CURVE SMOOTH"
);
},
{
closed = 1;
nodes = (
"391 321 OFFCURVE",
"426 282 OFFCURVE",
"426 216 CURVE SMOOTH",
"426 151 OFFCURVE",
"384 112 OFFCURVE",
"321 112 CURVE SMOOTH",
"261 112 OFFCURVE",
"207 155 OFFCURVE",
"207 263 CURVE SMOOTH",
"207 286 LINE",
"207 286 OFFCURVE",
"257 321 OFFCURVE",
"320 321 CURVE SMOOTH"
);
}
);
width = 618;
}
);
unicode = 0036;
},
{
glyphname = seven;
layers = (
{
layerId = "9A1863D8-8A35-4672-A3E4-263E374F0942";
name = Bold;
paths = (
{
closed = 1;
nodes = (
"5 705 LINE",
"5 486 LINE",
"108 486 LINE",
"128 578 LINE",
"346 578 LINE",
"87 0 LINE",
"255 0 LINE",
"517 596 LINE",
"517 705 LINE"
);
}
);
width = 533;
}
);
unicode = 0037;
},
{
glyphname = eight;
layers = (
{
layerId = "9A1863D8-8A35-4672-A3E4-263E374F0942";
name = Bold;
paths = (
{
closed = 1;
nodes = (
"166 718 OFFCURVE",
"68 646 OFFCURVE",
"68 521 CURVE SMOOTH",
"68 439 OFFCURVE",
"114 394 OFFCURVE",
"172 361 CURVE",
"132 341 OFFCURVE",
"45 289 OFFCURVE",
"45 192 CURVE SMOOTH",
"45 74 OFFCURVE",
"131 -13 OFFCURVE",
"299 -13 CURVE SMOOTH",
"465 -13 OFFCURVE",
"575 76 OFFCURVE",
"575 206 CURVE SMOOTH",
"575 299 OFFCURVE",
"517 346 OFFCURVE",
"450 378 CURVE",
"491 398 OFFCURVE",
"558 442 OFFCURVE",
"558 528 CURVE SMOOTH",
"558 638 OFFCURVE",
"477 718 OFFCURVE",
"322 718 CURVE SMOOTH"
);
},
{
closed = 1;
nodes = (
"360 282 OFFCURVE",
"415 257 OFFCURVE",
"415 202 CURVE SMOOTH",
"415 146 OFFCURVE",
"376 112 OFFCURVE",
"309 112 CURVE SMOOTH",
"243 112 OFFCURVE",
"205 143 OFFCURVE",
"205 199 CURVE SMOOTH",
"205 261 OFFCURVE",
"268 294 OFFCURVE",
"296 307 CURVE"
);
},
{
closed = 1;
nodes = (
"369 593 OFFCURVE",
"405 564 OFFCURVE",
"405 521 CURVE SMOOTH",
"405 468 OFFCURVE",
"357 439 OFFCURVE",
"326 426 CURVE",
"269 447 OFFCURVE",
"220 470 OFFCURVE",
"220 521 CURVE SMOOTH",
"220 564 OFFCURVE",
"254 593 OFFCURVE",
"312 593 CURVE SMOOTH"
);
}
);
width = 619;
}
);
unicode = 0038;
},
{
glyphname = nine;
layers = (
{
layerId = "9A1863D8-8A35-4672-A3E4-263E374F0942";
name = Bold;
paths = (
{
closed = 1;
nodes = (
"145 718 OFFCURVE",
"32 617 OFFCURVE",
"32 474 CURVE SMOOTH",
"32 334 OFFCURVE",
"129 264 OFFCURVE",
"252 264 CURVE SMOOTH",
"336 264 OFFCURVE",
"408 305 OFFCURVE",
"408 305 CURVE",
"408 305 OFFCURVE",
"404 112 OFFCURVE",
"185 112 CURVE SMOOTH",
"138 112 OFFCURVE",
"108 116 OFFCURVE",
"108 116 CURVE",
"100 -3 LINE",
"100 -3 OFFCURVE",
"132 -13 OFFCURVE",
"191 -13 CURVE SMOOTH",
"450 -13 OFFCURVE",
"566 170 OFFCURVE",
"566 410 CURVE SMOOTH",
"566 585 OFFCURVE",
"473 718 OFFCURVE",
"296 718 CURVE SMOOTH"
);
},
{
closed = 1;
nodes = (
"358 593 OFFCURVE",
"411 552 OFFCURVE",
"411 446 CURVE SMOOTH",
"411 419 LINE",
"411 419 OFFCURVE",
"361 384 OFFCURVE",
"298 384 CURVE SMOOTH",
"227 384 OFFCURVE",
"192 423 OFFCURVE",
"192 489 CURVE SMOOTH",
"192 554 OFFCURVE",
"234 593 OFFCURVE",
"297 593 CURVE SMOOTH"
);
}
);
width = 618;
}
);
unicode = 0039;
},
{
glyphname = fraction;
layers = (
{
layerId = "9A1863D8-8A35-4672-A3E4-263E374F0942";
name = Bold;
paths = (
{
closed = 1;
nodes = (
"-15 -8 LINE",
"87 -76 LINE",
"627 706 LINE",
"526 774 LINE"
);
}
);
width = 617;
}
);
unicode = 2044;
},
{
glyphname = onehalf;
layers = (
{
layerId = "9A1863D8-8A35-4672-A3E4-263E374F0942";
name = Bold;
paths = (
{
closed = 1;
nodes = (
"666 705 LINE",
"258 0 LINE",
"406 0 LINE",
"814 705 LINE"
);
},
{
closed = 1;
nodes = (
"203 705 LINE",
"45 607 LINE",
"95 522 LINE",
"185 576 LINE",
"185 370 LINE",
"89 370 LINE",
"89 280 LINE",
"394 280 LINE",
"394 370 LINE",
"314 370 LINE",
"314 705 LINE"
);
},
{
closed = 1;
nodes = (
"767 436 OFFCURVE",
"691 411 OFFCURVE",
"691 411 CURVE",
"694 278 LINE",
"780 278 LINE",
"787 330 LINE",
"787 330 OFFCURVE",
"805 337 OFFCURVE",
"829 337 CURVE SMOOTH",
"867 337 OFFCURVE",
"881 321 OFFCURVE",
"881 296 CURVE SMOOTH",
"881 247 OFFCURVE",
"812 196 OFFCURVE",
"688 102 CURVE",
"688 0 LINE",
"1021 0 LINE",
"1021 107 LINE",
"862 107 LINE",
"969 190 OFFCURVE",
"1017 236 OFFCURVE",
"1017 316 CURVE SMOOTH",
"1017 401 OFFCURVE",
"944 436 OFFCURVE",
"839 436 CURVE SMOOTH"
);
}
);
width = 1080;
}
);
unicode = 00BD;
},
{
glyphname = onequarter;
layers = (
{
layerId = "9A1863D8-8A35-4672-A3E4-263E374F0942";
name = Bold;
paths = (
{
closed = 1;
nodes = (
"665 705 LINE",
"257 0 LINE",
"405 0 LINE",
"813 705 LINE"
);
},
{
closed = 1;
nodes = (
"203 705 LINE",
"45 607 LINE",
"95 522 LINE",
"185 576 LINE",
"185 370 LINE",
"89 370 LINE",
"89 280 LINE",
"394 280 LINE",
"394 370 LINE",
"314 370 LINE",
"314 705 LINE"
);
},
{
closed = 1;
nodes = (
"835 171 LINE",
"742 171 LINE",
"835 296 LINE"
);
},
{
closed = 1;
nodes = (
"622 162 LINE",
"636 77 LINE",
"835 77 LINE",
"835 0 LINE",
"965 0 LINE",
"965 77 LINE",
"1022 77 LINE",
"1022 171 LINE",
"965 171 LINE",
"965 413 LINE",
"818 431 LINE"
);
}
);
width = 1077;
}
);
unicode = 00BC;
},
{
glyphname = threequarters;
layers = (
{
layerId = "9A1863D8-8A35-4672-A3E4-263E374F0942";
name = Bold;
paths = (
{
closed = 1;
nodes = (
"647 705 LINE",
"239 0 LINE",
"387 0 LINE",
"795 705 LINE"
);
},
{
closed = 1;
nodes = (
"138 711 OFFCURVE",
"51 688 OFFCURVE",
"51 688 CURVE",
"55 570 LINE",
"138 570 LINE",
"143 611 LINE",
"143 611 OFFCURVE",
"167 617 OFFCURVE",
"195 617 CURVE SMOOTH",
"233 617 OFFCURVE",
"251 603 OFFCURVE",
"251 579 CURVE SMOOTH",
"251 548 OFFCURVE",
"229 530 OFFCURVE",
"182 530 CURVE SMOOTH",
"127 530 LINE",
"127 455 LINE",
"181 455 LINE SMOOTH",
"232 455 OFFCURVE",
"253 440 OFFCURVE",
"253 411 CURVE SMOOTH",
"253 382 OFFCURVE",
"232 365 OFFCURVE",
"186 365 CURVE SMOOTH",
"129 365 OFFCURVE",
"67 391 OFFCURVE",
"67 391 CURVE",
"40 306 LINE",
"40 306 OFFCURVE",
"117 268 OFFCURVE",
"196 268 CURVE SMOOTH",
"298 268 OFFCURVE",
"387 307 OFFCURVE",
"387 403 CURVE SMOOTH",
"387 455 OFFCURVE",
"342 491 OFFCURVE",
"295 500 CURVE",
"342 513 OFFCURVE",
"376 546 OFFCURVE",
"376 601 CURVE SMOOTH",
"376 672 OFFCURVE",
"316 711 OFFCURVE",
"208 711 CURVE SMOOTH"
);
},
{
closed = 1;
nodes = (
"817 171 LINE",
"724 171 LINE",
"817 296 LINE"
);
},
{
closed = 1;
nodes = (
"604 162 LINE",
"618 77 LINE",
"817 77 LINE",
"817 0 LINE",
"947 0 LINE",
"947 77 LINE",
"1004 77 LINE",
"1004 171 LINE",
"947 171 LINE",
"947 413 LINE",
"800 431 LINE"
);
}
);
width = 1059;
}
);
unicode = 00BE;
},
{
glyphname = onesuperior;
layers = (
{
layerId = "9A1863D8-8A35-4672-A3E4-263E374F0942";
name = Bold;
paths = (
{
closed = 1;
nodes = (
"173 705 LINE",
"15 607 LINE",
"65 522 LINE",
"155 576 LINE",
"155 370 LINE",
"59 370 LINE",
"59 280 LINE",
"376 280 LINE",
"376 370 LINE",
"284 370 LINE",
"284 705 LINE"
);
}
);
width = 396;
}
);
unicode = 00B9;
},
{
glyphname = twosuperior;
layers = (
{
layerId = "9A1863D8-8A35-4672-A3E4-263E374F0942";
name = Bold;
paths = (
{
closed = 1;
nodes = (
"112 716 OFFCURVE",
"36 691 OFFCURVE",
"36 691 CURVE",
"39 558 LINE",
"125 558 LINE",
"132 610 LINE",
"132 610 OFFCURVE",
"150 617 OFFCURVE",
"174 617 CURVE SMOOTH",
"212 617 OFFCURVE",
"226 601 OFFCURVE",
"226 576 CURVE SMOOTH",
"226 527 OFFCURVE",
"157 476 OFFCURVE",
"33 382 CURVE",
"33 280 LINE",
"366 280 LINE",
"366 387 LINE",
"207 387 LINE",
"314 470 OFFCURVE",
"362 516 OFFCURVE",
"362 596 CURVE SMOOTH",
"362 681 OFFCURVE",
"289 716 OFFCURVE",
"184 716 CURVE SMOOTH"
);
}
);
width = 405;
}
);
unicode = 00B2;
},
{
glyphname = threesuperior;
layers = (
{
layerId = "9A1863D8-8A35-4672-A3E4-263E374F0942";
name = Bold;
paths = (
{
closed = 1;
nodes = (
"115 716 OFFCURVE",
"28 692 OFFCURVE",
"28 692 CURVE",
"32 574 LINE",
"115 574 LINE",
"120 615 LINE",
"120 615 OFFCURVE",
"144 622 OFFCURVE",
"172 622 CURVE SMOOTH",
"210 622 OFFCURVE",
"228 607 OFFCURVE",
"228 583 CURVE SMOOTH",
"228 552 OFFCURVE",
"206 535 OFFCURVE",
"159 535 CURVE SMOOTH",
"104 535 LINE",
"104 459 LINE",
"158 459 LINE SMOOTH",
"209 459 OFFCURVE",
"230 444 OFFCURVE",
"230 415 CURVE SMOOTH",
"230 386 OFFCURVE",
"209 369 OFFCURVE",
"163 369 CURVE SMOOTH",
"106 369 OFFCURVE",
"44 395 OFFCURVE",
"44 395 CURVE",
"17 310 LINE",
"17 310 OFFCURVE",
"94 272 OFFCURVE",
"173 272 CURVE SMOOTH",
"275 272 OFFCURVE",
"364 311 OFFCURVE",
"364 407 CURVE SMOOTH",
"364 459 OFFCURVE",
"319 496 OFFCURVE",
"272 504 CURVE",
"319 517 OFFCURVE",
"353 550 OFFCURVE",
"353 605 CURVE SMOOTH",
"353 677 OFFCURVE",
"293 716 OFFCURVE",
"185 716 CURVE SMOOTH"
);
}
);
width = 396;
}
);
unicode = 00B3;
},
{
glyphname = asterisk;
layers = (
{
layerId = "9A1863D8-8A35-4672-A3E4-263E374F0942";
name = Bold;
paths = (
{
closed = 1;
nodes = (
"152 737 LINE",
"167 617 LINE",
"52 663 LINE",
"22 572 LINE",
"146 552 LINE",
"64 454 LINE",
"141 400 LINE",
"201 510 LINE",
"191 555 LINE",
"146 552 LINE",
"185 574 LINE",
"167 617 LINE",
"201 588 LINE",
"237 616 LINE",
"220 576 LINE",
"258 550 LINE",
"212 555 LINE",
"201 510 LINE",
"266 399 LINE",
"340 455 LINE",
"258 550 LINE",
"380 574 LINE",
"348 665 LINE",
"237 616 LINE",
"247 739 LINE"
);
}
);
width = 415;
}
);
unicode = 002A;
},
{
glyphname = backslash;
layers = (
{
layerId = "9A1863D8-8A35-4672-A3E4-263E374F0942";
name = Bold;
paths = (
{
closed = 1;
nodes = (
"6 705 LINE",
"340 0 LINE",
"495 0 LINE",
"161 705 LINE"
);
}
);
width = 506;
}
);
unicode = 005C;
},
{
glyphname = bullet;
layers = (
{
layerId = "9A1863D8-8A35-4672-A3E4-263E374F0942";
name = Bold;
paths = (
{
closed = 1;
nodes = (
"166 506 OFFCURVE",
"80 420 OFFCURVE",
"80 315 CURVE SMOOTH",
"80 210 OFFCURVE",
"166 124 OFFCURVE",
"271 124 CURVE SMOOTH",
"375 124 OFFCURVE",
"461 210 OFFCURVE",
"461 315 CURVE SMOOTH",
"461 420 OFFCURVE",
"375 506 OFFCURVE",
"271 506 CURVE SMOOTH"
);
}
);
width = 545;
}
);
unicode = 2022;
},
{
glyphname = colon;
layers = (
{
layerId = "9A1863D8-8A35-4672-A3E4-263E374F0942";
name = Bold;
paths = (
{
closed = 1;
nodes = (
"109 470 OFFCURVE",
"67 436 OFFCURVE",
"67 378 CURVE SMOOTH",
"67 320 OFFCURVE",
"96 287 OFFCURVE",
"152 287 CURVE SMOOTH",
"198 287 OFFCURVE",
"239 320 OFFCURVE",
"239 378 CURVE SMOOTH",
"239 436 OFFCURVE",
"210 470 OFFCURVE",
"155 470 CURVE SMOOTH"
);
},
{
closed = 1;
nodes = (
"109 171 OFFCURVE",
"67 137 OFFCURVE",
"67 79 CURVE SMOOTH",
"67 21 OFFCURVE",
"96 -13 OFFCURVE",
"152 -13 CURVE SMOOTH",
"198 -13 OFFCURVE",
"239 21 OFFCURVE",
"239 79 CURVE SMOOTH",
"239 137 OFFCURVE",
"210 171 OFFCURVE",
"155 171 CURVE SMOOTH"
);
}
);
width = 306;
}
);
leftKerningGroup = colon;
rightKerningGroup = colon;
unicode = 003A;
},
{
glyphname = comma;
layers = (
{
layerId = "9A1863D8-8A35-4672-A3E4-263E374F0942";
name = Bold;
paths = (
{
closed = 1;
nodes = (
"107 171 OFFCURVE",
"71 135 OFFCURVE",
"71 83 CURVE SMOOTH",
"71 35 OFFCURVE",
"100 15 OFFCURVE",
"100 -13 CURVE SMOOTH",
"100 -51 OFFCURVE",
"40 -134 OFFCURVE",
"40 -134 CURVE",
"104 -186 LINE",
"196 -83 OFFCURVE",
"243 4 OFFCURVE",
"243 75 CURVE SMOOTH",
"243 139 OFFCURVE",
"207 171 OFFCURVE",
"157 171 CURVE SMOOTH"
);
}
);
width = 306;
}
);
leftKerningGroup = period;
rightKerningGroup = period;
unicode = 002C;
},
{
glyphname = ellipsis;
layers = (
{
layerId = "9A1863D8-8A35-4672-A3E4-263E374F0942";
name = Bold;
paths = (
{
closed = 1;
nodes = (
"601 171 OFFCURVE",
"559 137 OFFCURVE",
"559 79 CURVE SMOOTH",
"559 21 OFFCURVE",
"588 -13 OFFCURVE",
"644 -13 CURVE SMOOTH",
"690 -13 OFFCURVE",
"731 21 OFFCURVE",
"731 79 CURVE SMOOTH",
"731 137 OFFCURVE",
"702 171 OFFCURVE",
"647 171 CURVE SMOOTH"
);
},
{
closed = 1;
nodes = (
"94 171 OFFCURVE",
"52 137 OFFCURVE",
"52 79 CURVE SMOOTH",
"52 21 OFFCURVE",
"81 -13 OFFCURVE",
"137 -13 CURVE SMOOTH",
"183 -13 OFFCURVE",
"224 21 OFFCURVE",
"224 79 CURVE SMOOTH",
"224 137 OFFCURVE",
"195 171 OFFCURVE",
"140 171 CURVE SMOOTH"
);
},
{
closed = 1;
nodes = (
"348 171 OFFCURVE",
"306 137 OFFCURVE",
"306 79 CURVE SMOOTH",
"306 21 OFFCURVE",
"335 -13 OFFCURVE",
"391 -13 CURVE SMOOTH",
"437 -13 OFFCURVE",
"478 21 OFFCURVE",
"478 79 CURVE SMOOTH",
"478 137 OFFCURVE",
"449 171 OFFCURVE",
"394 171 CURVE SMOOTH"
);
}
);
width = 783;
}
);
unicode = 2026;
},
{
glyphname = exclam;
layers = (
{
layerId = "9A1863D8-8A35-4672-A3E4-263E374F0942";
name = Bold;
paths = (
{
closed = 1;
nodes = (
"90 766 LINE",
"109 257 LINE",
"231 262 LINE",
"249 766 LINE"
);
},
{
closed = 1;
nodes = (
"126 171 OFFCURVE",
"84 137 OFFCURVE",
"84 79 CURVE SMOOTH",
"84 21 OFFCURVE",
"113 -13 OFFCURVE",
"168 -13 CURVE SMOOTH",
"214 -13 OFFCURVE",
"256 21 OFFCURVE",
"256 79 CURVE SMOOTH",
"256 137 OFFCURVE",
"227 171 OFFCURVE",
"171 171 CURVE SMOOTH"
);
}
);
width = 341;
}
);
unicode = 0021;
},
{
glyphname = exclamdown;
layers = (
{
layerId = "9A1863D8-8A35-4672-A3E4-263E374F0942";
name = Bold;
paths = (
{
closed = 1;
nodes = (
"110 283 LINE",
"92 -221 LINE",
"251 -221 LINE",
"232 288 LINE"
);
},
{
closed = 1;
nodes = (
"124 558 OFFCURVE",
"82 524 OFFCURVE",
"82 466 CURVE SMOOTH",
"82 408 OFFCURVE",
"111 375 OFFCURVE",
"167 375 CURVE SMOOTH",
"213 375 OFFCURVE",
"254 408 OFFCURVE",
"254 466 CURVE SMOOTH",
"254 524 OFFCURVE",
"225 558 OFFCURVE",
"170 558 CURVE SMOOTH"
);
}
);
width = 339;
}
);
unicode = 00A1;
},
{
glyphname = numbersign;
layers = (
{
layerId = "9A1863D8-8A35-4672-A3E4-263E374F0942";
name = Bold;
paths = (
{
closed = 1;
nodes = (
"467 600 LINE",
"450 471 LINE",
"326 471 LINE",
"343 600 LINE",
"213 600 LINE",
"196 471 LINE",
"85 471 LINE",
"85 367 LINE",
"182 367 LINE",
"166 244 LINE",
"60 244 LINE",
"60 140 LINE",
"152 140 LINE",
"134 0 LINE",
"263 0 LINE",
"282 140 LINE",
"406 140 LINE",
"388 0 LINE",
"517 0 LINE",
"536 140 LINE",
"648 140 LINE",
"648 244 LINE",
"549 244 LINE",
"566 367 LINE",
"673 367 LINE",
"673 471 LINE",
"580 471 LINE",
"597 600 LINE"
);
},
{
closed = 1;
nodes = (
"419 244 LINE",
"295 244 LINE",
"311 367 LINE",
"436 367 LINE"
);
}
);
width = 732;
}
);
unicode = 0023;
},
{
glyphname = period;
layers = (
{
layerId = "9A1863D8-8A35-4672-A3E4-263E374F0942";
name = Bold;
paths = (
{
closed = 1;
nodes = (
"107 171 OFFCURVE",
"65 137 OFFCURVE",
"65 79 CURVE SMOOTH",
"65 21 OFFCURVE",
"94 -13 OFFCURVE",
"150 -13 CURVE SMOOTH",
"196 -13 OFFCURVE",
"237 21 OFFCURVE",
"237 79 CURVE SMOOTH",
"237 137 OFFCURVE",
"208 171 OFFCURVE",
"153 171 CURVE SMOOTH"
);
}
);
width = 302;
}
);
leftKerningGroup = period;
rightKerningGroup = period;
unicode = 002E;
},
{
glyphname = periodcentered;
layers = (
{
layerId = "9A1863D8-8A35-4672-A3E4-263E374F0942";
name = Bold;
paths = (
{
closed = 1;
nodes = (
"101 401 OFFCURVE",
"62 368 OFFCURVE",
"62 307 CURVE SMOOTH",
"62 245 OFFCURVE",
"91 212 OFFCURVE",
"150 212 CURVE SMOOTH",
"202 212 OFFCURVE",
"240 245 OFFCURVE",
"240 307 CURVE SMOOTH",
"240 368 OFFCURVE",
"212 401 OFFCURVE",
"153 401 CURVE SMOOTH"
);
}
);
width = 303;
}
);
unicode = 00B7;
},
{
glyphname = question;
layers = (
{
layerId = "9A1863D8-8A35-4672-A3E4-263E374F0942";
name = Bold;
paths = (
{
closed = 1;
nodes = (
"148 771 OFFCURVE",
"64 747 OFFCURVE",
"64 747 CURVE",
"83 641 LINE",
"83 641 OFFCURVE",
"129 652 OFFCURVE",
"171 652 CURVE SMOOTH",
"230 652 OFFCURVE",
"261 631 OFFCURVE",
"261 586 CURVE SMOOTH",
"261 495 OFFCURVE",
"92 444 OFFCURVE",
"92 347 CURVE SMOOTH",
"92 313 OFFCURVE",
"101 249 OFFCURVE",
"101 249 CURVE",
"236 255 LINE",
"236 255 OFFCURVE",
"234 289 OFFCURVE",
"234 312 CURVE SMOOTH",
"234 405 OFFCURVE",
"414 462 OFFCURVE",
"414 616 CURVE SMOOTH",
"414 734 OFFCURVE",
"314 771 OFFCURVE",
"214 771 CURVE SMOOTH"
);
},
{
closed = 1;
nodes = (
"134 171 OFFCURVE",
"92 137 OFFCURVE",
"92 79 CURVE SMOOTH",
"92 21 OFFCURVE",
"121 -13 OFFCURVE",
"176 -13 CURVE SMOOTH",
"222 -13 OFFCURVE",
"264 21 OFFCURVE",
"264 79 CURVE SMOOTH",
"264 137 OFFCURVE",
"235 171 OFFCURVE",
"179 171 CURVE SMOOTH"
);
}
);
width = 463;
}
);
unicode = 003F;
},
{
glyphname = questiondown;
layers = (
{
layerId = "9A1863D8-8A35-4672-A3E4-263E374F0942";
name = Bold;
paths = (
{
closed = 1;
nodes = (
"227 290 LINE",
"227 290 OFFCURVE",
"229 256 OFFCURVE",
"229 233 CURVE SMOOTH",
"229 140 OFFCURVE",
"49 83 OFFCURVE",
"49 -71 CURVE SMOOTH",
"49 -189 OFFCURVE",
"149 -226 OFFCURVE",
"249 -226 CURVE SMOOTH",
"315 -226 OFFCURVE",
"399 -202 OFFCURVE",
"399 -202 CURVE",
"380 -96 LINE",
"380 -96 OFFCURVE",
"334 -107 OFFCURVE",
"292 -107 CURVE SMOOTH",
"233 -107 OFFCURVE",
"202 -87 OFFCURVE",
"202 -42 CURVE SMOOTH",
"202 49 OFFCURVE",
"370 101 OFFCURVE",
"370 198 CURVE SMOOTH",
"370 232 OFFCURVE",
"361 296 OFFCURVE",
"361 296 CURVE"
);
},
{
closed = 1;
nodes = (
"241 557 OFFCURVE",
"199 524 OFFCURVE",
"199 466 CURVE SMOOTH",
"199 408 OFFCURVE",
"228 374 OFFCURVE",
"284 374 CURVE SMOOTH",
"330 374 OFFCURVE",
"371 408 OFFCURVE",
"371 466 CURVE SMOOTH",
"371 524 OFFCURVE",
"342 557 OFFCURVE",
"287 557 CURVE SMOOTH"
);
}
);
width = 461;
}
);
unicode = 00BF;
},
{
glyphname = quotedbl;
layers = (
{
layerId = "9A1863D8-8A35-4672-A3E4-263E374F0942";
name = Bold;
paths = (
{
closed = 1;
nodes = (
"260 783 LINE",
"260 499 LINE",
"374 499 LINE",
"398 783 LINE"
);
},
{
closed = 1;
nodes = (
"57 783 LINE",
"57 499 LINE",
"171 499 LINE",
"194 783 LINE"
);
}
);
width = 444;
}
);
leftKerningGroup = quotesingle;
rightKerningGroup = quotesingle;
unicode = 0022;
},
{
glyphname = quotesingle;
layers = (
{
layerId = "9A1863D8-8A35-4672-A3E4-263E374F0942";
name = Bold;
paths = (
{
closed = 1;
nodes = (
"52 783 LINE",
"52 499 LINE",
"166 499 LINE",
"189 783 LINE"
);
}
);
width = 237;
}
);
leftKerningGroup = quotesingle;
rightKerningGroup = quotesingle;
unicode = 0027;
},
{
glyphname = semicolon;
layers = (
{
layerId = "9A1863D8-8A35-4672-A3E4-263E374F0942";
name = Bold;
paths = (
{
closed = 1;
nodes = (
"111 171 OFFCURVE",
"73 135 OFFCURVE",
"73 80 CURVE SMOOTH",
"73 32 OFFCURVE",
"102 15 OFFCURVE",
"102 -13 CURVE SMOOTH",
"102 -53 OFFCURVE",
"42 -134 OFFCURVE",
"42 -134 CURVE",
"106 -186 LINE",
"200 -85 OFFCURVE",
"245 1 OFFCURVE",
"245 77 CURVE SMOOTH",
"245 138 OFFCURVE",
"211 171 OFFCURVE",
"161 171 CURVE SMOOTH"
);
},
{
closed = 1;
nodes = (
"115 470 OFFCURVE",
"73 436 OFFCURVE",
"73 378 CURVE SMOOTH",
"73 320 OFFCURVE",
"102 287 OFFCURVE",
"158 287 CURVE SMOOTH",
"204 287 OFFCURVE",
"245 320 OFFCURVE",
"245 378 CURVE SMOOTH",
"245 436 OFFCURVE",
"216 470 OFFCURVE",
"161 470 CURVE SMOOTH"
);
}
);
width = 313;
}
);
leftKerningGroup = colon;
rightKerningGroup = colon;
unicode = 003B;
},
{
glyphname = slash;
layers = (
{
layerId = "9A1863D8-8A35-4672-A3E4-263E374F0942";
name = Bold;
paths = (
{
closed = 1;
nodes = (
"353 705 LINE",
"19 0 LINE",
"174 0 LINE",
"508 705 LINE"
);
}
);
width = 517;
}
);
unicode = 002F;
},
{
glyphname = underscore;
layers = (
{
layerId = "9A1863D8-8A35-4672-A3E4-263E374F0942";
name = Bold;
paths = (
{
closed = 1;
nodes = (
"-1 -80 LINE",
"-1 -182 LINE",
"501 -182 LINE",
"501 -80 LINE"
);
}
);
width = 500;
}
);
leftKerningGroup = period;
rightKerningGroup = period;
unicode = 005F;
},
{
glyphname = braceleft;
layers = (
{
layerId = "9A1863D8-8A35-4672-A3E4-263E374F0942";
name = Bold;
paths = (
{
closed = 1;
nodes = (
"308 775 LINE SMOOTH",
"185 775 OFFCURVE",
"125 719 OFFCURVE",
"125 589 CURVE SMOOTH",
"125 450 LINE SMOOTH",
"125 390 OFFCURVE",
"105 346 OFFCURVE",
"30 346 CURVE",
"30 244 LINE",
"105 244 OFFCURVE",
"125 200 OFFCURVE",
"125 140 CURVE SMOOTH",
"125 -39 LINE SMOOTH",
"125 -169 OFFCURVE",
"186 -225 OFFCURVE",
"308 -225 CURVE SMOOTH",
"376 -225 LINE",
"376 -121 LINE",
"281 -121 OFFCURVE",
"255 -98 OFFCURVE",
"255 -18 CURVE SMOOTH",
"255 153 LINE SMOOTH",
"255 226 OFFCURVE",
"222 272 OFFCURVE",
"163 295 CURVE",
"222 318 OFFCURVE",
"255 364 OFFCURVE",
"255 437 CURVE",
"255 568 LINE SMOOTH",
"255 648 OFFCURVE",
"281 671 OFFCURVE",
"376 671 CURVE",
"376 775 LINE"
);
}
);
width = 406;
}
);
unicode = 007B;
},
{
glyphname = braceright;
layers = (
{
layerId = "9A1863D8-8A35-4672-A3E4-263E374F0942";
name = Bold;
paths = (
{
closed = 1;
nodes = (
"40 775 LINE",
"40 671 LINE",
"135 671 OFFCURVE",
"160 648 OFFCURVE",
"160 568 CURVE SMOOTH",
"160 437 LINE SMOOTH",
"160 364 OFFCURVE",
"194 318 OFFCURVE",
"253 295 CURVE",
"194 272 OFFCURVE",
"160 226 OFFCURVE",
"160 153 CURVE SMOOTH",
"160 -18 LINE SMOOTH",
"160 -98 OFFCURVE",
"135 -121 OFFCURVE",
"40 -121 CURVE",
"40 -225 LINE",
"108 -225 LINE SMOOTH",
"230 -225 OFFCURVE",
"291 -169 OFFCURVE",
"291 -39 CURVE SMOOTH",
"291 140 LINE SMOOTH",
"291 200 OFFCURVE",
"311 244 OFFCURVE",
"386 244 CURVE",
"386 346 LINE",
"311 346 OFFCURVE",
"291 390 OFFCURVE",
"291 450 CURVE SMOOTH",
"291 589 LINE SMOOTH",
"291 719 OFFCURVE",
"231 775 OFFCURVE",
"108 775 CURVE SMOOTH"
);
}
);
width = 411;
}
);
unicode = 007D;
},
{
glyphname = bracketleft;
layers = (
{
layerId = "9A1863D8-8A35-4672-A3E4-263E374F0942";
name = Bold;
paths = (
{
closed = 1;
nodes = (
"66 -230 LINE",
"318 -225 LINE",
"318 -121 LINE",
"198 -110 LINE",
"198 650 LINE",
"318 661 LINE",
"318 765 LINE",
"66 770 LINE"
);
}
);
width = 353;
}
);
leftKerningGroup = parenthesis;
rightKerningGroup = parenthesis;
unicode = 005B;
},
{
glyphname = bracketright;
layers = (
{
layerId = "9A1863D8-8A35-4672-A3E4-263E374F0942";
name = Bold;
paths = (
{
closed = 1;
nodes = (
"32 765 LINE",
"32 661 LINE",
"152 650 LINE",
"152 -110 LINE",
"32 -121 LINE",
"32 -225 LINE",
"284 -230 LINE",
"284 770 LINE"
);
}
);
width = 353;
}
);
leftKerningGroup = parenthesis;
rightKerningGroup = parenthesis;
unicode = 005D;
},
{
glyphname = parenleft;
layers = (
{
layerId = "9A1863D8-8A35-4672-A3E4-263E374F0942";
name = Bold;
paths = (
{
closed = 1;
nodes = (
"219 770 LINE",
"109 610 OFFCURVE",
"53 471 OFFCURVE",
"53 280 CURVE SMOOTH",
"53 76 OFFCURVE",
"106 -70 OFFCURVE",
"219 -230 CURVE",
"350 -230 LINE",
"253 -90 OFFCURVE",
"195 111 OFFCURVE",
"195 282 CURVE SMOOTH",
"195 441 OFFCURVE",
"256 625 OFFCURVE",
"351 770 CURVE"
);
}
);
width = 354;
}
);
leftKerningGroup = parenthesis;
rightKerningGroup = parenthesis;
unicode = 0028;
},
{
glyphname = parenright;
layers = (
{
layerId = "9A1863D8-8A35-4672-A3E4-263E374F0942";
name = Bold;
paths = (
{
closed = 1;
nodes = (
"-1 770 LINE",
"94 625 OFFCURVE",
"155 441 OFFCURVE",
"155 282 CURVE SMOOTH",
"155 111 OFFCURVE",
"97 -90 OFFCURVE",
"0 -230 CURVE",
"131 -230 LINE",
"245 -70 OFFCURVE",
"297 76 OFFCURVE",
"297 280 CURVE SMOOTH",
"297 471 OFFCURVE",
"241 610 OFFCURVE",
"131 770 CURVE"
);
}
);
width = 352;
}
);
leftKerningGroup = parenthesis;
rightKerningGroup = parenthesis;
unicode = 0029;
},
{
glyphname = emdash;
layers = (
{
layerId = "9A1863D8-8A35-4672-A3E4-263E374F0942";
name = Bold;
paths = (
{
closed = 1;
nodes = (
"0 386 LINE",
"0 267 LINE",
"970 267 LINE",
"970 386 LINE"
);
}
);
width = 970;
}
);
leftKerningGroup = hyphen;
rightKerningGroup = hyphen;
unicode = 2014;
},
{
glyphname = endash;
layers = (
{
layerId = "9A1863D8-8A35-4672-A3E4-263E374F0942";
name = Bold;
paths = (
{
closed = 1;
nodes = (
"0 386 LINE",
"0 267 LINE",
"500 267 LINE",
"500 386 LINE"
);
}
);
width = 500;
}
);
leftKerningGroup = hyphen;
rightKerningGroup = hyphen;
unicode = 2013;
},
{
glyphname = hyphen;
layers = (
{
layerId = "9A1863D8-8A35-4672-A3E4-263E374F0942";
name = Bold;
paths = (
{
closed = 1;
nodes = (
"57 336 LINE",
"57 209 LINE",
"341 209 LINE",
"341 336 LINE"
);
}
);
width = 396;
}
);
leftKerningGroup = hyphen;
rightKerningGroup = hyphen;
unicode = 002D;
},
{
glyphname = guillemotleft;
layers = (
{
layerId = "9A1863D8-8A35-4672-A3E4-263E374F0942";
name = Bold;
paths = (
{
closed = 1;
nodes = (
"307 304 LINE",
"307 226 LINE",
"464 48 LINE",
"548 104 LINE",
"435 265 LINE",
"548 426 LINE",
"464 482 LINE"
);
},
{
closed = 1;
nodes = (
"55 304 LINE",
"55 226 LINE",
"208 48 LINE",
"292 104 LINE",
"183 265 LINE",
"292 426 LINE",
"208 482 LINE"
);
}
);
width = 603;
}
);
unicode = 00AB;
},
{
glyphname = guillemotright;
layers = (
{
layerId = "9A1863D8-8A35-4672-A3E4-263E374F0942";
name = Bold;
paths = (
{
closed = 1;
nodes = (
"55 426 LINE",
"168 265 LINE",
"55 104 LINE",
"139 48 LINE",
"296 226 LINE",
"296 304 LINE",
"139 482 LINE"
);
},
{
closed = 1;
nodes = (
"311 426 LINE",
"420 265 LINE",
"311 104 LINE",
"395 48 LINE",
"548 226 LINE",
"548 304 LINE",
"395 482 LINE"
);
}
);
width = 603;
}
);
unicode = 00BB;
},
{
glyphname = guilsinglleft;
layers = (
{
layerId = "9A1863D8-8A35-4672-A3E4-263E374F0942";
name = Bold;
paths = (
{
closed = 1;
nodes = (
"50 304 LINE",
"50 226 LINE",
"207 48 LINE",
"291 104 LINE",
"178 265 LINE",
"291 426 LINE",
"207 482 LINE"
);
}
);
width = 341;
}
);
leftKerningGroup = guillemotleft;
unicode = 2039;
},
{
glyphname = guilsinglright;
layers = (
{
layerId = "9A1863D8-8A35-4672-A3E4-263E374F0942";
name = Bold;
paths = (
{
closed = 1;
nodes = (
"55 426 LINE",
"168 265 LINE",
"55 104 LINE",
"139 48 LINE",
"296 226 LINE",
"296 304 LINE",
"139 482 LINE"
);
}
);
width = 341;
}
);
rightKerningGroup = guillemotright;
unicode = 203A;
},
{
glyphname = quotedblbase;
layers = (
{
layerId = "9A1863D8-8A35-4672-A3E4-263E374F0942";
name = Bold;
paths = (
{
closed = 1;
nodes = (
"351 145 OFFCURVE",
"313 110 OFFCURVE",
"313 55 CURVE SMOOTH",
"313 7 OFFCURVE",
"342 -10 OFFCURVE",
"342 -38 CURVE SMOOTH",
"342 -79 OFFCURVE",
"282 -159 OFFCURVE",
"282 -159 CURVE",
"346 -211 LINE",
"440 -110 OFFCURVE",
"485 -25 OFFCURVE",
"485 52 CURVE SMOOTH",
"485 113 OFFCURVE",
"451 145 OFFCURVE",
"401 145 CURVE SMOOTH"
);
},
{
closed = 1;
nodes = (
"116 145 OFFCURVE",
"78 110 OFFCURVE",
"78 55 CURVE SMOOTH",
"78 7 OFFCURVE",
"107 -10 OFFCURVE",
"107 -38 CURVE SMOOTH",
"107 -79 OFFCURVE",
"47 -159 OFFCURVE",
"47 -159 CURVE",
"111 -211 LINE",
"205 -110 OFFCURVE",
"250 -25 OFFCURVE",
"250 52 CURVE SMOOTH",
"250 113 OFFCURVE",
"216 145 OFFCURVE",
"166 145 CURVE SMOOTH"
);
}
);
width = 547;
}
);
leftKerningGroup = period;
rightKerningGroup = period;
unicode = 201E;
},
{
glyphname = quotedblleft;
layers = (
{
layerId = "9A1863D8-8A35-4672-A3E4-263E374F0942";
name = Bold;
paths = (
{
closed = 1;
nodes = (
"342 687 OFFCURVE",
"297 601 OFFCURVE",
"297 525 CURVE SMOOTH",
"297 464 OFFCURVE",
"331 431 OFFCURVE",
"381 431 CURVE SMOOTH",
"432 431 OFFCURVE",
"469 467 OFFCURVE",
"469 521 CURVE SMOOTH",
"469 570 OFFCURVE",
"440 587 OFFCURVE",
"440 614 CURVE SMOOTH",
"440 655 OFFCURVE",
"500 736 OFFCURVE",
"500 736 CURVE",
"436 788 LINE"
);
},
{
closed = 1;
nodes = (
"107 687 OFFCURVE",
"62 601 OFFCURVE",
"62 525 CURVE SMOOTH",
"62 464 OFFCURVE",
"96 431 OFFCURVE",
"146 431 CURVE SMOOTH",
"197 431 OFFCURVE",
"234 467 OFFCURVE",
"234 521 CURVE SMOOTH",
"234 570 OFFCURVE",
"205 587 OFFCURVE",
"205 614 CURVE SMOOTH",
"205 655 OFFCURVE",
"265 736 OFFCURVE",
"265 736 CURVE",
"201 788 LINE"
);
}
);
width = 547;
}
);
leftKerningGroup = quotesingle;
rightKerningGroup = quotesingle;
unicode = 201C;
},
{
glyphname = quotedblright;
layers = (
{
layerId = "9A1863D8-8A35-4672-A3E4-263E374F0942";
name = Bold;
paths = (
{
closed = 1;
nodes = (
"351 788 OFFCURVE",
"313 753 OFFCURVE",
"313 698 CURVE SMOOTH",
"313 650 OFFCURVE",
"342 633 OFFCURVE",
"342 605 CURVE SMOOTH",
"342 564 OFFCURVE",
"282 483 OFFCURVE",
"282 483 CURVE",
"346 431 LINE",
"440 533 OFFCURVE",
"485 618 OFFCURVE",
"485 694 CURVE SMOOTH",
"485 755 OFFCURVE",
"451 788 OFFCURVE",
"401 788 CURVE SMOOTH"
);
},
{
closed = 1;
nodes = (
"116 788 OFFCURVE",
"78 753 OFFCURVE",
"78 698 CURVE SMOOTH",
"78 650 OFFCURVE",
"107 633 OFFCURVE",
"107 605 CURVE SMOOTH",
"107 564 OFFCURVE",
"47 483 OFFCURVE",
"47 483 CURVE",
"111 431 LINE",
"205 533 OFFCURVE",
"250 618 OFFCURVE",
"250 694 CURVE SMOOTH",
"250 755 OFFCURVE",
"216 788 OFFCURVE",
"166 788 CURVE SMOOTH"
);
}
);
width = 547;
}
);
leftKerningGroup = quotesingle;
rightKerningGroup = quotesingle;
unicode = 201D;
},
{
glyphname = quoteleft;
layers = (
{
layerId = "9A1863D8-8A35-4672-A3E4-263E374F0942";
name = Bold;
paths = (
{
closed = 1;
nodes = (
"107 687 OFFCURVE",
"62 601 OFFCURVE",
"62 525 CURVE SMOOTH",
"62 464 OFFCURVE",
"96 431 OFFCURVE",
"146 431 CURVE SMOOTH",
"197 431 OFFCURVE",
"234 467 OFFCURVE",
"234 521 CURVE SMOOTH",
"234 570 OFFCURVE",
"205 587 OFFCURVE",
"205 614 CURVE SMOOTH",
"205 655 OFFCURVE",
"265 736 OFFCURVE",
"265 736 CURVE",
"201 788 LINE"
);
}
);
width = 313;
}
);
leftKerningGroup = quotesingle;
rightKerningGroup = quotesingle;
unicode = 2018;
},
{
glyphname = quoteright;
layers = (
{
layerId = "9A1863D8-8A35-4672-A3E4-263E374F0942";
name = Bold;
paths = (
{
closed = 1;
nodes = (
"116 788 OFFCURVE",
"78 753 OFFCURVE",
"78 698 CURVE SMOOTH",
"78 650 OFFCURVE",
"107 633 OFFCURVE",
"107 605 CURVE SMOOTH",
"107 564 OFFCURVE",
"47 483 OFFCURVE",
"47 483 CURVE",
"111 431 LINE",
"205 533 OFFCURVE",
"250 618 OFFCURVE",
"250 694 CURVE SMOOTH",
"250 755 OFFCURVE",
"216 788 OFFCURVE",
"166 788 CURVE SMOOTH"
);
}
);
width = 313;
}
);
leftKerningGroup = quotesingle;
rightKerningGroup = quotesingle;
unicode = 2019;
},
{
glyphname = quotesinglbase;
layers = (
{
layerId = "9A1863D8-8A35-4672-A3E4-263E374F0942";
name = Bold;
paths = (
{
closed = 1;
nodes = (
"116 145 OFFCURVE",
"78 110 OFFCURVE",
"78 55 CURVE SMOOTH",
"78 7 OFFCURVE",
"107 -10 OFFCURVE",
"107 -38 CURVE SMOOTH",
"107 -79 OFFCURVE",
"47 -159 OFFCURVE",
"47 -159 CURVE",
"111 -211 LINE",
"205 -110 OFFCURVE",
"250 -25 OFFCURVE",
"250 52 CURVE SMOOTH",
"250 113 OFFCURVE",
"216 145 OFFCURVE",
"166 145 CURVE SMOOTH"
);
}
);
width = 313;
}
);
leftKerningGroup = period;
rightKerningGroup = period;
unicode = 201A;
},
{
glyphname = florin;
layers = (
{
layerId = "9A1863D8-8A35-4672-A3E4-263E374F0942";
name = Bold;
paths = (
{
closed = 1;
nodes = (
"210 780 OFFCURVE",
"138 704 OFFCURVE",
"128 585 CURVE SMOOTH",
"117 466 LINE",
"27 451 LINE",
"26 364 LINE",
"108 364 LINE",
"76 5 LINE SMOOTH",
"71 -55 OFFCURVE",
"55 -88 OFFCURVE",
"-5 -88 CURVE SMOOTH",
"-55 -88 LINE",
"-68 -194 LINE",
"-68 -194 OFFCURVE",
"-21 -200 OFFCURVE",
"10 -200 CURVE SMOOTH",
"141 -200 OFFCURVE",
"217 -123 OFFCURVE",
"227 -3 CURVE SMOOTH",
"260 364 LINE",
"399 364 LINE",
"402 466 LINE",
"268 466 LINE",
"278 579 LINE SMOOTH",
"283 641 OFFCURVE",
"302 668 OFFCURVE",
"364 668 CURVE SMOOTH",
"431 668 LINE",
"441 774 LINE",
"441 774 OFFCURVE",
"381 780 OFFCURVE",
"346 780 CURVE SMOOTH"
);
}
);
width = 440;
}
);
unicode = 0192;
},
{
glyphname = cent;
layers = (
{
layerId = "9A1863D8-8A35-4672-A3E4-263E374F0942";
name = Bold;
paths = (
{
closed = 1;
nodes = (
"222 705 LINE",
"222 608 LINE",
"101 582 OFFCURVE",
"38 488 OFFCURVE",
"38 353 CURVE SMOOTH",
"38 222 OFFCURVE",
"103 132 OFFCURVE",
"222 110 CURVE",
"222 0 LINE",
"332 0 LINE",
"332 108 LINE",
"409 120 OFFCURVE",
"467 167 OFFCURVE",
"486 183 CURVE",
"436 263 LINE",
"406 245 OFFCURVE",
"366 217 OFFCURVE",
"304 217 CURVE SMOOTH",
"223 217 OFFCURVE",
"187 272 OFFCURVE",
"187 373 CURVE SMOOTH",
"187 463 OFFCURVE",
"225 504 OFFCURVE",
"297 504 CURVE SMOOTH",
"332 504 OFFCURVE",
"356 498 OFFCURVE",
"360 496 CURVE",
"374 428 LINE",
"460 428 LINE",
"465 581 LINE",
"465 581 OFFCURVE",
"402 608 OFFCURVE",
"332 614 CURVE",
"332 705 LINE"
);
}
);
width = 510;
}
);
unicode = 00A2;
},
{
glyphname = currency;
layers = (
{
layerId = "9A1863D8-8A35-4672-A3E4-263E374F0942";
name = Bold;
paths = (
{
closed = 1;
nodes = (
"422 486 LINE",
"393 502 OFFCURVE",
"358 511 OFFCURVE",
"319 511 CURVE SMOOTH",
"277 511 OFFCURVE",
"240 500 OFFCURVE",
"208 481 CURVE",
"128 561 LINE",
"53 480 LINE",
"132 400 LINE",
"115 370 OFFCURVE",
"106 335 OFFCURVE",
"106 297 CURVE SMOOTH",
"106 257 OFFCURVE",
"114 222 OFFCURVE",
"128 193 CURVE",
"52 117 LINE",
"128 36 LINE",
"203 111 LINE",
"233 93 OFFCURVE",
"271 84 OFFCURVE",
"314 84 CURVE SMOOTH",
"354 84 OFFCURVE",
"390 94 OFFCURVE",
"421 112 CURVE",
"500 34 LINE",
"576 115 LINE",
"498 192 LINE",
"516 223 OFFCURVE",
"526 261 OFFCURVE",
"526 302 CURVE SMOOTH",
"526 342 OFFCURVE",
"517 377 OFFCURVE",
"501 407 CURVE",
"575 481 LINE",
"499 562 LINE"
);
},
{
closed = 1;
nodes = (
"375 402 OFFCURVE",
"402 365 OFFCURVE",
"402 299 CURVE SMOOTH",
"402 229 OFFCURVE",
"376 190 OFFCURVE",
"316 190 CURVE SMOOTH",
"255 190 OFFCURVE",
"229 229 OFFCURVE",
"229 299 CURVE SMOOTH",
"229 365 OFFCURVE",
"257 402 OFFCURVE",
"316 402 CURVE SMOOTH"
);
}
);
width = 626;
}
);
unicode = 00A4;
},
{
glyphname = dollar;
layers = (
{
layerId = "9A1863D8-8A35-4672-A3E4-263E374F0942";
name = Bold;
paths = (
{
closed = 1;
nodes = (
"224 766 LINE",
"224 648 LINE",
"124 629 OFFCURVE",
"54 564 OFFCURVE",
"54 461 CURVE SMOOTH",
"54 231 OFFCURVE",
"359 282 OFFCURVE",
"359 177 CURVE SMOOTH",
"359 129 OFFCURVE",
"309 107 OFFCURVE",
"249 107 CURVE SMOOTH",
"196 107 OFFCURVE",
"162 125 OFFCURVE",
"162 125 CURVE",
"148 199 LINE",
"54 199 LINE",
"54 21 LINE",
"54 21 OFFCURVE",
"132 -6 OFFCURVE",
"224 -11 CURVE",
"224 -146 LINE",
"333 -146 LINE",
"333 -5 LINE",
"436 17 OFFCURVE",
"508 87 OFFCURVE",
"508 199 CURVE SMOOTH",
"508 416 OFFCURVE",
"203 373 OFFCURVE",
"203 477 CURVE SMOOTH",
"203 513 OFFCURVE",
"236 539 OFFCURVE",
"299 539 CURVE SMOOTH",
"337 539 OFFCURVE",
"378 524 OFFCURVE",
"378 524 CURVE",
"397 451 LINE",
"485 451 LINE",
"489 616 LINE",
"489 616 OFFCURVE",
"419 645 OFFCURVE",
"333 652 CURVE",
"333 766 LINE"
);
}
);
width = 553;
}
);
unicode = 0024;
},
{
glyphname = sterling;
layers = (
{
layerId = "9A1863D8-8A35-4672-A3E4-263E374F0942";
name = Bold;
paths = (
{
closed = 1;
nodes = (
"204 718 OFFCURVE",
"142 635 OFFCURVE",
"142 510 CURVE SMOOTH",
"142 483 OFFCURVE",
"143 455 OFFCURVE",
"144 428 CURVE",
"60 414 LINE",
"60 319 LINE",
"151 319 LINE",
"154 279 OFFCURVE",
"157 241 OFFCURVE",
"157 208 CURVE SMOOTH",
"157 146 OFFCURVE",
"150 121 OFFCURVE",
"110 107 CURVE SMOOTH",
"60 89 LINE",
"60 0 LINE",
"570 0 LINE",
"570 222 LINE",
"476 222 LINE",
"453 119 LINE",
"271 119 LINE",
"280 128 OFFCURVE",
"307 161 OFFCURVE",
"307 223 CURVE SMOOTH",
"307 252 OFFCURVE",
"305 285 OFFCURVE",
"302 319 CURVE",
"437 319 LINE",
"437 431 LINE",
"294 431 LINE",
"292 457 OFFCURVE",
"292 484 OFFCURVE",
"292 512 CURVE SMOOTH",
"292 564 OFFCURVE",
"314 598 OFFCURVE",
"373 598 CURVE SMOOTH",
"420 598 OFFCURVE",
"456 592 OFFCURVE",
"456 592 CURVE",
"477 519 LINE",
"568 519 LINE",
"568 683 LINE",
"568 683 OFFCURVE",
"484 718 OFFCURVE",
"355 718 CURVE SMOOTH"
);
}
);
width = 625;
}
);
unicode = 00A3;
},
{
glyphname = approxequal;
layers = (
{
layerId = "9A1863D8-8A35-4672-A3E4-263E374F0942";
name = Bold;
paths = (
{
closed = 1;
nodes = (
"108 451 OFFCURVE",
"55 332 OFFCURVE",
"55 332 CURVE",
"119 286 LINE",
"119 286 OFFCURVE",
"157 339 OFFCURVE",
"211 339 CURVE SMOOTH",
"284 339 OFFCURVE",
"344 272 OFFCURVE",
"428 272 CURVE SMOOTH",
"529 272 OFFCURVE",
"586 393 OFFCURVE",
"586 393 CURVE",
"521 438 LINE",
"521 438 OFFCURVE",
"480 384 OFFCURVE",
"424 384 CURVE SMOOTH",
"352 384 OFFCURVE",
"302 451 OFFCURVE",
"217 451 CURVE SMOOTH"
);
},
{
closed = 1;
nodes = (
"108 254 OFFCURVE",
"55 135 OFFCURVE",
"55 135 CURVE",
"119 90 LINE",
"119 90 OFFCURVE",
"157 143 OFFCURVE",
"211 143 CURVE SMOOTH",
"284 143 OFFCURVE",
"344 75 OFFCURVE",
"428 75 CURVE SMOOTH",
"529 75 OFFCURVE",
"586 197 OFFCURVE",
"586 197 CURVE",
"521 241 LINE",
"521 241 OFFCURVE",
"480 187 OFFCURVE",
"424 187 CURVE SMOOTH",
"352 187 OFFCURVE",
"302 254 OFFCURVE",
"217 254 CURVE SMOOTH"
);
}
);
width = 641;
}
);
unicode = 2248;
},
{
glyphname = asciitilde;
layers = (
{
layerId = "9A1863D8-8A35-4672-A3E4-263E374F0942";
name = Bold;
paths = (
{
closed = 1;
nodes = (
"95 380 OFFCURVE",
"42 261 OFFCURVE",
"42 261 CURVE",
"105 210 LINE",
"105 210 OFFCURVE",
"146 263 OFFCURVE",
"198 263 CURVE SMOOTH",
"271 263 OFFCURVE",
"331 196 OFFCURVE",
"415 196 CURVE SMOOTH",
"516 196 OFFCURVE",
"573 317 OFFCURVE",
"573 317 CURVE",
"507 368 LINE",
"507 368 OFFCURVE",
"466 313 OFFCURVE",
"411 313 CURVE SMOOTH",
"339 313 OFFCURVE",
"289 380 OFFCURVE",
"204 380 CURVE SMOOTH"
);
}
);
width = 626;
}
);
unicode = 007E;
},
{
glyphname = divide;
layers = (
{
layerId = "9A1863D8-8A35-4672-A3E4-263E374F0942";
name = Bold;
paths = (
{
closed = 1;
nodes = (
"53 324 LINE",
"53 207 LINE",
"578 207 LINE",
"578 324 LINE"
);
},
{
closed = 1;
nodes = (
"267 144 OFFCURVE",
"228 111 OFFCURVE",
"228 51 CURVE SMOOTH",
"228 -10 OFFCURVE",
"257 -43 OFFCURVE",
"315 -43 CURVE SMOOTH",
"366 -43 OFFCURVE",
"404 -10 OFFCURVE",
"404 51 CURVE SMOOTH",
"404 111 OFFCURVE",
"376 144 OFFCURVE",
"318 144 CURVE SMOOTH"
);
},
{
closed = 1;
nodes = (
"267 575 OFFCURVE",
"228 542 OFFCURVE",
"228 482 CURVE SMOOTH",
"228 421 OFFCURVE",
"257 388 OFFCURVE",
"315 388 CURVE SMOOTH",
"366 388 OFFCURVE",
"404 421 OFFCURVE",
"404 482 CURVE SMOOTH",
"404 542 OFFCURVE",
"376 575 OFFCURVE",
"318 575 CURVE SMOOTH"
);
}
);
width = 631;
}
);
unicode = 00F7;
},
{
glyphname = equal;
layers = (
{
layerId = "9A1863D8-8A35-4672-A3E4-263E374F0942";
name = Bold;
paths = (
{
closed = 1;
nodes = (
"50 439 LINE",
"50 322 LINE",
"551 322 LINE",
"551 439 LINE"
);
},
{
closed = 1;
nodes = (
"50 223 LINE",
"50 106 LINE",
"551 106 LINE",
"551 223 LINE"
);
}
);
width = 600;
}
);
unicode = 003D;
},
{
glyphname = greater;
layers = (
{
layerId = "9A1863D8-8A35-4672-A3E4-263E374F0942";
name = Bold;
paths = (
{
closed = 1;
nodes = (
"39 416 LINE",
"392 268 LINE",
"39 125 LINE",
"39 -10 LINE",
"557 207 LINE",
"557 330 LINE",
"39 548 LINE"
);
}
);
width = 597;
}
);
unicode = 003E;
},
{
glyphname = greaterequal;
layers = (
{
layerId = "9A1863D8-8A35-4672-A3E4-263E374F0942";
name = Bold;
paths = (
{
closed = 1;
nodes = (
"44 467 LINE",
"387 365 LINE",
"44 260 LINE",
"44 135 LINE",
"536 305 LINE",
"536 427 LINE",
"44 592 LINE"
);
},
{
closed = 1;
nodes = (
"44 95 LINE",
"44 -26 LINE",
"536 -26 LINE",
"536 95 LINE"
);
}
);
width = 581;
}
);
unicode = 2265;
},
{
glyphname = integral;
layers = (
{
layerId = "9A1863D8-8A35-4672-A3E4-263E374F0942";
name = Bold;
paths = (
{
closed = 1;
nodes = (
"164 782 OFFCURVE",
"109 692 OFFCURVE",
"112 551 CURVE SMOOTH",
"117 366 OFFCURVE",
"141 95 OFFCURVE",
"146 -50 CURVE SMOOTH",
"149 -124 OFFCURVE",
"129 -163 OFFCURVE",
"72 -163 CURVE SMOOTH",
"47 -163 OFFCURVE",
"12 -158 OFFCURVE",
"12 -158 CURVE",
"3 -259 LINE",
"3 -259 OFFCURVE",
"65 -276 OFFCURVE",
"102 -276 CURVE SMOOTH",
"248 -276 OFFCURVE",
"299 -189 OFFCURVE",
"296 -46 CURVE SMOOTH",
"291 140 OFFCURVE",
"267 411 OFFCURVE",
"262 556 CURVE SMOOTH",
"259 630 OFFCURVE",
"280 668 OFFCURVE",
"337 668 CURVE SMOOTH",
"367 668 OFFCURVE",
"396 661 OFFCURVE",
"396 661 CURVE",
"408 764 LINE",
"408 764 OFFCURVE",
"347 782 OFFCURVE",
"307 782 CURVE SMOOTH"
);
}
);
width = 429;
}
);
unicode = 222B;
},
{
glyphname = less;
layers = (
{
layerId = "9A1863D8-8A35-4672-A3E4-263E374F0942";
name = Bold;
paths = (
{
closed = 1;
nodes = (
"39 330 LINE",
"39 207 LINE",
"557 -10 LINE",
"557 125 LINE",
"204 268 LINE",
"557 416 LINE",
"557 548 LINE"
);
}
);
width = 597;
}
);
unicode = 003C;
},
{
glyphname = lessequal;
layers = (
{
layerId = "9A1863D8-8A35-4672-A3E4-263E374F0942";
name = Bold;
paths = (
{
closed = 1;
nodes = (
"44 427 LINE",
"44 305 LINE",
"536 135 LINE",
"536 260 LINE",
"193 365 LINE",
"536 467 LINE",
"536 592 LINE"
);
},
{
closed = 1;
nodes = (
"44 95 LINE",
"44 -26 LINE",
"536 -26 LINE",
"536 95 LINE"
);
}
);
width = 581;
}
);
unicode = 2264;
},
{
glyphname = logicalnot;
layers = (
{
layerId = "9A1863D8-8A35-4672-A3E4-263E374F0942";
name = Bold;
paths = (
{
closed = 1;
nodes = (
"60 376 LINE",
"60 259 LINE",
"459 259 LINE",
"459 80 LINE",
"589 80 LINE",
"589 376 LINE"
);
}
);
width = 644;
}
);
unicode = 00AC;
},
{
glyphname = minus;
layers = (
{
layerId = "9A1863D8-8A35-4672-A3E4-263E374F0942";
name = Bold;
paths = (
{
closed = 1;
nodes = (
"50 349 LINE",
"50 230 LINE",
"530 230 LINE",
"530 349 LINE"
);
}
);
width = 580;
}
);
leftKerningGroup = hyphen;
rightKerningGroup = hyphen;
unicode = 2212;
},
{
glyphname = multiply;
layers = (
{
layerId = "9A1863D8-8A35-4672-A3E4-263E374F0942";
name = Bold;
paths = (
{
closed = 1;
nodes = (
"307 356 LINE",
"139 525 LINE",
"53 439 LINE",
"221 270 LINE",
"53 102 LINE",
"138 16 LINE",
"307 185 LINE",
"476 16 LINE",
"562 102 LINE",
"393 271 LINE",
"561 439 LINE",
"476 525 LINE"
);
}
);
width = 614;
}
);
unicode = 00D7;
},
{
glyphname = notequal;
layers = (
{
layerId = "9A1863D8-8A35-4672-A3E4-263E374F0942";
name = Bold;
paths = (
{
closed = 1;
nodes = (
"380 553 LINE",
"327 444 LINE",
"62 444 LINE",
"62 327 LINE",
"272 327 LINE",
"225 230 LINE",
"62 230 LINE",
"62 113 LINE",
"170 113 LINE",
"116 0 LINE",
"251 0 LINE",
"305 113 LINE",
"578 113 LINE",
"578 230 LINE",
"360 230 LINE",
"407 327 LINE",
"578 327 LINE",
"578 444 LINE",
"462 444 LINE",
"514 553 LINE"
);
}
);
width = 640;
}
);
unicode = 2260;
},
{
glyphname = percent;
layers = (
{
layerId = "9A1863D8-8A35-4672-A3E4-263E374F0942";
name = Bold;
paths = (
{
closed = 1;
nodes = (
"599 713 LINE",
"180 -8 LINE",
"328 -8 LINE",
"747 713 LINE"
);
},
{
closed = 1;
nodes = (
"205 661 OFFCURVE",
"173 617 OFFCURVE",
"173 534 CURVE SMOOTH",
"173 446 OFFCURVE",
"200 407 OFFCURVE",
"227 407 CURVE SMOOTH",
"257 407 OFFCURVE",
"289 452 OFFCURVE",
"289 536 CURVE SMOOTH",
"289 619 OFFCURVE",
"261 661 OFFCURVE",
"234 661 CURVE SMOOTH"
);
},
{
closed = 1;
nodes = (
"206 687 OFFCURVE",
"172 627 OFFCURVE",
"172 532 CURVE SMOOTH",
"172 430 OFFCURVE",
"201 381 OFFCURVE",
"228 381 CURVE SMOOTH",
"257 381 OFFCURVE",
"290 445 OFFCURVE",
"290 538 CURVE SMOOTH",
"290 631 OFFCURVE",
"262 687 OFFCURVE",
"234 687 CURVE SMOOTH"
);
},
{
closed = 1;
nodes = (
"673 297 OFFCURVE",
"641 253 OFFCURVE",
"641 171 CURVE SMOOTH",
"641 83 OFFCURVE",
"668 43 OFFCURVE",
"695 43 CURVE SMOOTH",
"725 43 OFFCURVE",
"757 88 OFFCURVE",
"757 172 CURVE SMOOTH",
"757 256 OFFCURVE",
"729 297 OFFCURVE",
"702 297 CURVE SMOOTH"
);
},
{
closed = 1;
nodes = (
"673 323 OFFCURVE",
"639 264 OFFCURVE",
"639 168 CURVE SMOOTH",
"639 67 OFFCURVE",
"668 17 OFFCURVE",
"695 17 CURVE SMOOTH",
"724 17 OFFCURVE",
"757 81 OFFCURVE",
"757 174 CURVE SMOOTH",
"757 267 OFFCURVE",
"729 323 OFFCURVE",
"701 323 CURVE SMOOTH"
);
}
);
width = 942;
}
);
unicode = 0025;
},
{
glyphname = perthousand;
layers = (
{
layerId = "9A1863D8-8A35-4672-A3E4-263E374F0942";
name = Bold;
paths = (
{
closed = 1;
nodes = (
"599 713 LINE",
"180 -8 LINE",
"328 -8 LINE",
"747 713 LINE"
);
},
{
closed = 1;
nodes = (
"205 661 OFFCURVE",
"173 617 OFFCURVE",
"173 534 CURVE SMOOTH",
"173 446 OFFCURVE",
"200 407 OFFCURVE",
"227 407 CURVE SMOOTH",
"257 407 OFFCURVE",
"289 452 OFFCURVE",
"289 536 CURVE SMOOTH",
"289 619 OFFCURVE",
"261 661 OFFCURVE",
"234 661 CURVE SMOOTH"
);
},
{
closed = 1;
nodes = (
"206 687 OFFCURVE",
"172 627 OFFCURVE",
"172 532 CURVE SMOOTH",
"172 430 OFFCURVE",
"201 381 OFFCURVE",
"228 381 CURVE SMOOTH",
"257 381 OFFCURVE",
"290 445 OFFCURVE",
"290 538 CURVE SMOOTH",
"290 631 OFFCURVE",
"262 687 OFFCURVE",
"234 687 CURVE SMOOTH"
);
},
{
closed = 1;
nodes = (
"673 297 OFFCURVE",
"641 253 OFFCURVE",
"641 171 CURVE SMOOTH",
"641 83 OFFCURVE",
"668 43 OFFCURVE",
"695 43 CURVE SMOOTH",
"725 43 OFFCURVE",
"757 88 OFFCURVE",
"757 172 CURVE SMOOTH",
"757 256 OFFCURVE",
"729 297 OFFCURVE",
"702 297 CURVE SMOOTH"
);
},
{
closed = 1;
nodes = (
"673 323 OFFCURVE",
"639 264 OFFCURVE",
"639 168 CURVE SMOOTH",
"639 67 OFFCURVE",
"668 17 OFFCURVE",
"695 17 CURVE SMOOTH",
"724 17 OFFCURVE",
"757 81 OFFCURVE",
"757 174 CURVE SMOOTH",
"757 267 OFFCURVE",
"729 323 OFFCURVE",
"701 323 CURVE SMOOTH"
);
},
{
closed = 1;
nodes = (
"1064 297 OFFCURVE",
"1032 253 OFFCURVE",
"1032 171 CURVE SMOOTH",
"1032 83 OFFCURVE",
"1059 43 OFFCURVE",
"1086 43 CURVE SMOOTH",
"1116 43 OFFCURVE",
"1148 88 OFFCURVE",
"1148 172 CURVE SMOOTH",
"1148 256 OFFCURVE",
"1120 297 OFFCURVE",
"1093 297 CURVE SMOOTH"
);
},
{
closed = 1;
nodes = (
"1065 323 OFFCURVE",
"1031 264 OFFCURVE",
"1031 168 CURVE SMOOTH",
"1031 67 OFFCURVE",
"1060 17 OFFCURVE",
"1087 17 CURVE SMOOTH",
"1116 17 OFFCURVE",
"1149 81 OFFCURVE",
"1149 174 CURVE SMOOTH",
"1149 267 OFFCURVE",
"1121 323 OFFCURVE",
"1093 323 CURVE SMOOTH"
);
}
);
width = 1320;
}
);
unicode = 2030;
},
{
glyphname = plus;
layers = (
{
layerId = "9A1863D8-8A35-4672-A3E4-263E374F0942";
name = Bold;
paths = (
{
closed = 1;
nodes = (
"243 533 LINE",
"243 330 LINE",
"42 330 LINE",
"42 211 LINE",
"243 211 LINE",
"243 0 LINE",
"378 0 LINE",
"378 211 LINE",
"578 211 LINE",
"578 330 LINE",
"378 330 LINE",
"378 533 LINE"
);
}
);
width = 620;
}
);
unicode = 002B;
},
{
glyphname = plusminus;
layers = (
{
layerId = "9A1863D8-8A35-4672-A3E4-263E374F0942";
name = Bold;
paths = (
{
closed = 1;
nodes = (
"244 553 LINE",
"244 406 LINE",
"52 406 LINE",
"52 288 LINE",
"244 288 LINE",
"244 137 LINE",
"379 137 LINE",
"379 288 LINE",
"570 288 LINE",
"570 406 LINE",
"379 406 LINE",
"379 553 LINE"
);
},
{
closed = 1;
nodes = (
"52 78 LINE",
"52 -38 LINE",
"570 -38 LINE",
"570 78 LINE"
);
}
);
width = 623;
}
);
unicode = 00B1;
},
{
glyphname = radical;
layers = (
{
layerId = "9A1863D8-8A35-4672-A3E4-263E374F0942";
name = Bold;
paths = (
{
closed = 1;
nodes = (
"492 770 LINE",
"311 152 LINE",
"195 530 LINE",
"10 525 LINE",
"10 441 LINE",
"68 425 LINE",
"219 0 LINE",
"385 0 LINE",
"603 672 LINE",
"710 690 LINE",
"710 775 LINE"
);
}
);
width = 698;
}
);
unicode = 221A;
},
{
glyphname = summation;
layers = (
{
layerId = "9A1863D8-8A35-4672-A3E4-263E374F0942";
name = Bold;
paths = (
{
closed = 1;
nodes = (
"27 705 LINE",
"27 602 LINE",
"295 238 LINE",
"32 -131 LINE",
"32 -235 LINE",
"570 -235 LINE",
"570 -36 LINE",
"471 -36 LINE",
"455 -121 LINE",
"189 -121 LINE",
"455 252 LINE",
"201 591 LINE",
"441 591 LINE",
"466 512 LINE",
"560 512 LINE",
"560 705 LINE"
);
}
);
width = 615;
}
);
unicode = 2211;
},
{
glyphname = lozenge;
layers = (
{
layerId = "9A1863D8-8A35-4672-A3E4-263E374F0942";
name = Bold;
paths = (
{
closed = 1;
nodes = (
"213 775 LINE",
"16 366 LINE",
"216 -45 LINE",
"348 -45 LINE",
"543 365 LINE",
"345 775 LINE"
);
},
{
closed = 1;
nodes = (
"399 358 LINE",
"284 103 LINE",
"161 374 LINE",
"276 629 LINE"
);
}
);
width = 563;
}
);
unicode = 25CA;
},
{
glyphname = ampersand;
layers = (
{
layerId = "9A1863D8-8A35-4672-A3E4-263E374F0942";
name = Bold;
paths = (
{
closed = 1;
nodes = (
"175 718 OFFCURVE",
"76 653 OFFCURVE",
"76 526 CURVE SMOOTH",
"76 428 OFFCURVE",
"153 386 OFFCURVE",
"181 368 CURVE",
"154 354 OFFCURVE",
"54 294 OFFCURVE",
"54 188 CURVE SMOOTH",
"54 71 OFFCURVE",
"131 -13 OFFCURVE",
"308 -13 CURVE SMOOTH",
"474 -13 OFFCURVE",
"579 71 OFFCURVE",
"579 211 CURVE SMOOTH",
"579 317 LINE",
"648 339 LINE",
"648 426 LINE",
"341 426 LINE SMOOTH",
"282 426 OFFCURVE",
"227 456 OFFCURVE",
"227 516 CURVE SMOOTH",
"227 560 OFFCURVE",
"257 593 OFFCURVE",
"321 593 CURVE SMOOTH",
"376 593 OFFCURVE",
"409 581 OFFCURVE",
"409 581 CURVE",
"425 517 LINE",
"521 517 LINE",
"526 675 LINE",
"502 687 OFFCURVE",
"407 718 OFFCURVE",
"329 718 CURVE SMOOTH"
);
},
{
closed = 1;
nodes = (
"432 226 LINE",
"432 149 OFFCURVE",
"385 112 OFFCURVE",
"319 112 CURVE SMOOTH",
"253 112 OFFCURVE",
"212 147 OFFCURVE",
"212 209 CURVE SMOOTH",
"212 270 OFFCURVE",
"264 317 OFFCURVE",
"336 317 CURVE SMOOTH",
"432 317 LINE"
);
}
);
width = 678;
}
);
unicode = 0026;
},
{
glyphname = asciicircum;
layers = (
{
layerId = "9A1863D8-8A35-4672-A3E4-263E374F0942";
name = Bold;
paths = (
{
closed = 1;
nodes = (
"242 705 LINE",
"49 320 LINE",
"176 320 LINE",
"296 564 LINE",
"416 320 LINE",
"546 320 LINE",
"354 705 LINE"
);
}
);
width = 596;
}
);
unicode = 005E;
},
{
glyphname = at;
layers = (
{
layerId = "9A1863D8-8A35-4672-A3E4-263E374F0942";
name = Bold;
paths = (
{
closed = 1;
nodes = (
"194 718 OFFCURVE",
"47 576 OFFCURVE",
"47 346 CURVE SMOOTH",
"47 111 OFFCURVE",
"168 -15 OFFCURVE",
"386 -15 CURVE SMOOTH",
"492 -15 OFFCURVE",
"560 25 OFFCURVE",
"560 25 CURVE",
"519 108 LINE",
"519 108 OFFCURVE",
"461 83 OFFCURVE",
"394 83 CURVE SMOOTH",
"232 83 OFFCURVE",
"159 181 OFFCURVE",
"159 351 CURVE SMOOTH",
"159 521 OFFCURVE",
"251 619 OFFCURVE",
"417 619 CURVE SMOOTH",
"583 619 OFFCURVE",
"670 522 OFFCURVE",
"670 361 CURVE SMOOTH",
"670 273 OFFCURVE",
"645 227 OFFCURVE",
"605 227 CURVE SMOOTH",
"584 227 OFFCURVE",
"571 240 OFFCURVE",
"571 261 CURVE SMOOTH",
"571 427 LINE",
"571 515 OFFCURVE",
"526 553 OFFCURVE",
"422 553 CURVE SMOOTH",
"351 553 OFFCURVE",
"271 523 OFFCURVE",
"271 523 CURVE",
"290 448 LINE",
"290 448 OFFCURVE",
"353 466 OFFCURVE",
"399 466 CURVE SMOOTH",
"438 466 OFFCURVE",
"456 451 OFFCURVE",
"456 419 CURVE SMOOTH",
"456 385 LINE",
"411 385 LINE SMOOTH",
"301 385 OFFCURVE",
"242 347 OFFCURVE",
"242 266 CURVE SMOOTH",
"242 195 OFFCURVE",
"284 151 OFFCURVE",
"355 151 CURVE SMOOTH",
"422 151 OFFCURVE",
"473 208 OFFCURVE",
"473 208 CURVE",
"486 186 OFFCURVE",
"519 147 OFFCURVE",
"594 147 CURVE SMOOTH",
"700 147 OFFCURVE",
"782 225 OFFCURVE",
"782 367 CURVE SMOOTH",
"782 595 OFFCURVE",
"642 718 OFFCURVE",
"422 718 CURVE SMOOTH"
);
},
{
closed = 1;
nodes = (
"455 273 LINE",
"448 266 OFFCURVE",
"419 239 OFFCURVE",
"388 239 CURVE SMOOTH",
"364 239 OFFCURVE",
"348 253 OFFCURVE",
"348 275 CURVE SMOOTH",
"348 305 OFFCURVE",
"368 319 OFFCURVE",
"417 319 CURVE SMOOTH",
"455 319 LINE"
);
}
);
width = 821;
}
);
unicode = 0040;
},
{
glyphname = bar;
layers = (
{
layerId = "9A1863D8-8A35-4672-A3E4-263E374F0942";
name = Bold;
paths = (
{
closed = 1;
nodes = (
"82 755 LINE",
"82 -230 LINE",
"196 -230 LINE",
"196 755 LINE"
);
}
);
width = 283;
}
);
unicode = 007C;
},
{
glyphname = brokenbar;
layers = (
{
layerId = "9A1863D8-8A35-4672-A3E4-263E374F0942";
name = Bold;
paths = (
{
closed = 1;
nodes = (
"87 145 LINE",
"87 -265 LINE",
"201 -265 LINE",
"201 145 LINE"
);
},
{
closed = 1;
nodes = (
"87 765 LINE",
"87 365 LINE",
"201 365 LINE",
"201 765 LINE"
);
}
);
width = 297;
}
);
unicode = 00A6;
},
{
glyphname = copyright;
layers = (
{
layerId = "9A1863D8-8A35-4672-A3E4-263E374F0942";
name = Bold;
paths = (
{
closed = 1;
nodes = (
"196 719 OFFCURVE",
"37 560 OFFCURVE",
"37 345 CURVE SMOOTH",
"37 129 OFFCURVE",
"186 -19 OFFCURVE",
"401 -19 CURVE SMOOTH",
"617 -19 OFFCURVE",
"786 140 OFFCURVE",
"786 355 CURVE SMOOTH",
"786 571 OFFCURVE",
"627 719 OFFCURVE",
"411 719 CURVE SMOOTH"
);
},
{
closed = 1;
nodes = (
"295 553 OFFCURVE",
"224 470 OFFCURVE",
"224 342 CURVE SMOOTH",
"224 220 OFFCURVE",
"297 152 OFFCURVE",
"408 152 CURVE SMOOTH",
"484 152 OFFCURVE",
"542 200 OFFCURVE",
"561 216 CURVE",
"524 273 LINE",
"508 261 OFFCURVE",
"464 236 OFFCURVE",
"422 236 CURVE SMOOTH",
"364 236 OFFCURVE",
"336 274 OFFCURVE",
"336 356 CURVE SMOOTH",
"336 434 OFFCURVE",
"363 472 OFFCURVE",
"418 472 CURVE SMOOTH",
"439 472 OFFCURVE",
"457 468 OFFCURVE",
"465 465 CURVE",
"476 411 LINE",
"546 411 LINE",
"549 524 LINE",
"549 524 OFFCURVE",
"482 553 OFFCURVE",
"420 553 CURVE SMOOTH"
);
},
{
closed = 1;
nodes = (
"568 624 OFFCURVE",
"683 512 OFFCURVE",
"683 350 CURVE SMOOTH",
"683 188 OFFCURVE",
"568 76 OFFCURVE",
"407 76 CURVE SMOOTH",
"245 76 OFFCURVE",
"140 188 OFFCURVE",
"140 350 CURVE SMOOTH",
"140 512 OFFCURVE",
"245 624 OFFCURVE",
"407 624 CURVE SMOOTH"
);
}
);
width = 823;
}
);
unicode = 00A9;
},
{
glyphname = dagger;
layers = (
{
layerId = "9A1863D8-8A35-4672-A3E4-263E374F0942";
name = Bold;
paths = (
{
closed = 1;
nodes = (
"195 753 LINE",
"200 611 LINE",
"35 611 LINE",
"35 514 LINE",
"258 480 LINE",
"482 514 LINE",
"482 611 LINE",
"315 611 LINE",
"322 760 LINE"
);
},
{
closed = 1;
nodes = (
"257 426 LINE",
"178 442 LINE",
"194 52 LINE",
"257 0 LINE",
"321 52 LINE",
"338 442 LINE"
);
}
);
width = 516;
}
);
unicode = 2020;
},
{
glyphname = daggerdbl;
layers = (
{
layerId = "9A1863D8-8A35-4672-A3E4-263E374F0942";
name = Bold;
paths = (
{
closed = 1;
nodes = (
"195 753 LINE",
"200 611 LINE",
"35 611 LINE",
"35 514 LINE",
"258 480 LINE",
"482 514 LINE",
"482 611 LINE",
"315 611 LINE",
"322 760 LINE"
);
},
{
closed = 1;
nodes = (
"257 269 LINE",
"185 286 LINE",
"194 52 LINE",
"257 0 LINE",
"321 52 LINE",
"330 286 LINE"
);
},
{
closed = 1;
nodes = (
"258 431 LINE",
"81 460 LINE",
"81 359 LINE",
"258 317 LINE",
"434 359 LINE",
"434 460 LINE"
);
}
);
width = 516;
}
);
unicode = 2021;
},
{
glyphname = degree;
layers = (
{
layerId = "9A1863D8-8A35-4672-A3E4-263E374F0942";
name = Bold;
paths = (
{
closed = 1;
nodes = (
"116 741 OFFCURVE",
"45 677 OFFCURVE",
"45 580 CURVE SMOOTH",
"45 477 OFFCURVE",
"116 418 OFFCURVE",
"214 418 CURVE SMOOTH",
"313 418 OFFCURVE",
"383 483 OFFCURVE",
"383 585 CURVE SMOOTH",
"383 682 OFFCURVE",
"313 741 OFFCURVE",
"214 741 CURVE SMOOTH"
);
},
{
closed = 1;
nodes = (
"254 651 OFFCURVE",
"281 627 OFFCURVE",
"281 584 CURVE SMOOTH",
"281 536 OFFCURVE",
"258 509 OFFCURVE",
"214 509 CURVE SMOOTH",
"171 509 OFFCURVE",
"147 536 OFFCURVE",
"147 584 CURVE SMOOTH",
"147 627 OFFCURVE",
"175 651 OFFCURVE",
"214 651 CURVE SMOOTH"
);
}
);
width = 427;
}
);
unicode = 00B0;
},
{
glyphname = paragraph;
layers = (
{
layerId = "9A1863D8-8A35-4672-A3E4-263E374F0942";
name = Bold;
paths = (
{
closed = 1;
nodes = (
"275 705 LINE SMOOTH",
"132 705 OFFCURVE",
"49 611 OFFCURVE",
"49 490 CURVE SMOOTH",
"49 372 OFFCURVE",
"131 282 OFFCURVE",
"236 271 CURVE",
"236 -64 LINE",
"154 -86 LINE",
"154 -170 LINE",
"357 -170 LINE",
"357 596 LINE",
"464 596 LINE",
"464 -170 LINE",
"592 -170 LINE",
"592 596 LINE",
"671 616 LINE",
"671 698 LINE",
"464 705 LINE"
);
}
);
width = 726;
}
);
unicode = 00B6;
},
{
glyphname = registered;
layers = (
{
layerId = "9A1863D8-8A35-4672-A3E4-263E374F0942";
name = Bold;
paths = (
{
closed = 1;
nodes = (
"179 767 OFFCURVE",
"44 632 OFFCURVE",
"44 449 CURVE SMOOTH",
"44 268 OFFCURVE",
"171 143 OFFCURVE",
"351 143 CURVE SMOOTH",
"533 143 OFFCURVE",
"679 278 OFFCURVE",
"679 460 CURVE SMOOTH",
"679 642 OFFCURVE",
"541 767 OFFCURVE",
"362 767 CURVE SMOOTH"
);
},
{
closed = 1;
nodes = (
"490 677 OFFCURVE",
"581 588 OFFCURVE",
"581 456 CURVE SMOOTH",
"581 323 OFFCURVE",
"490 232 OFFCURVE",
"357 232 CURVE SMOOTH",
"224 232 OFFCURVE",
"144 322 OFFCURVE",
"144 455 CURVE SMOOTH",
"144 588 OFFCURVE",
"224 677 OFFCURVE",
"357 677 CURVE SMOOTH"
);
},
{
closed = 1;
nodes = (
"284 614 LINE",
"222 595 LINE",
"241 566 LINE",
"256 447 LINE",
"237 355 LINE",
"222 329 LINE",
"291 303 LINE",
"366 322 LINE",
"348 352 LINE",
"334 401 LINE",
"343 423 LINE SMOOTH",
"364 423 OFFCURVE",
"372 419 OFFCURVE",
"387 385 CURVE SMOOTH",
"426 303 LINE",
"515 303 LINE",
"515 348 LINE",
"483 360 LINE",
"455 414 LINE SMOOTH",
"446 431 OFFCURVE",
"439 437 OFFCURVE",
"436 440 CURVE",
"468 456 OFFCURVE",
"488 483 OFFCURVE",
"488 524 CURVE SMOOTH",
"488 581 OFFCURVE",
"441 615 OFFCURVE",
"375 615 CURVE"
);
},
{
closed = 1;
nodes = (
"394 556 OFFCURVE",
"410 540 OFFCURVE",
"410 516 CURVE SMOOTH",
"410 489 OFFCURVE",
"389 476 OFFCURVE",
"360 476 CURVE SMOOTH",
"334 476 LINE",
"334 556 LINE",
"367 556 LINE"
);
}
);
width = 724;
}
);
unicode = 00AE;
},
{
glyphname = section;
layers = (
{
layerId = "9A1863D8-8A35-4672-A3E4-263E374F0942";
name = Bold;
paths = (
{
closed = 1;
nodes = (
"185 788 OFFCURVE",
"102 712 OFFCURVE",
"102 605 CURVE SMOOTH",
"102 562 OFFCURVE",
"113 526 OFFCURVE",
"131 497 CURVE",
"94 470 OFFCURVE",
"62 421 OFFCURVE",
"62 349 CURVE SMOOTH",
"62 164 OFFCURVE",
"313 142 OFFCURVE",
"313 26 CURVE SMOOTH",
"313 -15 OFFCURVE",
"284 -41 OFFCURVE",
"237 -41 CURVE SMOOTH",
"207 -41 OFFCURVE",
"186 -34 OFFCURVE",
"186 -34 CURVE",
"172 53 LINE",
"90 53 LINE",
"87 -119 LINE",
"87 -119 OFFCURVE",
"159 -148 OFFCURVE",
"243 -148 CURVE SMOOTH",
"360 -148 OFFCURVE",
"445 -74 OFFCURVE",
"445 41 CURVE SMOOTH",
"445 81 OFFCURVE",
"433 115 OFFCURVE",
"414 143 CURVE",
"452 171 OFFCURVE",
"484 219 OFFCURVE",
"484 289 CURVE SMOOTH",
"484 472 OFFCURVE",
"234 496 OFFCURVE",
"234 615 CURVE SMOOTH",
"234 654 OFFCURVE",
"262 683 OFFCURVE",
"312 683 CURVE SMOOTH",
"333 683 OFFCURVE",
"358 676 OFFCURVE",
"358 676 CURVE",
"375 592 LINE",
"454 592 LINE",
"458 756 LINE",
"458 756 OFFCURVE",
"391 788 OFFCURVE",
"303 788 CURVE SMOOTH"
);
},
{
closed = 1;
nodes = (
"274 366 OFFCURVE",
"357 333 OFFCURVE",
"357 273 CURVE SMOOTH",
"357 245 OFFCURVE",
"348 228 OFFCURVE",
"340 218 CURVE",
"271 272 OFFCURVE",
"189 306 OFFCURVE",
"189 366 CURVE SMOOTH",
"189 392 OFFCURVE",
"198 409 OFFCURVE",
"206 420 CURVE"
);
}
);
width = 533;
}
);
unicode = 00A7;
},
{
glyphname = acute;
layers = (
{
layerId = "9A1863D8-8A35-4672-A3E4-263E374F0942";
name = Bold;
paths = (
{
closed = 1;
nodes = (
"26 685 LINE",
"70 610 LINE",
"309 722 LINE",
"250 833 LINE"
);
}
);
width = 336;
}
);
unicode = 00B4;
},
{
glyphname = breve;
layers = (
{
layerId = "9A1863D8-8A35-4672-A3E4-263E374F0942";
name = Bold;
paths = (
{
closed = 1;
nodes = (
"159 763 LINE",
"159 695 OFFCURVE",
"196 628 OFFCURVE",
"213 628 CURVE SMOOTH",
"236 628 OFFCURVE",
"280 696 OFFCURVE",
"280 770 CURVE",
"192 763 LINE",
"192 723 OFFCURVE",
"219 663 OFFCURVE",
"218 663 CURVE SMOOTH",
"223 663 OFFCURVE",
"247 729 OFFCURVE",
"247 772 CURVE"
);
}
);
width = 440;
}
);
unicode = 02D8;
},
{
glyphname = caron;
layers = (
{
layerId = "9A1863D8-8A35-4672-A3E4-263E374F0942";
name = Bold;
paths = (
{
closed = 1;
nodes = (
"221 709 LINE",
"81 814 LINE",
"26 753 LINE",
"178 606 LINE",
"269 608 LINE",
"414 753 LINE",
"361 814 LINE"
);
}
);
width = 441;
}
);
unicode = 02C7;
},
{
glyphname = cedilla;
layers = (
{
layerId = "9A1863D8-8A35-4672-A3E4-263E374F0942";
name = Bold;
paths = (
{
closed = 1;
nodes = (
"171 0 LINE",
"171 -87 LINE",
"220 -87 OFFCURVE",
"254 -100 OFFCURVE",
"254 -129 CURVE SMOOTH",
"254 -151 OFFCURVE",
"235 -167 OFFCURVE",
"203 -167 CURVE SMOOTH",
"165 -167 OFFCURVE",
"125 -146 OFFCURVE",
"125 -146 CURVE",
"94 -202 LINE",
"94 -202 OFFCURVE",
"149 -234 OFFCURVE",
"217 -234 CURVE SMOOTH",
"293 -234 OFFCURVE",
"344 -192 OFFCURVE",
"344 -133 CURVE SMOOTH",
"344 -85 OFFCURVE",
"310 -54 OFFCURVE",
"258 -44 CURVE",
"258 0 LINE"
);
}
);
width = 431;
}
);
unicode = 00B8;
},
{
glyphname = circumflex;
layers = (
{
layerId = "9A1863D8-8A35-4672-A3E4-263E374F0942";
name = Bold;
paths = (
{
closed = 1;
nodes = (
"223 833 LINE",
"71 704 LINE",
"123 637 LINE",
"276 740 LINE",
"427 637 LINE",
"475 704 LINE",
"314 841 LINE"
);
}
);
width = 546;
}
);
unicode = 02C6;
},
{
glyphname = dieresis;
layers = (
{
layerId = "9A1863D8-8A35-4672-A3E4-263E374F0942";
name = Bold;
paths = (
{
closed = 1;
nodes = (
"345 792 OFFCURVE",
"309 763 OFFCURVE",
"309 713 CURVE SMOOTH",
"309 663 OFFCURVE",
"334 634 OFFCURVE",
"382 634 CURVE SMOOTH",
"421 634 OFFCURVE",
"457 663 OFFCURVE",
"457 713 CURVE SMOOTH",
"457 763 OFFCURVE",
"432 792 OFFCURVE",
"384 792 CURVE SMOOTH"
);
},
{
closed = 1;
nodes = (
"125 792 OFFCURVE",
"89 763 OFFCURVE",
"89 713 CURVE SMOOTH",
"89 663 OFFCURVE",
"114 634 OFFCURVE",
"162 634 CURVE SMOOTH",
"201 634 OFFCURVE",
"237 663 OFFCURVE",
"237 713 CURVE SMOOTH",
"237 763 OFFCURVE",
"212 792 OFFCURVE",
"164 792 CURVE SMOOTH"
);
}
);
width = 546;
}
);
unicode = 00A8;
},
{
glyphname = dotaccent;
layers = (
{
layerId = "9A1863D8-8A35-4672-A3E4-263E374F0942";
name = Bold;
paths = (
{
closed = 1;
nodes = (
"108 781 OFFCURVE",
"74 752 OFFCURVE",
"74 701 CURVE SMOOTH",
"74 649 OFFCURVE",
"103 620 OFFCURVE",
"148 620 CURVE SMOOTH",
"188 620 OFFCURVE",
"223 649 OFFCURVE",
"223 701 CURVE SMOOTH",
"223 752 OFFCURVE",
"194 781 OFFCURVE",
"148 781 CURVE SMOOTH"
);
}
);
width = 297;
}
);
unicode = 02D9;
},
{
glyphname = grave;
layers = (
{
layerId = "9A1863D8-8A35-4672-A3E4-263E374F0942";
name = Bold;
paths = (
{
closed = 1;
nodes = (
"26 722 LINE",
"262 608 LINE",
"306 687 LINE",
"84 832 LINE"
);
}
);
width = 336;
}
);
unicode = 0060;
},
{
glyphname = hungarumlaut;
layers = (
{
layerId = "9A1863D8-8A35-4672-A3E4-263E374F0942";
name = Bold;
paths = (
{
closed = 1;
nodes = (
"321 662 LINE",
"384 606 LINE",
"563 776 LINE",
"478 856 LINE"
);
},
{
closed = 1;
nodes = (
"102 662 LINE",
"165 606 LINE",
"344 776 LINE",
"259 856 LINE"
);
}
);
width = 626;
}
);
unicode = 02DD;
},
{
glyphname = macron;
layers = (
{
layerId = "9A1863D8-8A35-4672-A3E4-263E374F0942";
name = Bold;
paths = (
{
closed = 1;
nodes = (
"26 748 LINE",
"26 639 LINE",
"291 639 LINE",
"291 748 LINE"
);
}
);
width = 317;
}
);
unicode = 00AF;
},
{
glyphname = ogonek;
layers = (
{
layerId = "9A1863D8-8A35-4672-A3E4-263E374F0942";
name = Bold;
paths = (
{
closed = 1;
nodes = (
"164 5 LINE",
"164 5 OFFCURVE",
"54 -46 OFFCURVE",
"54 -136 CURVE SMOOTH",
"54 -204 OFFCURVE",
"105 -236 OFFCURVE",
"165 -236 CURVE SMOOTH",
"220 -236 OFFCURVE",
"268 -211 OFFCURVE",
"268 -211 CURVE",
"251 -139 LINE",
"251 -139 OFFCURVE",
"224 -146 OFFCURVE",
"208 -146 CURVE SMOOTH",
"187 -146 OFFCURVE",
"171 -133 OFFCURVE",
"171 -110 CURVE SMOOTH",
"171 -58 OFFCURVE",
"286 5 OFFCURVE",
"286 5 CURVE"
);
}
);
width = 310;
}
);
unicode = 02DB;
},
{
glyphname = ring;
layers = (
{
layerId = "9A1863D8-8A35-4672-A3E4-263E374F0942";
name = Bold;
paths = (
{
closed = 1;
nodes = (
"141 838 OFFCURVE",
"72 789 OFFCURVE",
"72 704 CURVE SMOOTH",
"72 621 OFFCURVE",
"141 577 OFFCURVE",
"206 577 CURVE SMOOTH",
"272 577 OFFCURVE",
"340 626 OFFCURVE",
"340 711 CURVE SMOOTH",
"340 794 OFFCURVE",
"272 838 OFFCURVE",
"206 838 CURVE SMOOTH"
);
},
{
closed = 1;
nodes = (
"236 765 OFFCURVE",
"254 746 OFFCURVE",
"254 708 CURVE SMOOTH",
"254 670 OFFCURVE",
"233 650 OFFCURVE",
"206 650 CURVE SMOOTH",
"176 650 OFFCURVE",
"158 669 OFFCURVE",
"158 707 CURVE SMOOTH",
"158 745 OFFCURVE",
"179 765 OFFCURVE",
"206 765 CURVE SMOOTH"
);
}
);
width = 413;
}
);
unicode = 02DA;
},
{
glyphname = tilde;
layers = (
{
layerId = "9A1863D8-8A35-4672-A3E4-263E374F0942";
name = Bold;
paths = (
{
closed = 1;
nodes = (
"121 788 OFFCURVE",
"79 677 OFFCURVE",
"79 677 CURVE",
"127 631 LINE",
"127 631 OFFCURVE",
"158 672 OFFCURVE",
"200 672 CURVE SMOOTH",
"260 672 OFFCURVE",
"298 627 OFFCURVE",
"368 627 CURVE SMOOTH",
"450 627 OFFCURVE",
"494 738 OFFCURVE",
"494 738 CURVE",
"440 784 LINE",
"440 784 OFFCURVE",
"410 742 OFFCURVE",
"371 742 CURVE SMOOTH",
"311 742 OFFCURVE",
"275 788 OFFCURVE",
"205 788 CURVE SMOOTH"
);
}
);
width = 568;
}
);
unicode = 02DC;
},
{
glyphname = acute.x;
layers = (
{
layerId = "9A1863D8-8A35-4672-A3E4-263E374F0942";
name = Bold;
paths = (
{
closed = 1;
nodes = (
"0 674 LINE",
"43 599 LINE",
"306 725 LINE",
"247 834 LINE"
);
}
);
width = 320;
}
);
},
{
glyphname = grave.x;
layers = (
{
layerId = "9A1863D8-8A35-4672-A3E4-263E374F0942";
name = Bold;
paths = (
{
closed = 1;
nodes = (
"-8 725 LINE",
"255 599 LINE",
"298 674 LINE",
"51 834 LINE"
);
}
);
width = 284;
}
);
},
{
glyphname = commaaccent;
layers = (
{
layerId = "9A1863D8-8A35-4672-A3E4-263E374F0942";
name = Bold;
paths = (
{
closed = 1;
nodes = (
"73 -61 OFFCURVE",
"39 -91 OFFCURVE",
"39 -140 CURVE SMOOTH",
"39 -179 OFFCURVE",
"66 -198 OFFCURVE",
"66 -221 CURVE SMOOTH",
"66 -245 OFFCURVE",
"4 -302 OFFCURVE",
"4 -302 CURVE",
"58 -360 LINE",
"147 -288 OFFCURVE",
"196 -211 OFFCURVE",
"196 -147 CURVE SMOOTH",
"196 -96 OFFCURVE",
"166 -61 OFFCURVE",
"118 -61 CURVE SMOOTH"
);
}
);
width = 230;
}
);
unicode = 0326;
},
{
color = 3;
glyphname = "eShortMatra-deva";
layers = (
{
anchors = (
{
name = _top;
position = "{-127, 530}";
}
);
guideLines = (
{
angle = 90;
position = "{-215, 805}";
}
);
layerId = "9A1863D8-8A35-4672-A3E4-263E374F0942";
name = Bold;
paths = (
{
closed = 1;
nodes = (
"-576 995 LINE",
"-576 940 OFFCURVE",
"-570 862 OFFCURVE",
"-484 830 CURVE SMOOTH",
"-420 807 OFFCURVE",
"-334 797 OFFCURVE",
"-241 769 CURVE SMOOTH",
"-195 754 OFFCURVE",
"-176 735 OFFCURVE",
"-176 669 CURVE",
"-72 669 LINE",
"-72 809 OFFCURVE",
"-113 851 OFFCURVE",
"-191 873 CURVE SMOOTH",
"-261 894 OFFCURVE",
"-377 911 OFFCURVE",
"-431 931 CURVE SMOOTH",
"-475 947 OFFCURVE",
"-487 963 OFFCURVE",
"-503 1014 CURVE"
);
}
);
width = 0;
}
);
unicode = 0946;
},
{
export = 0;
glyphname = devaHeight;
layers = (
{
layerId = "9A1863D8-8A35-4672-A3E4-263E374F0942";
name = Bold;
paths = (
{
closed = 1;
nodes = (
"10 554 LINE",
"10 0 LINE",
"462 0 LINE",
"462 554 LINE"
);
}
